<?xml version="1.0" encoding="UTF-8"?>
<!DOCTYPE svg PUBLIC "-//W3C//DTD SVG 1.1//EN" "http://www.w3.org/Graphics/SVG/1.1/DTD/svg11.dtd">
<!-- Creator: CorelDRAW 2019 (64-Bit) -->
<svg xmlns="http://www.w3.org/2000/svg" xml:space="preserve" width="218px" height="194px" version="1.1" style="shape-rendering:geometricPrecision; text-rendering:geometricPrecision; image-rendering:optimizeQuality; fill-rule:evenodd; clip-rule:evenodd"
viewBox="0 0 13.24 11.75"
 xmlns:xlink="http://www.w3.org/1999/xlink"
 xmlns:xodm="http://www.corel.com/coreldraw/odm/2003">
 <defs>
  <style type="text/css">
   <![CDATA[
    .fil1 {fill:#1C1B17;fill-rule:nonzero}
    .fil0 {fill:url(#id0);fill-rule:nonzero}
   ]]>
  </style>
  <linearGradient id="id0" gradientUnits="userSpaceOnUse" x1="8.97" y1="0.49" x2="5.12" y2="11.26">
   <stop offset="0" style="stop-opacity:1; stop-color:#805711"/>
   <stop offset="0.121569" style="stop-opacity:1; stop-color:#947025"/>
   <stop offset="0.278431" style="stop-opacity:1; stop-color:#CCB260"/>
   <stop offset="0.4" style="stop-opacity:1; stop-color:#C6A864"/>
   <stop offset="0.501961" style="stop-opacity:1; stop-color:#FEF3B3"/>
   <stop offset="0.690196" style="stop-opacity:1; stop-color:#CCB260"/>
   <stop offset="0.788235" style="stop-opacity:1; stop-color:#9E8241"/>
   <stop offset="0.870588" style="stop-opacity:1; stop-color:#A37B26"/>
   <stop offset="0.909804" style="stop-opacity:1; stop-color:#C09838"/>
   <stop offset="1" style="stop-opacity:1; stop-color:#866400"/>
  </linearGradient>
 </defs>
 <g id="Livello_x0020_1">
  <metadata id="CorelCorpID_0Corel-Layer"/>
  <path class="fil0" d="M11.84 8.31c-0.03,0.05 -0.05,0.08 -0.07,0.12 -0.06,-0.05 -0.11,-0.11 -0.17,-0.17 0.08,0.02 0.16,0.03 0.24,0.05zm-1.44 1.74c-0.04,-0.08 -0.06,-0.15 -0.1,-0.23 0.08,0.05 0.14,0.09 0.21,0.14 -0.04,0.03 -0.07,0.06 -0.11,0.09zm-6.62 -3.83c0.1,0.23 0.19,0.43 0.28,0.64 -0.18,0 -0.36,0 -0.55,0 0.09,-0.21 0.18,-0.41 0.27,-0.64zm2.52 2.3c0,-0.1 0.01,-0.19 0.06,-0.28 0.04,-0.08 0.11,-0.12 0.2,-0.12 0.09,0 0.16,0.04 0.2,0.12 0.09,0.19 0.09,0.37 0,0.56 -0.04,0.08 -0.11,0.12 -0.2,0.12 -0.09,0 -0.16,-0.04 -0.2,-0.12 -0.05,-0.09 -0.06,-0.18 -0.06,-0.28zm1.02 -2.3c0.09,0.23 0.18,0.43 0.27,0.64 -0.18,0 -0.36,0 -0.55,0 0.09,-0.21 0.18,-0.41 0.28,-0.64zm1.11 0.55c0,-0.2 0,-0.39 0,-0.59 0.15,0.01 0.31,-0.01 0.45,0.02 0.15,0.03 0.23,0.13 0.23,0.28 0,0.14 -0.09,0.24 -0.23,0.27 -0.15,0.03 -0.3,0.01 -0.45,0.02zm1.39 -0.59c0.17,0.01 0.34,-0.01 0.5,0.02 0.25,0.05 0.41,0.25 0.39,0.5 -0.01,0.28 -0.18,0.46 -0.44,0.48 -0.15,0.01 -0.3,0.01 -0.45,0.01 0,-0.34 0,-0.67 0,-1.01zm-1.07 -0.86c0,-0.33 0,-0.66 0,-1 0.18,0.01 0.36,-0.03 0.54,0.02 0.24,0.07 0.37,0.27 0.35,0.54 -0.02,0.24 -0.2,0.42 -0.44,0.44 -0.15,0.01 -0.3,0 -0.45,0zm1.3 -3.94c0.16,0.09 0.18,0.17 0.1,0.29 -0.08,0.11 -0.17,0.12 -0.29,0.01 0.06,-0.1 0.12,-0.2 0.19,-0.3zm-2.7 -0.53c-0.05,0.01 -0.09,0 -0.14,0 0.03,-0.07 0.05,-0.14 0.07,-0.22 0.04,0.08 0.05,0.15 0.07,0.22zm-1.14 0.16c-0.01,-0.04 -0.02,-0.07 -0.02,-0.11 0.06,-0.01 0.11,-0.04 0.16,0 0.02,0.09 -0.01,0.11 -0.14,0.11zm0.74 3.81c0,0.3 -0.22,0.52 -0.52,0.52 -0.29,0.01 -0.52,-0.22 -0.52,-0.52 0,-0.3 0.23,-0.52 0.52,-0.52 0.3,0 0.52,0.22 0.52,0.52zm-4.91 -0.56c-0.06,-0.02 -0.1,-0.04 -0.15,-0.06 0.02,-0.05 0.03,-0.11 0.09,-0.14 0.03,-0.01 0.06,0.01 0.08,0.03 0.04,0.06 -0.01,0.11 -0.02,0.17zm3.54 -3.21c-0.01,-0.06 -0.02,-0.1 -0.05,-0.15 -0.08,0.03 -0.15,0.06 -0.23,0.08 0.01,0.05 0.03,0.1 0.04,0.14 0.09,-0.02 0.16,-0.05 0.24,-0.07zm-2.57 1.45c0.07,0.03 0.13,0.06 0.2,0.09 -0.03,0.03 -0.06,0.07 -0.09,0.1 -0.05,-0.06 -0.09,-0.12 -0.11,-0.18 0,0 0,0 0,-0.01zm-0.8 0.7c-0.03,0.05 -0.06,0.1 -0.09,0.15 0.19,0.11 0.38,0.23 0.58,0.34 0.06,-0.1 0.12,-0.21 0.19,-0.31 -0.05,-0.03 -0.09,-0.06 -0.13,-0.08 -0.04,0.06 -0.07,0.11 -0.11,0.17 -0.15,-0.09 -0.29,-0.18 -0.44,-0.27zm2.92 7.75c-0.07,-0.03 -0.13,-0.06 -0.19,-0.08 0.07,-0.17 0.14,-0.33 0.2,-0.49 -0.05,-0.03 -0.1,-0.05 -0.16,-0.07 -0.09,0.21 -0.17,0.42 -0.26,0.63 0.12,0.05 0.23,0.1 0.35,0.15 0.02,-0.05 0.03,-0.09 0.06,-0.14zm0.68 0.36c0.01,-0.06 0.03,-0.1 0.03,-0.15 -0.06,-0.02 -0.12,-0.04 -0.19,-0.05 0.05,-0.18 0.09,-0.34 0.14,-0.52 -0.06,-0.01 -0.11,-0.03 -0.17,-0.04 -0.06,0.22 -0.12,0.44 -0.18,0.66 0.13,0.03 0.25,0.07 0.37,0.1zm-1.07 -10.2c0.04,-0.03 0.08,-0.03 0.11,-0.07 -0.02,-0.04 -0.04,-0.08 -0.06,-0.13 -0.14,0.07 -0.26,0.13 -0.39,0.2 0.02,0.04 0.03,0.09 0.07,0.13 0.04,-0.02 0.07,-0.04 0.11,-0.06 0.08,0.16 0.15,0.31 0.23,0.47 0.06,-0.03 0.11,-0.05 0.16,-0.08 -0.08,-0.15 -0.16,-0.31 -0.23,-0.46zm4.39 -0.35c-0.09,0.22 -0.17,0.42 -0.25,0.63 0.12,0.05 0.23,0.09 0.34,0.14 0.02,-0.05 0.04,-0.09 0.06,-0.14 -0.07,-0.03 -0.13,-0.05 -0.19,-0.08 0.02,-0.04 0.02,-0.08 0.05,-0.1 0.06,0.02 0.12,0.04 0.18,0.07 0.02,-0.05 0.04,-0.09 0.05,-0.14 -0.06,-0.04 -0.13,-0.04 -0.18,-0.09 0.01,-0.02 0.02,-0.06 0.04,-0.08 0.06,0.02 0.13,0.05 0.19,0.07 0.02,-0.05 0.04,-0.09 0.06,-0.14 -0.12,-0.04 -0.23,-0.09 -0.35,-0.14zm-6.89 7.67c0.04,-0.02 0.07,-0.03 0.1,-0.05 0.04,0.06 0.07,0.12 0.11,0.18 0.04,-0.03 0.08,-0.05 0.13,-0.08 -0.04,-0.06 -0.07,-0.11 -0.1,-0.17 0.03,-0.03 0.06,-0.04 0.09,-0.05 0.04,0.06 0.07,0.12 0.11,0.18 0.04,-0.03 0.09,-0.05 0.13,-0.08 -0.06,-0.11 -0.12,-0.22 -0.18,-0.33 -0.21,0.11 -0.4,0.22 -0.6,0.33 0.06,0.12 0.12,0.22 0.18,0.33 0.05,-0.02 0.09,-0.04 0.13,-0.07 -0.03,-0.06 -0.06,-0.12 -0.1,-0.19zm2.04 1.97c0.07,0.04 0.12,0.07 0.18,0.11 0.03,-0.05 0.06,-0.09 0.08,-0.14 -0.06,-0.03 -0.12,-0.07 -0.17,-0.1 0.01,-0.03 0.03,-0.06 0.05,-0.09 0.06,0.04 0.12,0.07 0.18,0.11 0.03,-0.05 0.05,-0.09 0.08,-0.14 -0.11,-0.06 -0.22,-0.13 -0.33,-0.19 -0.12,0.2 -0.23,0.39 -0.35,0.59 0.11,0.07 0.22,0.13 0.33,0.19 0.02,-0.05 0.06,-0.08 0.07,-0.13 -0.06,-0.04 -0.12,-0.07 -0.18,-0.11 0.02,-0.03 0.04,-0.06 0.06,-0.1zm4.87 0.64c0.12,-0.05 0.24,-0.1 0.35,-0.15 -0.02,-0.05 -0.03,-0.09 -0.06,-0.14 -0.07,0.03 -0.13,0.05 -0.19,0.08 -0.02,-0.03 -0.04,-0.07 -0.04,-0.1 0.06,-0.03 0.11,-0.06 0.17,-0.09 -0.01,-0.05 -0.03,-0.09 -0.06,-0.13 -0.06,0.02 -0.12,0.05 -0.18,0.07 -0.02,-0.03 -0.04,-0.06 -0.04,-0.09 0.06,-0.03 0.12,-0.06 0.19,-0.09 -0.02,-0.05 -0.04,-0.09 -0.06,-0.14 -0.12,0.05 -0.24,0.1 -0.35,0.16 0.09,0.21 0.18,0.41 0.27,0.62zm-2.56 0.24c-0.07,-0.01 -0.14,-0.02 -0.21,-0.03 0,-0.05 0.01,-0.08 0.02,-0.11 0.07,-0.01 0.13,0.02 0.2,0.01 0.01,-0.05 0.01,-0.09 0.02,-0.14 -0.07,-0.01 -0.14,-0.02 -0.2,-0.03 0,-0.04 0,-0.07 0.01,-0.1 0.07,-0.01 0.14,0.02 0.21,0.01 0,-0.05 0.01,-0.09 0.02,-0.14 -0.13,-0.02 -0.25,-0.03 -0.38,-0.05 -0.03,0.23 -0.06,0.45 -0.08,0.68 0.12,0.02 0.25,0.03 0.37,0.05 0.01,-0.05 0.02,-0.1 0.02,-0.15zm1.97 -10.49c0.02,-0.17 -0.12,-0.29 -0.28,-0.25 -0.09,0.01 -0.15,0.05 -0.17,0.14 -0.02,0.08 0.02,0.14 0.08,0.19 0.03,0.02 0.06,0.05 0.1,0.07 0.02,0.02 0.05,0.04 0.05,0.08 -0.01,0.04 -0.04,0.06 -0.08,0.06 -0.05,-0.02 -0.05,-0.06 -0.05,-0.11 -0.06,-0.01 -0.11,-0.03 -0.17,-0.03 -0.02,0.13 0.02,0.21 0.12,0.25 0.04,0.02 0.09,0.03 0.13,0.03 0.1,0.01 0.17,-0.03 0.2,-0.12 0.04,-0.08 0.02,-0.15 -0.06,-0.22 -0.03,-0.03 -0.07,-0.06 -0.1,-0.08 -0.03,-0.02 -0.05,-0.04 -0.05,-0.08 0.01,-0.03 0.03,-0.04 0.06,-0.04 0.05,0 0.05,0.05 0.06,0.07 0.06,0.02 0.1,0.03 0.16,0.04zm-6.25 3.76c0.02,-0.06 0.05,-0.1 0.06,-0.16 -0.07,-0.02 -0.13,-0.05 -0.19,-0.07 0.02,-0.07 0.04,-0.12 0.05,-0.18 0.01,-0.11 -0.05,-0.19 -0.16,-0.23 -0.1,-0.04 -0.2,-0.01 -0.25,0.08 -0.06,0.1 -0.09,0.21 -0.14,0.31 0.22,0.08 0.42,0.16 0.63,0.25zm0.48 -2.15c0.11,0.22 0.21,0.43 0.32,0.65 0.05,-0.05 0.08,-0.09 0.12,-0.13 -0.01,-0.04 -0.04,-0.07 -0.04,-0.11 0.05,-0.05 0.1,-0.11 0.15,-0.16 0.04,0.01 0.06,0.02 0.1,0.03 0.04,-0.04 0.07,-0.08 0.12,-0.13 -0.23,-0.09 -0.46,-0.17 -0.68,-0.25 -0.04,0.03 -0.07,0.06 -0.09,0.1zm4.15 -1.33c0.06,0.01 0.12,0.02 0.18,0.01 0.02,-0.03 0.02,-0.07 0.04,-0.09 0.08,0 0.16,0 0.23,0 0.01,0.04 0.03,0.07 0.04,0.1 0.06,0 0.11,0 0.18,0 -0.08,-0.23 -0.17,-0.45 -0.25,-0.67 -0.05,0 -0.09,0 -0.13,0 -0.1,0.21 -0.19,0.43 -0.29,0.65zm4.44 7.15c0.15,0.19 0.31,0.38 0.47,0.57 0.03,-0.06 0.06,-0.11 0.09,-0.16 -0.03,-0.03 -0.05,-0.06 -0.07,-0.09 0.04,-0.06 0.07,-0.13 0.11,-0.2 0.04,0 0.07,0.01 0.11,0.01 0.03,-0.05 0.05,-0.1 0.08,-0.16 -0.25,-0.03 -0.49,-0.06 -0.73,-0.09 -0.02,0.04 -0.04,0.08 -0.06,0.12zm-0.51 1.75c-0.22,-0.12 -0.44,-0.24 -0.65,-0.36 -0.04,0.03 -0.07,0.06 -0.1,0.09 0.07,0.24 0.14,0.47 0.22,0.71 0.05,-0.05 0.09,-0.08 0.13,-0.12 0.01,-0.04 -0.02,-0.07 -0.01,-0.11 0.05,-0.05 0.11,-0.09 0.17,-0.14 0.03,0.02 0.06,0.03 0.09,0.05 0.05,-0.04 0.1,-0.07 0.15,-0.12zm-7.63 -1c-0.08,0.01 -0.15,0.02 -0.22,0.03 0.02,-0.08 0.05,-0.15 0.07,-0.22 -0.04,-0.05 -0.08,-0.1 -0.12,-0.15 -0.04,0.13 -0.08,0.25 -0.12,0.36 -0.15,0.02 -0.28,0.03 -0.43,0.04 0.04,0.06 0.08,0.11 0.12,0.16 0.09,-0.02 0.17,-0.03 0.27,-0.04 -0.03,0.09 -0.06,0.18 -0.09,0.26 0.04,0.05 0.07,0.11 0.12,0.15 0.05,-0.14 0.09,-0.27 0.14,-0.4 0.12,-0.01 0.25,-0.03 0.38,-0.04 -0.05,-0.06 -0.08,-0.1 -0.12,-0.15zm0.67 1.01c0.08,-0.15 0.04,-0.34 -0.11,-0.45 -0.14,-0.11 -0.34,-0.09 -0.47,0.04 -0.12,0.13 -0.13,0.33 -0.01,0.47 0.12,0.15 0.32,0.17 0.47,0.07 -0.04,-0.05 -0.08,-0.08 -0.13,-0.12 -0.15,0.03 -0.25,-0.02 -0.26,-0.13 -0.01,-0.12 0.09,-0.24 0.2,-0.24 0.12,0 0.2,0.08 0.18,0.25 0.04,0.03 0.08,0.07 0.13,0.11zm4.6 1.01c-0.07,0.15 -0.16,0.2 -0.27,0.14 -0.1,-0.06 -0.14,-0.21 -0.07,-0.3 0.06,-0.1 0.17,-0.12 0.3,0 0.05,-0.02 0.11,-0.02 0.16,-0.05 -0.08,-0.16 -0.27,-0.23 -0.44,-0.16 -0.16,0.05 -0.26,0.24 -0.22,0.39 0.04,0.19 0.2,0.31 0.37,0.29 0.2,-0.02 0.33,-0.15 0.33,-0.34 -0.05,0 -0.11,0.02 -0.16,0.03zm3.68 -3.42c0,0 0.01,0 0.01,-0.01 0.08,-0.03 0.16,-0.05 0.24,-0.08 0.01,-0.06 0.03,-0.11 0.06,-0.18 -0.1,0.03 -0.19,0.06 -0.28,0.1 0,-0.02 0,-0.04 0,-0.05 -0.01,-0.09 -0.07,-0.16 -0.16,-0.18 -0.09,-0.03 -0.19,-0.01 -0.24,0.06 -0.08,0.11 -0.1,0.23 -0.14,0.35 0.22,0.08 0.44,0.15 0.65,0.22 0.02,-0.06 0.04,-0.11 0.05,-0.16 -0.06,-0.02 -0.12,-0.05 -0.19,-0.07zm-6.23 -7.04c0.04,0.23 0.07,0.44 0.11,0.66 0.05,0 0.1,-0.01 0.14,-0.02 0.05,-0.01 0.09,-0.01 0.14,-0.02 0.1,-0.03 0.17,-0.09 0.18,-0.18 0.01,-0.09 -0.03,-0.15 -0.13,-0.2 0.05,-0.06 0.06,-0.13 0.02,-0.2 -0.04,-0.07 -0.11,-0.09 -0.19,-0.08 -0.09,0.01 -0.17,0.02 -0.27,0.04zm4.03 0.63c-0.12,0.19 -0.24,0.37 -0.36,0.57 0.08,0.05 0.16,0.1 0.25,0.15 0.16,0.08 0.31,0.04 0.41,-0.12 0.11,-0.16 0.09,-0.32 -0.05,-0.44 -0.07,-0.06 -0.16,-0.11 -0.25,-0.16zm2.61 5.73c0.01,-0.1 0.03,-0.2 0.03,-0.29 0.02,-0.19 -0.09,-0.31 -0.28,-0.35 -0.19,-0.02 -0.34,0.06 -0.38,0.23 -0.03,0.1 -0.04,0.21 -0.05,0.31 0.22,0.04 0.44,0.07 0.68,0.1zm-5.15 4.54c0.05,0 0.1,0 0.15,0 -0.01,-0.24 -0.02,-0.46 -0.03,-0.68 -0.06,0 -0.11,0 -0.17,0 0.01,0.14 0.02,0.27 0.03,0.4 -0.01,0 -0.01,0 -0.02,0 -0.09,-0.13 -0.18,-0.26 -0.27,-0.39 -0.05,0.01 -0.1,-0.01 -0.15,0.02 0.01,0.22 0.02,0.45 0.03,0.68 0.07,-0.01 0.12,-0.01 0.17,-0.02 -0.01,-0.13 -0.01,-0.26 -0.02,-0.39 0,0 0.01,0 0.01,0 0.09,0.13 0.18,0.25 0.27,0.38zm-0.66 -7.87c0.1,-0.05 0.19,-0.1 0.28,-0.14 0.09,0.04 0.18,0.09 0.28,0.14 -0.02,-0.11 -0.04,-0.21 -0.06,-0.33 0.07,-0.07 0.14,-0.14 0.21,-0.2 -0.09,-0.02 -0.19,-0.03 -0.29,-0.05 -0.05,-0.09 -0.09,-0.18 -0.14,-0.28 -0.05,0.1 -0.1,0.19 -0.14,0.28 -0.1,0.02 -0.2,0.03 -0.3,0.05 0.07,0.07 0.15,0.14 0.21,0.21 -0.02,0.11 -0.03,0.21 -0.05,0.32zm1.01 -0.32c-0.02,0.11 -0.04,0.21 -0.05,0.32 0.1,-0.05 0.19,-0.1 0.27,-0.14 0.1,0.04 0.19,0.09 0.28,0.14 -0.02,-0.11 -0.03,-0.21 -0.05,-0.32 0.07,-0.07 0.14,-0.14 0.21,-0.21 -0.1,-0.02 -0.2,-0.03 -0.3,-0.05 -0.04,-0.09 -0.09,-0.18 -0.14,-0.28 -0.05,0.1 -0.09,0.19 -0.14,0.28 -0.1,0.02 -0.2,0.03 -0.3,0.05 0.08,0.07 0.15,0.14 0.22,0.21zm-1.91 0.01c-0.02,0.1 -0.04,0.2 -0.06,0.31 0.1,-0.05 0.19,-0.1 0.28,-0.14 0.09,0.04 0.18,0.09 0.27,0.14 0,-0.12 -0.04,-0.21 -0.04,-0.33 0.07,-0.06 0.14,-0.13 0.21,-0.2 -0.1,-0.02 -0.2,-0.03 -0.3,-0.05 -0.04,-0.09 -0.09,-0.18 -0.14,-0.28 -0.05,0.1 -0.09,0.19 -0.14,0.28 -0.1,0.02 -0.2,0.03 -0.31,0.05 0.08,0.08 0.15,0.15 0.23,0.22zm1.97 5.58c0.2,0 0.41,0 0.62,0 0,0.09 0,0.17 0,0.26 0.07,0 0.13,0 0.2,0 0,-0.09 0,-0.17 0,-0.26 0.07,0 0.14,0 0.2,0 0,-0.07 0,-0.12 0,-0.18 -0.07,0 -0.13,0 -0.2,0 0,-0.08 0,-0.15 0,-0.23 -0.07,0 -0.13,0 -0.2,0 0,0.08 0,0.15 0,0.22 -0.12,0 -0.24,0 -0.36,0 0.17,-0.23 0.34,-0.46 0.52,-0.69 -0.09,0 -0.16,0 -0.23,0 -0.16,0.22 -0.32,0.43 -0.49,0.64 -0.06,0.07 -0.08,0.14 -0.06,0.24zm-0.46 0.08c0.08,-0.1 0.18,-0.21 0.28,-0.31 0.05,-0.06 0.1,-0.11 0.13,-0.18 0.09,-0.2 0,-0.4 -0.21,-0.46 -0.07,-0.02 -0.15,-0.03 -0.23,-0.02 -0.14,0.01 -0.27,0.06 -0.37,0.19 0.05,0.03 0.1,0.07 0.15,0.11 0.1,-0.11 0.22,-0.14 0.36,-0.11 0.09,0.02 0.13,0.09 0.11,0.18 -0.01,0.09 -0.05,0.14 -0.11,0.2 -0.15,0.15 -0.31,0.29 -0.46,0.44 0,0.05 0,0.09 0,0.14 0.28,0 0.56,0 0.83,0 0,-0.06 0,-0.12 0,-0.18 -0.17,0 -0.34,0 -0.48,0zm-1.32 0.18c0,-0.06 0,-0.12 0,-0.18 -0.18,0 -0.35,0 -0.48,0 0.09,-0.1 0.18,-0.21 0.28,-0.32 0.05,-0.05 0.09,-0.1 0.12,-0.15 0.1,-0.21 0.01,-0.43 -0.22,-0.49 -0.14,-0.03 -0.27,-0.02 -0.4,0.04 -0.07,0.03 -0.14,0.07 -0.18,0.14 0.05,0.03 0.1,0.07 0.14,0.1 0.11,-0.09 0.19,-0.12 0.31,-0.11 0.15,0.02 0.22,0.14 0.15,0.27 -0.03,0.06 -0.08,0.1 -0.13,0.15 -0.14,0.14 -0.28,0.27 -0.42,0.41 0,0.05 0,0.09 0,0.14 0.27,0 0.55,0 0.83,0zm0.96 -0.57c-0.01,-0.1 -0.02,-0.19 -0.05,-0.29 -0.08,-0.18 -0.23,-0.29 -0.42,-0.29 -0.2,-0.01 -0.36,0.1 -0.43,0.28 -0.08,0.2 -0.08,0.4 0,0.59 0.07,0.18 0.21,0.29 0.41,0.29 0.2,0.01 0.34,-0.09 0.43,-0.27 0.04,-0.1 0.05,-0.21 0.06,-0.31zm0.33 -2.97c0.35,0 0.69,0 1.03,0 0,-0.07 0,-0.15 0,-0.23 -0.25,0 -0.5,0 -0.76,0 0,-0.41 0,-0.82 0,-1.23 -0.1,0 -0.18,0 -0.27,0 0,0.49 0,0.97 0,1.46zm0.46 1.87c0.09,0 0.18,0 0.28,0 -0.22,-0.49 -0.44,-0.98 -0.66,-1.47 -0.09,0 -0.18,0 -0.27,0 -0.22,0.49 -0.44,0.98 -0.66,1.47 0.1,0 0.19,0 0.28,0 0.05,-0.12 0.1,-0.23 0.15,-0.34 0.25,0 0.49,0 0.73,0 0.05,0.12 0.1,0.23 0.15,0.34zm-4.18 -1.47c-0.22,0.49 -0.44,0.98 -0.66,1.47 0.1,0 0.19,0 0.28,0 0.05,-0.11 0.1,-0.23 0.15,-0.34 0.24,0 0.49,0 0.73,0 0.05,0.12 0.1,0.23 0.15,0.34 0.09,0 0.18,0 0.28,0 -0.22,-0.49 -0.44,-0.98 -0.66,-1.47 -0.09,0 -0.18,0 -0.27,0zm1.89 -1.65c-0.01,-0.03 -0.04,-0.05 -0.06,-0.07 -0.2,-0.16 -0.43,-0.2 -0.67,-0.16 -0.29,0.05 -0.5,0.21 -0.6,0.49 -0.1,0.28 -0.06,0.56 0.15,0.78 0.22,0.23 0.5,0.28 0.79,0.22 0.14,-0.02 0.27,-0.07 0.38,-0.16 0,-0.2 0,-0.4 0,-0.59 -0.09,0 -0.17,0 -0.26,0 0,0.15 0,0.31 0,0.45 -0.23,0.14 -0.55,0.1 -0.71,-0.1 -0.16,-0.19 -0.16,-0.51 0.01,-0.69 0.09,-0.1 0.2,-0.15 0.34,-0.17 0.18,-0.02 0.34,0.04 0.47,0.17 0.06,-0.06 0.11,-0.12 0.16,-0.17zm2.89 3.12c0,-0.14 0,-0.28 0,-0.43 0.13,0 0.26,0 0.39,0 0.1,0.15 0.2,0.29 0.3,0.43 0.09,0 0.19,0 0.29,0 -0.11,-0.16 -0.22,-0.32 -0.34,-0.48 0.08,-0.04 0.15,-0.08 0.2,-0.14 0.25,-0.29 0.09,-0.73 -0.29,-0.82 -0.27,-0.06 -0.54,-0.01 -0.82,-0.03 0,0.49 0,0.98 0,1.47 0.09,0 0.18,0 0.27,0zm-2 -1.83c0.05,-0.01 0.09,-0.01 0.14,-0.02 0.65,-0.1 0.82,-0.8 0.5,-1.21 -0.2,-0.25 -0.47,-0.33 -0.78,-0.29 -0.44,0.06 -0.73,0.48 -0.63,0.92 0.08,0.36 0.38,0.59 0.77,0.6zm2.05 -1.51c0,0.49 0,0.98 0,1.47 0.25,0 0.49,0.01 0.74,0 0.18,-0.01 0.35,-0.07 0.48,-0.2 0.22,-0.22 0.27,-0.48 0.18,-0.77 -0.09,-0.29 -0.31,-0.44 -0.6,-0.48 -0.27,-0.04 -0.53,-0.01 -0.8,-0.02zm1.07 1.87c0,0.5 0,0.98 0,1.47 0.22,0 0.44,0 0.66,0 0.07,0 0.14,-0.01 0.21,-0.02 0.35,-0.08 0.57,-0.36 0.57,-0.72 0,-0.36 -0.22,-0.63 -0.57,-0.7 -0.29,-0.06 -0.58,-0.01 -0.87,-0.03zm-3.49 1.12c-0.13,-0.38 -0.25,-0.75 -0.37,-1.12 -0.09,0 -0.17,0 -0.25,0 -0.13,0.37 -0.25,0.73 -0.38,1.12 -0.13,-0.39 -0.25,-0.75 -0.37,-1.12 -0.09,0 -0.18,0 -0.28,0 0.16,0.5 0.32,0.98 0.48,1.47 0.1,0 0.2,0 0.3,0 0.12,-0.36 0.24,-0.71 0.36,-1.06 0,0 0.01,0 0.01,0 0.12,0.35 0.24,0.71 0.36,1.06 0.1,0 0.19,0 0.29,0 0.16,-0.49 0.32,-0.98 0.49,-1.47 -0.1,0 -0.18,0 -0.26,0 -0.13,0.37 -0.25,0.74 -0.38,1.12zm5.03 2.08c0.12,0.06 0.24,0.12 0.37,0.18 0.03,-0.04 0.06,-0.08 0.09,-0.12 -0.13,-0.19 -0.27,-0.38 -0.41,-0.58 -0.04,0.05 -0.07,0.1 -0.11,0.14 0.09,0.11 0.17,0.22 0.26,0.33 0,0 -0.01,0.01 -0.01,0.01 -0.13,-0.06 -0.25,-0.12 -0.38,-0.19 -0.03,0.04 -0.05,0.07 -0.08,0.1 0.08,0.11 0.16,0.22 0.25,0.33 -0.01,0 -0.01,0.01 -0.02,0.01 -0.11,-0.06 -0.23,-0.12 -0.36,-0.18 -0.03,0.04 -0.07,0.08 -0.11,0.13 0.22,0.11 0.43,0.2 0.64,0.3 0.04,-0.04 0.07,-0.08 0.1,-0.12 -0.08,-0.11 -0.16,-0.22 -0.24,-0.33 0,0 0.01,0 0.01,-0.01zm-7.07 -7.35c-0.15,-0.05 -0.29,-0.11 -0.43,-0.16 -0.04,0.03 -0.08,0.05 -0.12,0.09 0.13,0.18 0.27,0.35 0.4,0.53 0.04,-0.03 0.09,-0.06 0.13,-0.09 -0.08,-0.11 -0.15,-0.21 -0.23,-0.31 0,0 0.01,-0.01 0.01,-0.01 0.14,0.05 0.28,0.11 0.43,0.16 0.04,-0.02 0.07,-0.05 0.12,-0.08 -0.14,-0.19 -0.27,-0.36 -0.41,-0.54 -0.04,0.03 -0.08,0.06 -0.13,0.09 0.08,0.11 0.16,0.21 0.24,0.31 -0.01,0 -0.01,0.01 -0.01,0.01zm-2.41 5.88c0.32,-0.08 0.57,-0.25 0.68,-0.57 0.06,-0.14 0.06,-0.35 0.02,-0.43 -0.18,0 -0.35,0.05 -0.51,0.15 -0.16,0.11 -0.25,0.26 -0.31,0.45 -0.04,-0.17 -0.07,-0.32 -0.1,-0.48 -0.02,-0.12 -0.04,-0.23 -0.04,-0.35 0.03,-0.03 0.06,-0.03 0.1,-0.04 0.36,-0.1 0.65,-0.31 0.8,-0.67 0.12,-0.27 0.13,-0.54 0.02,-0.82 0,-0.01 -0.01,-0.02 -0.01,-0.04 -0.01,0 -0.01,-0.01 -0.03,-0.03 -0.36,0.09 -0.67,0.29 -0.88,0.61 -0.1,-0.42 0.38,-1.9 0.86,-2.65 0.52,-0.81 1.2,-1.46 2.04,-1.92 2.25,-1.25 4.8,-0.77 6.37,0.53 -0.27,0.35 -0.41,0.74 -0.28,1.19 0.07,0.23 0.21,0.42 0.39,0.59 0.2,-0.17 0.34,-0.37 0.41,-0.62 0.07,-0.24 0.05,-0.48 -0.04,-0.73 0.28,0.27 0.52,0.57 0.74,0.9 -0.34,0.27 -0.58,0.61 -0.58,1.07 0,0.27 0.08,0.51 0.22,0.75 0.22,-0.1 0.39,-0.26 0.54,-0.44 0.14,-0.19 0.2,-0.42 0.21,-0.65 0.03,0 0.03,0.03 0.04,0.05 0.11,0.25 0.21,0.51 0.29,0.78 0.02,0.06 0.01,0.11 -0.03,0.16 -0.14,0.22 -0.22,0.47 -0.22,0.74 0,0.36 0.15,0.65 0.4,0.91 0.02,0.02 0.03,0.03 0.05,0.05 -0.08,2.44 -1.94,4.94 -4.89,5.36 -3.14,0.45 -5.56,-1.62 -6.26,-3.85zm4.55 -6.93c0,-0.03 -0.01,-0.06 -0.01,-0.09 0.03,-0.02 0.07,-0.02 0.1,-0.02 0.03,0.01 0.04,0.04 0.03,0.06 -0.02,0.05 -0.07,0.04 -0.12,0.05zm6.3 5.94c-0.12,-0.01 -0.24,-0.03 -0.35,-0.05 -0.02,-0.09 0.01,-0.16 0.07,-0.19 0.08,-0.04 0.17,-0.03 0.24,0.02 0.08,0.05 0.07,0.13 0.04,0.22zm-0.58 0.78c0.02,-0.06 0.03,-0.12 0.09,-0.14 0.03,-0.01 0.07,0 0.1,0.03 0.04,0.06 0.01,0.11 -0.01,0.17 -0.06,-0.02 -0.12,-0.04 -0.18,-0.06z"/>
  <path class="fil1" d="M1.61 7.68c0.7,2.23 3.12,4.3 6.26,3.85 2.95,-0.42 4.81,-2.92 4.89,-5.36 -0.02,-0.02 -0.03,-0.03 -0.05,-0.05 -0.25,-0.26 -0.4,-0.55 -0.4,-0.91 0,-0.27 0.08,-0.52 0.22,-0.74 0.04,-0.05 0.05,-0.1 0.03,-0.16 -0.08,-0.27 -0.18,-0.53 -0.29,-0.78 -0.01,-0.02 -0.01,-0.05 -0.04,-0.05 -0.01,0.23 -0.07,0.46 -0.21,0.65 -0.15,0.18 -0.32,0.34 -0.54,0.44 -0.14,-0.24 -0.22,-0.48 -0.22,-0.75 0,-0.46 0.24,-0.8 0.58,-1.07 -0.22,-0.33 -0.46,-0.63 -0.74,-0.9 0.09,0.25 0.11,0.49 0.04,0.73 -0.07,0.25 -0.21,0.45 -0.41,0.62 -0.18,-0.17 -0.32,-0.36 -0.39,-0.59 -0.13,-0.45 0.01,-0.84 0.28,-1.19 -1.57,-1.3 -4.12,-1.78 -6.37,-0.53 -0.84,0.46 -1.52,1.11 -2.04,1.92 -0.48,0.75 -0.96,2.23 -0.86,2.65 0.21,-0.32 0.52,-0.52 0.88,-0.61 0.02,0.02 0.02,0.03 0.03,0.03 0,0.02 0.01,0.03 0.01,0.04 0.11,0.28 0.1,0.55 -0.02,0.82 -0.15,0.36 -0.44,0.57 -0.8,0.67 -0.04,0.01 -0.07,0.01 -0.1,0.04 0,0.12 0.02,0.23 0.04,0.35 0.03,0.16 0.06,0.31 0.1,0.48 0.06,-0.19 0.15,-0.34 0.31,-0.45 0.16,-0.1 0.33,-0.15 0.51,-0.15 0.04,0.08 0.04,0.29 -0.02,0.43 -0.11,0.32 -0.36,0.49 -0.68,0.57zm2.41 -5.88c0,0 0,-0.01 0.01,-0.01 -0.08,-0.1 -0.16,-0.2 -0.24,-0.31 0.05,-0.03 0.09,-0.06 0.13,-0.09 0.14,0.18 0.27,0.35 0.41,0.54 -0.05,0.03 -0.08,0.06 -0.12,0.08 -0.15,-0.05 -0.29,-0.11 -0.43,-0.16 0,0 -0.01,0.01 -0.01,0.01 0.08,0.1 0.15,0.2 0.23,0.31 -0.04,0.03 -0.09,0.06 -0.13,0.09 -0.13,-0.18 -0.27,-0.35 -0.4,-0.53 0.04,-0.04 0.08,-0.06 0.12,-0.09 0.14,0.05 0.28,0.11 0.43,0.16zm7.03 7.56c0.01,0 0.01,-0.01 0.02,-0.01 -0.09,-0.11 -0.17,-0.22 -0.25,-0.33 0.03,-0.03 0.05,-0.06 0.08,-0.1 0.13,0.07 0.25,0.13 0.38,0.19 0,0 0.01,-0.01 0.01,-0.01 -0.09,-0.11 -0.17,-0.22 -0.26,-0.33 0.04,-0.04 0.07,-0.09 0.11,-0.14 0.14,0.2 0.28,0.39 0.41,0.58 -0.03,0.04 -0.06,0.08 -0.09,0.12 -0.13,-0.06 -0.25,-0.12 -0.37,-0.18 0,0.01 -0.01,0.01 -0.01,0.01 0.08,0.11 0.16,0.22 0.24,0.33 -0.03,0.04 -0.06,0.08 -0.1,0.12 -0.21,-0.1 -0.42,-0.19 -0.64,-0.3 0.04,-0.05 0.08,-0.09 0.11,-0.13 0.13,0.06 0.25,0.12 0.36,0.18zm-5.47 -8.31c-0.08,0.02 -0.15,0.05 -0.24,0.07 -0.01,-0.04 -0.03,-0.09 -0.04,-0.14 0.08,-0.02 0.15,-0.05 0.23,-0.08 0.03,0.05 0.04,0.09 0.05,0.15zm-3.37 2.15c0.15,0.09 0.29,0.18 0.44,0.27 0.04,-0.06 0.07,-0.11 0.11,-0.17 0.04,0.02 0.08,0.05 0.13,0.08 -0.07,0.1 -0.13,0.21 -0.19,0.31 -0.2,-0.11 -0.39,-0.23 -0.58,-0.34 0.03,-0.05 0.06,-0.1 0.09,-0.15zm2.92 7.75c-0.03,0.05 -0.04,0.09 -0.06,0.14 -0.12,-0.05 -0.23,-0.1 -0.35,-0.15 0.09,-0.21 0.17,-0.42 0.26,-0.63 0.06,0.02 0.11,0.04 0.16,0.07 -0.06,0.16 -0.13,0.32 -0.2,0.49 0.06,0.02 0.12,0.05 0.19,0.08zm0.68 0.36c-0.12,-0.03 -0.24,-0.07 -0.37,-0.1 0.06,-0.22 0.12,-0.44 0.18,-0.66 0.06,0.01 0.11,0.03 0.17,0.04 -0.05,0.18 -0.09,0.34 -0.14,0.52 0.07,0.01 0.13,0.03 0.19,0.05 0,0.05 -0.02,0.09 -0.03,0.15zm-1.07 -10.2c0.07,0.15 0.15,0.31 0.23,0.46 -0.05,0.03 -0.1,0.05 -0.16,0.08 -0.08,-0.16 -0.15,-0.31 -0.23,-0.47 -0.04,0.02 -0.07,0.04 -0.11,0.06 -0.04,-0.04 -0.05,-0.09 -0.07,-0.13 0.13,-0.07 0.25,-0.13 0.39,-0.2 0.02,0.05 0.04,0.09 0.06,0.13 -0.03,0.04 -0.07,0.04 -0.11,0.07zm4.39 -0.35c0.12,0.05 0.23,0.1 0.35,0.14 -0.02,0.05 -0.04,0.09 -0.06,0.14 -0.06,-0.02 -0.13,-0.05 -0.19,-0.07 -0.02,0.02 -0.03,0.06 -0.04,0.08 0.05,0.05 0.12,0.05 0.18,0.09 -0.01,0.05 -0.03,0.09 -0.05,0.14 -0.06,-0.03 -0.12,-0.05 -0.18,-0.07 -0.03,0.02 -0.03,0.06 -0.05,0.1 0.06,0.03 0.12,0.05 0.19,0.08 -0.02,0.05 -0.04,0.09 -0.06,0.14 -0.11,-0.05 -0.22,-0.09 -0.34,-0.14 0.08,-0.21 0.16,-0.41 0.25,-0.63zm-6.89 7.67c0.04,0.07 0.07,0.13 0.1,0.19 -0.04,0.03 -0.08,0.05 -0.13,0.07 -0.06,-0.11 -0.12,-0.21 -0.18,-0.33 0.2,-0.11 0.39,-0.22 0.6,-0.33 0.06,0.11 0.12,0.22 0.18,0.33 -0.04,0.03 -0.09,0.05 -0.13,0.08 -0.04,-0.06 -0.07,-0.12 -0.11,-0.18 -0.03,0.01 -0.06,0.02 -0.09,0.05 0.03,0.06 0.06,0.11 0.1,0.17 -0.05,0.03 -0.09,0.05 -0.13,0.08 -0.04,-0.06 -0.07,-0.12 -0.11,-0.18 -0.03,0.02 -0.06,0.03 -0.1,0.05zm2.04 1.97c-0.02,0.04 -0.04,0.07 -0.06,0.1 0.06,0.04 0.12,0.07 0.18,0.11 -0.01,0.05 -0.05,0.08 -0.07,0.13 -0.11,-0.06 -0.22,-0.12 -0.33,-0.19 0.12,-0.2 0.23,-0.39 0.35,-0.59 0.11,0.06 0.22,0.13 0.33,0.19 -0.03,0.05 -0.05,0.09 -0.08,0.14 -0.06,-0.04 -0.12,-0.07 -0.18,-0.11 -0.02,0.03 -0.04,0.06 -0.05,0.09 0.05,0.03 0.11,0.07 0.17,0.1 -0.02,0.05 -0.05,0.09 -0.08,0.14 -0.06,-0.04 -0.11,-0.07 -0.18,-0.11zm4.87 0.64c-0.09,-0.21 -0.18,-0.41 -0.27,-0.62 0.11,-0.06 0.23,-0.11 0.35,-0.16 0.02,0.05 0.04,0.09 0.06,0.14 -0.07,0.03 -0.13,0.06 -0.19,0.09 0,0.03 0.02,0.06 0.04,0.09 0.06,-0.02 0.12,-0.05 0.18,-0.07 0.03,0.04 0.05,0.08 0.06,0.13 -0.06,0.03 -0.11,0.06 -0.17,0.09 0,0.03 0.02,0.07 0.04,0.1 0.06,-0.03 0.12,-0.05 0.19,-0.08 0.03,0.05 0.04,0.09 0.06,0.14 -0.11,0.05 -0.23,0.1 -0.35,0.15zm-2.56 0.24c0,0.05 -0.01,0.1 -0.02,0.15 -0.12,-0.02 -0.25,-0.03 -0.37,-0.05 0.02,-0.23 0.05,-0.45 0.08,-0.68 0.13,0.02 0.25,0.03 0.38,0.05 -0.01,0.05 -0.02,0.09 -0.02,0.14 -0.07,0.01 -0.14,-0.02 -0.21,-0.01 -0.01,0.03 -0.01,0.06 -0.01,0.1 0.06,0.01 0.13,0.02 0.2,0.03 -0.01,0.05 -0.01,0.09 -0.02,0.14 -0.07,0.01 -0.13,-0.02 -0.2,-0.01 -0.01,0.03 -0.02,0.06 -0.02,0.11 0.07,0.01 0.14,0.02 0.21,0.03zm1.97 -10.49c-0.06,-0.01 -0.1,-0.02 -0.16,-0.04 -0.01,-0.02 -0.01,-0.07 -0.06,-0.07 -0.03,0 -0.05,0.01 -0.06,0.04 0,0.04 0.02,0.06 0.05,0.08 0.03,0.02 0.07,0.05 0.1,0.08 0.08,0.07 0.1,0.14 0.06,0.22 -0.03,0.09 -0.1,0.13 -0.2,0.12 -0.04,0 -0.09,-0.01 -0.13,-0.03 -0.1,-0.04 -0.14,-0.12 -0.12,-0.25 0.06,0 0.11,0.02 0.17,0.03 0,0.05 0,0.09 0.05,0.11 0.04,0 0.07,-0.02 0.08,-0.06 0,-0.04 -0.03,-0.06 -0.05,-0.08 -0.04,-0.02 -0.07,-0.05 -0.1,-0.07 -0.06,-0.05 -0.1,-0.11 -0.08,-0.19 0.02,-0.09 0.08,-0.13 0.17,-0.14 0.16,-0.04 0.3,0.08 0.28,0.25zm-6.52 3.47c0.01,-0.06 0.06,-0.11 0.02,-0.17 -0.02,-0.02 -0.05,-0.04 -0.08,-0.03 -0.06,0.03 -0.07,0.09 -0.09,0.14 0.05,0.02 0.09,0.04 0.15,0.06zm0.27 0.29c-0.21,-0.09 -0.41,-0.17 -0.63,-0.25 0.05,-0.1 0.08,-0.21 0.14,-0.31 0.05,-0.09 0.15,-0.12 0.25,-0.08 0.11,0.04 0.17,0.12 0.16,0.23 -0.01,0.06 -0.03,0.11 -0.05,0.18 0.06,0.02 0.12,0.05 0.19,0.07 -0.01,0.06 -0.04,0.1 -0.06,0.16zm0.7 -2.05c0,0 0,0.01 0,0.01 0.02,0.06 0.06,0.12 0.11,0.18 0.03,-0.03 0.06,-0.07 0.09,-0.1 -0.07,-0.03 -0.13,-0.06 -0.2,-0.09zm-0.22 -0.1c0.02,-0.04 0.05,-0.07 0.09,-0.1 0.22,0.08 0.45,0.16 0.68,0.25 -0.05,0.05 -0.08,0.09 -0.12,0.13 -0.04,-0.01 -0.06,-0.02 -0.1,-0.03 -0.05,0.05 -0.1,0.11 -0.15,0.16 0,0.04 0.03,0.07 0.04,0.11 -0.04,0.04 -0.07,0.08 -0.12,0.13 -0.11,-0.22 -0.21,-0.43 -0.32,-0.65zm4.56 -1.55c-0.02,-0.07 -0.03,-0.14 -0.07,-0.22 -0.02,0.08 -0.04,0.15 -0.07,0.22 0.05,0 0.09,0.01 0.14,0zm-0.41 0.22c0.1,-0.22 0.19,-0.44 0.29,-0.65 0.04,0 0.08,0 0.13,0 0.08,0.22 0.17,0.44 0.25,0.67 -0.07,0 -0.12,0 -0.18,0 -0.01,-0.03 -0.03,-0.06 -0.04,-0.1 -0.07,0 -0.15,0 -0.23,0 -0.02,0.02 -0.02,0.06 -0.04,0.09 -0.06,0.01 -0.12,0 -0.18,-0.01zm4.9 7.24c-0.08,-0.02 -0.16,-0.03 -0.24,-0.05 0.06,0.06 0.11,0.12 0.17,0.17 0.02,-0.04 0.04,-0.07 0.07,-0.12zm-0.46 -0.09c0.02,-0.04 0.04,-0.08 0.06,-0.12 0.24,0.03 0.48,0.06 0.73,0.09 -0.03,0.06 -0.05,0.11 -0.08,0.16 -0.04,0 -0.07,-0.01 -0.11,-0.01 -0.04,0.07 -0.07,0.14 -0.11,0.2 0.02,0.03 0.04,0.06 0.07,0.09 -0.03,0.05 -0.06,0.1 -0.09,0.16 -0.16,-0.19 -0.32,-0.38 -0.47,-0.57zm-0.98 1.83c0.04,-0.03 0.07,-0.06 0.11,-0.09 -0.07,-0.05 -0.13,-0.09 -0.21,-0.14 0.04,0.08 0.06,0.15 0.1,0.23zm0.47 -0.08c-0.05,0.05 -0.1,0.08 -0.15,0.12 -0.03,-0.02 -0.06,-0.03 -0.09,-0.05 -0.06,0.05 -0.12,0.09 -0.17,0.14 -0.01,0.04 0.02,0.07 0.01,0.11 -0.04,0.04 -0.08,0.07 -0.13,0.12 -0.08,-0.24 -0.15,-0.47 -0.22,-0.71 0.03,-0.03 0.06,-0.06 0.1,-0.09 0.21,0.12 0.43,0.24 0.65,0.36zm-7.63 -1c0.04,0.05 0.07,0.09 0.12,0.15 -0.13,0.01 -0.26,0.03 -0.38,0.04 -0.05,0.13 -0.09,0.26 -0.14,0.4 -0.05,-0.04 -0.08,-0.1 -0.12,-0.15 0.03,-0.08 0.06,-0.17 0.09,-0.26 -0.1,0.01 -0.18,0.02 -0.27,0.04 -0.04,-0.05 -0.08,-0.1 -0.12,-0.16 0.15,-0.01 0.28,-0.02 0.43,-0.04 0.04,-0.11 0.08,-0.23 0.12,-0.36 0.04,0.05 0.08,0.1 0.12,0.15 -0.02,0.07 -0.05,0.14 -0.07,0.22 0.07,-0.01 0.14,-0.02 0.22,-0.03zm0.67 1.01c-0.05,-0.04 -0.09,-0.08 -0.13,-0.11 0.02,-0.17 -0.06,-0.25 -0.18,-0.25 -0.11,0 -0.21,0.12 -0.2,0.24 0.01,0.11 0.11,0.16 0.26,0.13 0.05,0.04 0.09,0.07 0.13,0.12 -0.15,0.1 -0.35,0.08 -0.47,-0.07 -0.12,-0.14 -0.11,-0.34 0.01,-0.47 0.13,-0.13 0.33,-0.15 0.47,-0.04 0.15,0.11 0.19,0.3 0.11,0.45zm4.6 1.01c0.05,-0.01 0.11,-0.03 0.16,-0.03 0,0.19 -0.13,0.32 -0.33,0.34 -0.17,0.02 -0.33,-0.1 -0.37,-0.29 -0.04,-0.15 0.06,-0.34 0.22,-0.39 0.17,-0.07 0.36,0 0.44,0.16 -0.05,0.03 -0.11,0.03 -0.16,0.05 -0.13,-0.12 -0.24,-0.1 -0.3,0 -0.07,0.09 -0.03,0.24 0.07,0.3 0.11,0.06 0.2,0.01 0.27,-0.14zm3.37 -3.52c0.06,0.02 0.12,0.04 0.18,0.06 0.02,-0.06 0.05,-0.11 0.01,-0.17 -0.03,-0.03 -0.07,-0.04 -0.1,-0.03 -0.06,0.02 -0.07,0.08 -0.09,0.14zm0.31 0.1c0.07,0.02 0.13,0.05 0.19,0.07 -0.01,0.05 -0.03,0.1 -0.05,0.16 -0.21,-0.07 -0.43,-0.14 -0.65,-0.22 0.04,-0.12 0.06,-0.24 0.14,-0.35 0.05,-0.07 0.15,-0.09 0.24,-0.06 0.09,0.02 0.15,0.09 0.16,0.18 0,0.01 0,0.03 0,0.05 0.09,-0.04 0.18,-0.07 0.28,-0.1 -0.03,0.07 -0.05,0.12 -0.06,0.18 -0.08,0.03 -0.16,0.05 -0.24,0.08 0,0.01 -0.01,0.01 -0.01,0.01zm-6.03 -6.82c0.05,-0.01 0.1,0 0.12,-0.05 0.01,-0.02 0,-0.05 -0.03,-0.06 -0.03,0 -0.07,0 -0.1,0.02 0,0.03 0.01,0.06 0.01,0.09zm0.05 0.26c0.13,0 0.16,-0.02 0.14,-0.11 -0.05,-0.04 -0.1,-0.01 -0.16,0 0,0.04 0.01,0.07 0.02,0.11zm-0.25 -0.48c0.1,-0.02 0.18,-0.03 0.27,-0.04 0.08,-0.01 0.15,0.01 0.19,0.08 0.04,0.07 0.03,0.14 -0.02,0.2 0.1,0.05 0.14,0.11 0.13,0.2 -0.01,0.09 -0.08,0.15 -0.18,0.18 -0.05,0.01 -0.09,0.01 -0.14,0.02 -0.04,0.01 -0.09,0.02 -0.14,0.02 -0.04,-0.22 -0.07,-0.43 -0.11,-0.66zm4.09 0.85c-0.07,0.1 -0.13,0.2 -0.19,0.3 0.12,0.11 0.21,0.1 0.29,-0.01 0.08,-0.12 0.06,-0.2 -0.1,-0.29zm-0.06 -0.22c0.09,0.05 0.18,0.1 0.25,0.16 0.14,0.12 0.16,0.28 0.05,0.44 -0.1,0.16 -0.25,0.2 -0.41,0.12 -0.09,-0.05 -0.17,-0.1 -0.25,-0.15 0.12,-0.2 0.24,-0.38 0.36,-0.57zm2.47 5.53c0.03,-0.09 0.04,-0.17 -0.04,-0.22 -0.07,-0.05 -0.16,-0.06 -0.24,-0.02 -0.06,0.03 -0.09,0.1 -0.07,0.19 0.11,0.02 0.23,0.04 0.35,0.05zm0.14 0.2c-0.24,-0.03 -0.46,-0.06 -0.68,-0.1 0.01,-0.1 0.02,-0.21 0.05,-0.31 0.04,-0.17 0.19,-0.25 0.38,-0.23 0.19,0.04 0.3,0.16 0.28,0.35 0,0.09 -0.02,0.19 -0.03,0.29zm-5.15 4.54c-0.09,-0.13 -0.18,-0.25 -0.27,-0.38 0,0 -0.01,0 -0.01,0 0.01,0.13 0.01,0.26 0.02,0.39 -0.05,0.01 -0.1,0.01 -0.17,0.02 -0.01,-0.23 -0.02,-0.46 -0.03,-0.68 0.05,-0.03 0.1,-0.01 0.15,-0.02 0.09,0.13 0.18,0.26 0.27,0.39 0.01,0 0.01,0 0.02,0 -0.01,-0.13 -0.02,-0.26 -0.03,-0.4 0.06,0 0.11,0 0.17,0 0.01,0.22 0.02,0.44 0.03,0.68 -0.05,0 -0.1,0 -0.15,0zm-0.66 -7.87c0.02,-0.11 0.03,-0.21 0.05,-0.32 -0.06,-0.07 -0.14,-0.14 -0.21,-0.21 0.1,-0.02 0.2,-0.03 0.3,-0.05 0.04,-0.09 0.09,-0.18 0.14,-0.28 0.05,0.1 0.09,0.19 0.14,0.28 0.1,0.02 0.2,0.03 0.29,0.05 -0.07,0.06 -0.14,0.13 -0.21,0.2 0.02,0.12 0.04,0.22 0.06,0.33 -0.1,-0.05 -0.19,-0.1 -0.28,-0.14 -0.09,0.04 -0.18,0.09 -0.28,0.14zm1.01 -0.32c-0.07,-0.07 -0.14,-0.14 -0.22,-0.21 0.1,-0.02 0.2,-0.03 0.3,-0.05 0.05,-0.09 0.09,-0.18 0.14,-0.28 0.05,0.1 0.1,0.19 0.14,0.28 0.1,0.02 0.2,0.03 0.3,0.05 -0.07,0.07 -0.14,0.14 -0.21,0.21 0.02,0.11 0.03,0.21 0.05,0.32 -0.09,-0.05 -0.18,-0.1 -0.28,-0.14 -0.08,0.04 -0.17,0.09 -0.27,0.14 0.01,-0.11 0.03,-0.21 0.05,-0.32zm-1.91 0.01c-0.08,-0.07 -0.15,-0.14 -0.23,-0.22 0.11,-0.02 0.21,-0.03 0.31,-0.05 0.05,-0.09 0.09,-0.18 0.14,-0.28 0.05,0.1 0.1,0.19 0.14,0.28 0.1,0.02 0.2,0.03 0.3,0.05 -0.07,0.07 -0.14,0.14 -0.21,0.2 0,0.12 0.04,0.21 0.04,0.33 -0.09,-0.05 -0.18,-0.1 -0.27,-0.14 -0.09,0.04 -0.18,0.09 -0.28,0.14 0.02,-0.11 0.04,-0.21 0.06,-0.31zm1.97 5.58c-0.02,-0.1 0,-0.17 0.06,-0.24 0.17,-0.21 0.33,-0.42 0.49,-0.64 0.07,0 0.14,0 0.23,0 -0.18,0.23 -0.35,0.46 -0.52,0.69 0.12,0 0.24,0 0.36,0 0,-0.07 0,-0.14 0,-0.22 0.07,0 0.13,0 0.2,0 0,0.08 0,0.15 0,0.23 0.07,0 0.13,0 0.2,0 0,0.06 0,0.11 0,0.18 -0.06,0 -0.13,0 -0.2,0 0,0.09 0,0.17 0,0.26 -0.07,0 -0.13,0 -0.2,0 0,-0.09 0,-0.17 0,-0.26 -0.21,0 -0.42,0 -0.62,0zm-0.46 0.08c0.14,0 0.31,0 0.48,0 0,0.06 0,0.12 0,0.18 -0.27,0 -0.55,0 -0.83,0 0,-0.05 0,-0.09 0,-0.14 0.15,-0.15 0.31,-0.29 0.46,-0.44 0.06,-0.06 0.1,-0.11 0.11,-0.2 0.02,-0.09 -0.02,-0.16 -0.11,-0.18 -0.14,-0.03 -0.26,0 -0.36,0.11 -0.05,-0.04 -0.1,-0.08 -0.15,-0.11 0.1,-0.13 0.23,-0.18 0.37,-0.19 0.08,-0.01 0.16,0 0.23,0.02 0.21,0.06 0.3,0.26 0.21,0.46 -0.03,0.07 -0.08,0.12 -0.13,0.18 -0.1,0.1 -0.2,0.21 -0.28,0.31zm-1.32 0.18c-0.28,0 -0.56,0 -0.83,0 0,-0.05 0,-0.09 0,-0.14 0.14,-0.14 0.28,-0.27 0.42,-0.41 0.05,-0.05 0.1,-0.09 0.13,-0.15 0.07,-0.13 0,-0.25 -0.15,-0.27 -0.12,-0.01 -0.2,0.02 -0.31,0.11 -0.04,-0.03 -0.09,-0.07 -0.14,-0.1 0.04,-0.07 0.11,-0.11 0.18,-0.14 0.13,-0.06 0.26,-0.07 0.4,-0.04 0.23,0.06 0.32,0.28 0.22,0.49 -0.03,0.05 -0.07,0.1 -0.12,0.15 -0.1,0.11 -0.19,0.22 -0.28,0.32 0.13,0 0.3,0 0.48,0 0,0.06 0,0.12 0,0.18zm0.22 -0.57c0,0.1 0.01,0.19 0.06,0.28 0.04,0.08 0.11,0.12 0.2,0.12 0.09,0 0.16,-0.04 0.2,-0.12 0.09,-0.19 0.09,-0.37 0,-0.56 -0.04,-0.08 -0.11,-0.12 -0.2,-0.12 -0.09,0 -0.16,0.04 -0.2,0.12 -0.05,0.09 -0.06,0.18 -0.06,0.28zm0.74 0c-0.01,0.1 -0.02,0.21 -0.06,0.31 -0.09,0.18 -0.23,0.28 -0.43,0.27 -0.2,0 -0.34,-0.11 -0.41,-0.29 -0.08,-0.19 -0.08,-0.39 0,-0.59 0.07,-0.18 0.23,-0.29 0.43,-0.28 0.19,0 0.34,0.11 0.42,0.29 0.03,0.1 0.04,0.19 0.05,0.29zm0.33 -2.97c0,-0.49 0,-0.97 0,-1.46 0.09,0 0.17,0 0.27,0 0,0.41 0,0.82 0,1.23 0.26,0 0.51,0 0.76,0 0,0.08 0,0.16 0,0.23 -0.34,0 -0.68,0 -1.03,0zm-0.05 0.67c-0.1,0.23 -0.19,0.43 -0.28,0.64 0.19,0 0.37,0 0.55,0 -0.09,-0.21 -0.18,-0.41 -0.27,-0.64zm0.51 1.2c-0.05,-0.11 -0.1,-0.22 -0.15,-0.34 -0.24,0 -0.48,0 -0.73,0 -0.05,0.11 -0.1,0.22 -0.15,0.34 -0.09,0 -0.18,0 -0.28,0 0.22,-0.49 0.44,-0.98 0.66,-1.47 0.09,0 0.18,0 0.27,0 0.22,0.49 0.44,0.98 0.66,1.47 -0.1,0 -0.19,0 -0.28,0zm-4.05 -1.2c-0.09,0.23 -0.18,0.43 -0.27,0.64 0.19,0 0.37,0 0.55,0 -0.09,-0.21 -0.18,-0.41 -0.28,-0.64zm-0.13 -0.27c0.09,0 0.18,0 0.27,0 0.22,0.49 0.44,0.98 0.66,1.47 -0.1,0 -0.19,0 -0.28,0 -0.05,-0.11 -0.1,-0.22 -0.15,-0.34 -0.24,0 -0.49,0 -0.73,0 -0.05,0.11 -0.1,0.23 -0.15,0.34 -0.09,0 -0.18,0 -0.28,0 0.22,-0.49 0.44,-0.98 0.66,-1.47zm1.89 -1.65c-0.05,0.05 -0.1,0.11 -0.16,0.17 -0.13,-0.13 -0.29,-0.19 -0.47,-0.17 -0.14,0.02 -0.25,0.07 -0.34,0.17 -0.17,0.18 -0.17,0.5 -0.01,0.69 0.16,0.2 0.48,0.24 0.71,0.1 0,-0.14 0,-0.3 0,-0.45 0.09,0 0.17,0 0.26,0 0,0.19 0,0.39 0,0.59 -0.11,0.09 -0.24,0.14 -0.38,0.16 -0.29,0.06 -0.57,0.01 -0.79,-0.22 -0.21,-0.22 -0.25,-0.5 -0.15,-0.78 0.1,-0.28 0.31,-0.44 0.6,-0.49 0.24,-0.04 0.47,0 0.67,0.16 0.02,0.02 0.05,0.04 0.06,0.07zm2.89 2.47c0.15,-0.01 0.3,0.01 0.45,-0.02 0.14,-0.03 0.23,-0.13 0.23,-0.27 0,-0.15 -0.08,-0.25 -0.23,-0.28 -0.14,-0.03 -0.3,-0.01 -0.45,-0.02 0,0.2 0,0.39 0,0.59zm0 0.65c-0.09,0 -0.18,0 -0.27,0 0,-0.49 0,-0.98 0,-1.47 0.28,0.02 0.55,-0.03 0.82,0.03 0.38,0.09 0.54,0.53 0.29,0.82 -0.05,0.06 -0.12,0.1 -0.2,0.14 0.12,0.16 0.23,0.32 0.34,0.48 -0.1,0 -0.2,0 -0.29,0 -0.1,-0.14 -0.2,-0.28 -0.3,-0.43 -0.13,0 -0.26,0 -0.39,0 0,0.15 0,0.29 0,0.43zm-1.48 -2.6c0,-0.3 -0.22,-0.52 -0.52,-0.52 -0.29,0 -0.52,0.22 -0.52,0.52 0,0.3 0.23,0.53 0.52,0.52 0.3,0 0.52,-0.22 0.52,-0.52zm-0.52 0.77c-0.39,-0.01 -0.69,-0.24 -0.77,-0.6 -0.1,-0.44 0.19,-0.86 0.63,-0.92 0.31,-0.04 0.58,0.04 0.78,0.29 0.32,0.41 0.15,1.11 -0.5,1.21 -0.05,0.01 -0.09,0.01 -0.14,0.02zm2.32 -0.27c0.15,0 0.3,0.01 0.45,0 0.24,-0.02 0.42,-0.2 0.44,-0.44 0.02,-0.27 -0.11,-0.47 -0.35,-0.54 -0.18,-0.05 -0.36,-0.01 -0.54,-0.02 0,0.34 0,0.67 0,1zm-0.27 -1.24c0.27,0.01 0.53,-0.02 0.8,0.02 0.29,0.04 0.51,0.19 0.6,0.48 0.09,0.29 0.04,0.55 -0.18,0.77 -0.13,0.13 -0.3,0.19 -0.48,0.2 -0.25,0.01 -0.49,0 -0.74,0 0,-0.49 0,-0.98 0,-1.47zm1.34 2.1c0,0.34 0,0.67 0,1.01 0.15,0 0.3,0 0.45,-0.01 0.26,-0.02 0.43,-0.2 0.44,-0.48 0.02,-0.25 -0.14,-0.45 -0.39,-0.5 -0.16,-0.03 -0.33,-0.01 -0.5,-0.02zm-0.27 -0.23c0.29,0.02 0.58,-0.03 0.87,0.03 0.35,0.07 0.57,0.34 0.57,0.7 0,0.36 -0.22,0.64 -0.57,0.72 -0.07,0.01 -0.14,0.02 -0.21,0.02 -0.22,0 -0.44,0 -0.66,0 0,-0.49 0,-0.97 0,-1.47zm-3.49 1.12c0.13,-0.38 0.25,-0.75 0.38,-1.12 0.08,0 0.16,0 0.26,0 -0.17,0.49 -0.33,0.98 -0.49,1.47 -0.1,0 -0.19,0 -0.29,0 -0.12,-0.35 -0.24,-0.71 -0.36,-1.06 0,0 -0.01,0 -0.01,0 -0.12,0.35 -0.24,0.7 -0.36,1.06 -0.1,0 -0.2,0 -0.3,0 -0.16,-0.49 -0.32,-0.97 -0.48,-1.47 0.1,0 0.19,0 0.28,0 0.12,0.37 0.24,0.73 0.37,1.12 0.13,-0.39 0.25,-0.75 0.38,-1.12 0.08,0 0.16,0 0.25,0 0.12,0.37 0.24,0.74 0.37,1.12zm-4.8 -0.1c-0.27,-1.58 0.01,-3.05 0.9,-4.37 0.9,-1.32 2.14,-2.15 3.7,-2.47 1.56,-0.32 3.02,-0.03 4.38,0.81 0.28,-0.41 0.67,-0.6 1.17,-0.56 0.33,0.03 0.61,0.2 0.86,0.43 -0.18,0.23 -0.4,0.4 -0.67,0.49 -0.27,0.1 -0.54,0.1 -0.82,0.03 0.13,0.11 0.25,0.22 0.37,0.34 0.12,0.11 0.23,0.23 0.34,0.35 0.73,-0.51 1.48,-0.04 1.71,0.52 -0.41,0.24 -0.82,0.28 -1.25,0.06 -0.02,0.02 0,0.03 0.01,0.05 0.34,0.51 0.59,1.05 0.75,1.64 0.01,0.04 0.03,0.07 0.07,0.09 0.47,0.35 0.6,0.98 0.3,1.48 -0.04,0.09 -0.09,0.17 -0.15,0.24 -0.12,2.76 -2.05,4.84 -4.35,5.45 -0.87,0.23 -1.75,0.26 -2.63,0.1 -0.89,-0.17 -1.7,-0.52 -2.42,-1.06 -0.72,-0.54 -1.29,-1.21 -1.71,-2.01 -0.29,0.11 -0.56,0.07 -0.8,-0.13 -0.14,-0.12 -0.23,-0.29 -0.27,-0.49 0.29,-0.1 0.55,-0.09 0.82,0.09 -0.05,-0.13 -0.09,-0.25 -0.13,-0.37 -0.48,0.1 -0.89,-0.04 -1.19,-0.43 -0.16,-0.19 -0.28,-0.6 -0.24,-0.76 0.49,-0.06 0.92,0.07 1.25,0.48z"/>
 </g>
</svg>
