<?xml version="1.0" encoding="UTF-8"?>
<!DOCTYPE svg PUBLIC "-//W3C//DTD SVG 1.1//EN" "http://www.w3.org/Graphics/SVG/1.1/DTD/svg11.dtd">
<!-- Creator: CorelDRAW 2019 (64-Bit) -->
<svg xmlns="http://www.w3.org/2000/svg" xml:space="preserve" width="3178px" height="3178px" version="1.1" style="shape-rendering:geometricPrecision; text-rendering:geometricPrecision; image-rendering:optimizeQuality; fill-rule:evenodd; clip-rule:evenodd"
viewBox="0 0 10665.25 10665.24"
 xmlns:xlink="http://www.w3.org/1999/xlink"
 xmlns:xodm="http://www.corel.com/coreldraw/odm/2003">
 <defs>
  <style type="text/css">
   <![CDATA[
    .fil0 {fill:#FEFEFE;fill-opacity:0.768627}
    .fil1 {fill:#75591D;fill-opacity:0.768627}
    .fil2 {fill:url(#id0)}
   ]]>
  </style>
  <linearGradient id="id0" gradientUnits="userSpaceOnUse" x1="7033.16" y1="1334.36" x2="3022.38" y2="9476.45">
   <stop offset="0" style="stop-opacity:1; stop-color:#805711"/>
   <stop offset="0.121569" style="stop-opacity:1; stop-color:#947025"/>
   <stop offset="0.278431" style="stop-opacity:1; stop-color:#CCB260"/>
   <stop offset="0.4" style="stop-opacity:1; stop-color:#C6A864"/>
   <stop offset="0.501961" style="stop-opacity:1; stop-color:#FEF3B3"/>
   <stop offset="0.690196" style="stop-opacity:1; stop-color:#CCB260"/>
   <stop offset="0.788235" style="stop-opacity:1; stop-color:#9E8241"/>
   <stop offset="0.870588" style="stop-opacity:1; stop-color:#A37B26"/>
   <stop offset="0.909804" style="stop-opacity:1; stop-color:#C09838"/>
   <stop offset="1" style="stop-opacity:1; stop-color:#866400"/>
  </linearGradient>
 </defs>
 <g id="Livello_x0020_1">
  <metadata id="CorelCorpID_0Corel-Layer"/>
  <path class="fil0" d="M5332.62 0c2945.13,0 5332.63,2387.5 5332.63,5332.62 0,2945.13 -2387.5,5332.62 -5332.63,5332.62 -2945.12,0 -5332.62,-2387.49 -5332.62,-5332.62 0,-2945.12 2387.5,-5332.62 5332.62,-5332.62z"/>
  <path class="fil1" d="M8862.02 1896.24c-1867.6,1708.1 -3648.04,5276.21 -3971.71,7764.46 -30.59,235.33 -201.54,420.51 -447.11,420.51 -257.07,0 -444.52,-168.06 -469.94,-423.01 -265.47,-2196.61 -969.42,-5787.12 -2357.11,-7558.94 -784.37,899.39 -1212.13,2042.08 -1211.36,3236.53 1.77,2719.73 2209.39,4922.98 4931.02,4921.22 2721.62,-1.76 4926.39,-2207.84 4924.64,-4927.59 -0.85,-1287.7 -499.97,-2512.05 -1398.43,-3433.18zm-5789.47 6873.27c158.32,0 286.15,128.7 286.15,286.73 0,158 -127.83,286.72 -286.15,286.72 -158.33,0 -286.14,-128.72 -286.14,-286.72 0,-158.03 127.81,-286.73 286.14,-286.73zm-948.2 -712.99c158.34,0 286.15,128.72 286.15,286.73 0,158.02 -127.81,286.73 -286.15,286.73 -158.32,0 -286.15,-128.71 -286.15,-286.73 0,-158.01 127.83,-286.73 286.15,-286.73zm-651.04 -1024.85c158.31,0 286.12,128.72 286.12,286.73 0,158.02 -127.81,286.72 -286.12,286.72 -158.34,0 -286.15,-128.7 -286.15,-286.72 0,-158.01 127.81,-286.73 286.15,-286.73zm-418.12 -1027.56c158.31,0 286.14,128.73 286.14,286.73 0,158.02 -127.83,286.75 -286.14,286.75 -158.34,0 -286.15,-128.73 -286.15,-286.75 0,-158 127.81,-286.73 286.15,-286.73zm-122.52 -1033.59c158.34,0 286.14,128.72 286.14,286.72 0,158.01 -127.8,286.73 -286.14,286.73 -158.32,0 -286.12,-128.72 -286.12,-286.73 0,-158 127.8,-286.72 286.12,-286.72zm125.12 -1061.98c158.32,0 286.15,128.72 286.15,286.73 0,158.02 -127.83,286.72 -286.15,286.72 -158.34,0 -286.14,-128.7 -286.14,-286.72 0,-158.01 127.8,-286.73 286.14,-286.73zm541.33 -1133.63c158.33,0 286.15,128.72 286.15,286.75 0,158 -127.82,286.73 -286.15,286.73 -158.31,0 -286.15,-128.73 -286.15,-286.73 0,-158.03 127.84,-286.75 286.15,-286.75zm3448.8 6650.16c6.74,-132.75 18.34,-268.93 43.81,-399.51 17.11,-87.68 42.77,-185.98 87.37,-264.03 70.17,-122.75 164.77,-226.17 291.53,-291.43 130.34,-67.07 278.9,-85.04 423.75,-77.71 248.58,12.59 474.59,95.97 617.74,307.88 156.34,231.41 175.16,561.73 161.46,831.87l-19.53 384.38 -90.16 89.42 -14.33 1.27c-299.28,26.48 -625.22,31.11 -923.96,10.91 -165.42,-11.18 -337.91,-31.17 -498.39,-73.65l-13.08 -3.46 -86.68 -112.23 20.47 -403.71zm3949.85 -4983.72l-216.77 -91.56 79.36 -38.33c14.64,-7.06 28.55,-15.43 41.71,-25.01 12.88,-9.37 24.67,-20.01 35.63,-31.61 51.43,-54.56 85.68,-119.44 72.41,-195.75 -15.55,-89.58 -91.8,-175.66 -155.66,-235.76 -46.04,-43.33 -92.75,-85.97 -139.68,-128.33 -32.78,-29.57 -66.07,-59.09 -98.2,-89.33 -137.91,-129.85 -265.41,-294.56 -294.73,-486.81 -26.86,-176.2 37,-329.35 157.63,-457.37 35.19,-37.34 74.34,-70.65 117.38,-98.62 43.72,-28.4 90.93,-51.16 139.68,-69.53l14.43 -5.43 196.29 77.92 -58.8 42.56c-17.87,12.93 -35.3,26.47 -52.25,40.58 -14.59,12.17 -28.46,25.14 -41.5,38.94 -52.26,55.43 -79.98,119.19 -58.11,194.49 28.99,99.82 140.51,214.45 214.18,283.77 19.99,18.82 40.56,37.25 60.85,55.74 32.08,29.26 64.01,58.7 95.64,88.46 73.27,68.98 152.62,148.9 208.85,232.71 41.58,62.01 72.85,130.52 85.62,204.42 16.18,93.7 10.93,187.15 -17.87,277.75 -29.78,93.66 -83.12,175.49 -150.21,246.68 -33.26,35.28 -69.14,68.91 -108.09,97.83 -34.88,25.88 -72.26,47.85 -112.22,64.93l-15.57 6.66zm-1498.51 -220.85l338.64 254.27c0.34,-38.81 0.29,-77.63 -0.04,-116.44 -0.62,-71.59 -2.89,-143.2 -5.89,-214.75l-1.71 -40.54 40.57 -0.95c66.67,-1.61 133.3,-5.19 199.75,-10.83 64.67,-5.5 129.2,-13.02 193.36,-22.93l45.95 -7.08 -0.02 46.5c-0.04,69.8 1.23,139.57 3.71,209.33 2.21,62.3 6.58,124.56 13.3,186.55l4.35 40.17 -40.23 3.81c-64.05,6.04 -127.91,14.07 -191.56,23.38 -34.9,5.1 -69.72,10.72 -104.47,16.78l422.18 293.1c6.79,-9.08 13.64,-18.11 20.47,-27.15 14.09,-18.59 28.23,-37.25 41.87,-56.18 37.44,-52.04 73.96,-104.74 109.36,-158.19 40.65,-61.32 80.4,-123.25 119.38,-185.63l13.78 -22.09 303.76 44.41 -43.06 54.22c-52.72,66.34 -104.59,133.33 -155.56,201.02 -59.68,79.28 -118.13,159.51 -176.14,240 -50.16,69.59 -99.81,139.56 -148.61,210.08 -42.5,61.41 -84.38,123.25 -125.44,185.64l-9 13.62 -129.58 27.73 -14.71 -11.66c-97.31,-77.12 -195.53,-153.06 -294.42,-228.13 -90.55,-68.73 -181.88,-136.45 -274.15,-202.84 -91.16,-65.61 -183.24,-129.93 -276.09,-193.12 -98.34,-66.93 -197.33,-132.94 -297.2,-197.59l-15.14 -9.81 -20.88 -141.57 10.59 -13.47c52.1,-66.32 103.6,-133.1 154.55,-200.3 45.31,-59.78 90.1,-119.96 133.95,-180.82 44.9,-62.3 88.86,-125.27 132.25,-188.61 47.72,-69.65 94.89,-139.72 141.3,-210.25l36.57 -55.53 137.95 253.8 -16.62 20.68c-32.71,40.71 -65.01,81.77 -96.68,123.31 -35.4,46.4 -70.07,93.31 -104.17,140.66 -20.47,28.4 -41.19,56.76 -61.18,85.5 -5.06,7.26 -10.06,14.57 -15.04,21.9zm-646.17 1139.71c86.77,55.53 174.71,109.28 263.68,161.19 103.45,60.32 207.9,118.9 313.47,175.39 93.97,50.29 188.69,99.18 284.18,146.51 99.02,49.05 198.67,96.76 299.06,142.95l41.19 18.94 -24.07 38.42c-17.58,28.05 -34.8,56.31 -51.39,84.92 -16.72,28.82 -32.8,57.99 -48.52,87.35 -15.85,29.61 -31.38,59.34 -46.23,89.45 -14.82,30.07 -28.98,60.43 -42.81,90.96l-7.04 15.57 -125.24 43.6 -16.12 -9.93c-89.64,-55.24 -180.16,-109.02 -271.45,-161.48 -82.47,-47.39 -165.58,-93.72 -249.45,-138.57 -102.57,-54.87 -206.23,-107.68 -310.82,-158.61 -91.08,-44.35 -183.06,-86.89 -275.86,-127.54l-145.64 271.82 -289.58 -24.42 31.74 -54.5c58.74,-100.82 116.65,-202.14 173.56,-304.01 49.47,-88.51 98.49,-177.31 146.38,-266.69 47.62,-88.9 94.16,-178.39 139.86,-268.31 50.31,-99.01 100.41,-198.12 150.3,-297.32l28.38 -56.43 177.87 229.3 -145.45 271.44zm-463.22 2076.86c101.18,140.34 205.46,278.46 312.32,414.51 124.75,158.82 252.52,315.26 383.28,469.18l40 47.08 -314.52 90.18 -16.51 -21.66c-131.68,-172.86 -264.24,-345.15 -398.88,-515.71 -107.76,-136.49 -216.5,-272.24 -327.13,-406.4l-259.57 73.82 -10.04 -39.83c-18.42,-73.18 -38.54,-145.91 -59.93,-218.25 -21.15,-71.54 -43.33,-142.76 -66.17,-213.76l-13.66 -42.44 43.71 -8.82c268.86,-54.31 536.89,-112.74 803.83,-175.85 266.37,-62.97 531.8,-129.92 796.16,-200.82l39.69 -10.64 9.43 40c16.76,71.13 36.46,141.62 58.01,211.46 24.53,79.48 51.77,158.15 81.17,235.96l16.85 44.56 -46.84 8.72c-190.17,35.38 -380.01,72.53 -569.47,111.55 -167.5,34.48 -334.75,70.2 -501.73,107.16zm234.3 71.44c66.92,-25.43 133.18,-52.6 198.73,-81.38 67.49,-29.63 134.27,-60.84 200.32,-93.55l39.87 -19.76 15.26 41.79c20.85,57.11 42.8,113.83 65.6,170.18 26.11,64.49 53.97,128.31 82.43,191.78l15.18 33.83 -32.65 17.58c-62.57,33.69 -124.89,68.02 -186.28,103.88 -51.62,30.15 -102.53,61.51 -152.67,94.08l-37.79 24.55 -19.74 -40.52c-32.26,-66.26 -66.07,-131.77 -101.3,-196.51 -34.55,-63.44 -70.28,-126.24 -107.12,-188.38l-24.15 -40.77 44.31 -16.8zm-1326.26 1873.23c79.52,6.91 159.11,13.03 238.72,18.76 106.92,7.68 213.93,14.26 321,19.67 106.69,5.42 213.45,9.71 320.23,12.89 80.08,2.38 160.17,4.33 240.29,5.56 -11.7,-113.94 -50.28,-220.26 -135.84,-302.03 -112.22,-107.28 -274.74,-142.47 -425,-150.07 -141.17,-7.16 -298.91,10.39 -411.31,104.3 -88.66,74.07 -130.39,180.22 -148.09,290.92z"/>
  <path class="fil1" d="M4172.13 6372.82c478.16,-2233.98 1240.08,-3933.16 2880.59,-5606.38l36.15 -36.9 48.08 18.93c559.77,220.55 1074.93,543.16 1518.83,949.2l62.03 56.74 -61.26 57.58c-1861.17,1749.12 -3638.64,5298.16 -3967.1,7823.74 -17.47,134.31 -103.86,244.31 -246.25,244.31 -156.02,0 -253.68,-92.49 -268.94,-245.04 -273.22,-2260.51 -976.27,-5809.34 -2379.93,-7632.19l-41.16 -53.46 47.01 -48.41c256.58,-264.09 542.39,-499.2 851.05,-699.99l77.08 -50.12 36.84 84.22c232.84,532.06 423.99,1085.84 591.01,1641.81 213.72,711.53 389.42,1435.41 546.01,2161.52 95.76,444.04 182.53,889.14 269.96,1334.44zm2936.25 -5551.82c555.84,218.99 1061.39,537.76 1494.78,934.18 -1942.05,1825.17 -3673.23,5427.28 -3991,7870.49 -15.45,119.15 -86.33,176.41 -168.96,176.41 -116.25,0 -180.17,-62.63 -191.56,-176.41 -252.42,-2088.68 -943.73,-5785.01 -2395.55,-7670.4 252.14,-259.51 533.08,-490.86 837.66,-688.96 804.79,1838.99 1234.61,4283.51 1477.03,5502.35 522.75,-2677.28 1364.95,-4343.61 2937.6,-5947.66z"/>
  <path class="fil1" d="M6878.25 655.47c-499.85,-164.81 -1022.17,-247.64 -1548.79,-247.3 -852.4,0.53 -1684.33,218.36 -2425.32,638.52 259.49,573.46 468.74,1174.71 649.42,1777.03 257.34,858.04 459.3,1733.11 639.71,2610.47 516.49,-1906.21 1302.23,-3357.8 2684.98,-4778.72z"/>
  <path class="fil1" d="M5332.62 0c2945.13,0 5332.63,2387.5 5332.63,5332.62 0,2945.13 -2387.5,5332.62 -5332.63,5332.62 -2945.12,0 -5332.62,-2387.49 -5332.62,-5332.62 0,-2945.12 2387.5,-5332.62 5332.62,-5332.62zm0 126.32c2875.37,0 5206.31,2330.94 5206.31,5206.3 0,2875.36 -2330.94,5206.31 -5206.31,5206.31 -2875.36,0 -5206.3,-2330.95 -5206.3,-5206.31 0,-2875.36 2330.94,-5206.3 5206.3,-5206.3z"/>
  <path class="fil0" d="M5047.92 9425.07c6.74,-132.75 18.34,-268.93 43.81,-399.51 17.11,-87.68 42.77,-185.98 87.37,-264.03 70.17,-122.75 164.77,-226.17 291.53,-291.43 130.34,-67.07 278.9,-85.04 423.75,-77.71 248.58,12.59 474.59,95.97 617.74,307.88 156.34,231.41 175.16,561.73 161.46,831.87l-19.53 384.38 -90.16 89.42 -14.33 1.27c-299.28,26.48 -625.22,31.11 -923.96,10.91 -165.42,-11.18 -337.91,-31.17 -498.39,-73.65l-13.08 -3.46 -86.68 -112.23 20.47 -403.71zm39.81 2.02c7.89,-154.69 22.11,-286 43.12,-393.88 21.01,-107.47 48.73,-191.57 82.86,-251.9 73.06,-127.18 164.79,-218.97 275.17,-275.77 110.4,-56.83 244.89,-81.4 403.48,-73.34 269.94,13.66 465.3,110.63 586.74,290.37 121.48,179.83 172.89,449.09 154.67,807.55l-18.74 368.97 -68.98 68.41c0,0 -878.35,78.81 -1408.64,-61.55l-69.42 -89.88 19.74 -388.98zm165.16 -9.33c93.52,8.45 187.18,15.76 280.88,22.49 107.22,7.7 214.5,14.3 321.83,19.74 106.99,5.43 214,9.7 321.07,12.91 94.78,2.79 189.59,5.04 284.42,6.18 -6.52,-139.43 -47.11,-271.76 -151.24,-371.31 -119.64,-114.36 -289.99,-152.94 -450.52,-161.06 -151.94,-7.71 -318.1,12.62 -438.88,113.52 -107.88,90.12 -152.73,222.22 -167.56,357.53zm3744.8 -5019.72l-120.01 -50.68c17.12,-8.27 32.92,-17.83 47.83,-28.68 14.93,-10.87 28.47,-23.05 41.17,-36.5 68.96,-73.13 96.6,-149.88 82.71,-229.92 -13.91,-80.02 -69.7,-165.75 -167.63,-257.95 -40.2,-37.82 -86.95,-80.8 -140.3,-128.9 -53.01,-47.87 -85.77,-77.62 -97.57,-88.76 -164.83,-155.17 -259.06,-309.76 -282.65,-463.79 -23.34,-153.79 25.65,-295.01 147.24,-424.03 33.94,-36 70.75,-66.76 110.09,-92.54 39.6,-25.51 83.6,-47.41 132.01,-65.65l114.51 45.46c-19.66,14.22 -37.69,28.38 -54.39,42.25 -16.95,14.15 -31.76,28.23 -44.98,42.22 -68.71,72.88 -91.23,150.8 -67.4,232.95 23.86,82.12 98.82,182.78 225.13,301.68 6.06,5.68 26.38,24.34 61.32,56.17 34.9,31.82 66.55,61.08 95.16,88.02 93.29,87.79 160.82,163.27 203.07,225.89 41.75,62.63 67.96,125.72 79.45,189 15.04,90.39 9.6,176.62 -16.57,258.89 -26.15,82.34 -73.34,159.36 -141.24,231.43 -34.98,37.1 -69.36,68.09 -102.84,93.15 -34.03,25.04 -68.45,45.05 -104.11,60.29zm-1345.96 -745.96l93.53 172.08c-31.52,39.24 -64.09,80.5 -97.3,124.11 -33.05,43.25 -68.15,90.64 -104.82,141.53 -27.59,38.31 -48.35,67.13 -61.56,86.04 -13.34,19.24 -25.36,37.17 -36.45,53.85l431.38 323.91c1.46,-62.73 1.89,-128.08 1.21,-195.61 -0.48,-67.86 -2.73,-139.71 -5.94,-216.07 68.26,-1.63 135.95,-5.08 202.17,-10.96 66.28,-5.37 131.62,-13.28 196.06,-23.23 -0.04,74.44 1.38,144.86 3.73,210.76 2.33,65.93 7,129.31 13.52,189.43 -63.47,6 -128,14.05 -193.59,23.63 -65.61,9.6 -132.23,21.24 -199.98,34.44l532.56 369.71c9.52,-13.18 23.95,-32.61 43.14,-57.91 19.14,-25.32 33.38,-44.39 42.44,-56.97 36.19,-50.28 73.09,-103.36 110.26,-159.46 37.16,-56.12 77.19,-118.1 119.93,-186.53l209.48 30.63c-50.12,63.09 -102.3,130.31 -156.19,201.85 -54.1,71.88 -112.8,152.06 -176.64,240.68 -54.6,75.73 -104.11,145.78 -149.05,210.7 -44.96,64.94 -87.06,127.31 -125.95,186.38l-95.25 20.39c-102.3,-81.11 -201.12,-157.32 -295.08,-228.65 -93.95,-71.3 -185.73,-139.23 -274.96,-203.44 -89.31,-64.26 -181.61,-128.81 -276.94,-193.72 -95.04,-64.65 -194.4,-131.05 -297.97,-198.1l-15.74 -106.78c56.28,-71.65 107.71,-138.49 154.96,-200.83 47.49,-62.66 92.39,-123 134.53,-181.6 43.34,-60.05 87.5,-123.27 132.79,-189.38 45.29,-66.09 92.64,-136.31 141.72,-210.88zm-823.83 1281.73l123.29 158.93 -150.61 281.07c95.85,62.01 194.42,122.93 296.12,182.01 101.84,59.66 206.77,118.35 314.73,176.12 93,49.76 188.07,98.91 285.29,147.07 97.27,48.2 197.24,96.11 300.1,143.45 -17.68,28.21 -35.23,56.97 -52.1,86.08 -16.72,28.79 -33.13,58.59 -49.16,88.53 -16.05,29.99 -31.82,60.14 -46.85,90.64 -14.89,30.2 -29.27,61.06 -43.35,92.12l-91.21 31.76c-95.09,-58.59 -185.92,-112.36 -272.5,-162.1 -86.23,-49.54 -169.83,-96.04 -250.5,-139.16 -104.99,-56.18 -209.04,-109.3 -312.17,-159.3 -103.31,-50.53 -207,-97.9 -311.09,-142.9l-150.61 281.11 -200.65 -16.93c63.95,-109.76 121.77,-211.25 173.91,-304.64 52.02,-93.02 101.01,-182.05 146.71,-267.32 45.65,-85.25 92.5,-175.08 140.27,-269.07 47.79,-93.99 97.9,-193.15 150.38,-297.47zm-505.57 2477.44c110.21,154.56 226.65,309.61 348.53,464.95 122.26,155.48 250.03,312.4 384.24,470.36l-228.95 65.65c-145.9,-191.52 -278.82,-363.77 -399.32,-516.25 -120.14,-152.34 -234.83,-294.86 -344.26,-427.16l-245.1 69.69c-18.49,-73.4 -38.65,-146.53 -60.36,-219.8 -21.45,-72.76 -43.8,-144.22 -66.45,-214.66 269.82,-54.5 538.31,-113.03 805.11,-176.12 266.8,-63.05 532.56,-130.1 797.32,-201.11 15.97,67.74 35.59,139.1 58.72,214.06 23.11,74.94 50.29,154.48 81.98,238.32 -192.38,35.79 -382.5,73.15 -570.23,111.69 -187.41,38.71 -374.39,78.69 -561.23,120.38zm315.98 134.51c67.03,-25.45 133.91,-52.95 200.6,-82.13 66.34,-29.23 133.75,-60.53 202.01,-94.34 19.82,54.28 41.87,111.27 66.09,171.45 24.32,59.76 51.95,123.92 83.02,193.15 -69.47,37.4 -132.02,71.96 -187.49,104.55 -55.85,32.43 -107.11,64.45 -154.28,95.08 -32.87,-67.53 -67.11,-133.48 -102.13,-198.11 -35.42,-64.76 -71.34,-128.1 -107.82,-189.65zm2359.46 -3104.41l-216.77 -91.56 79.36 -38.33c14.64,-7.06 28.55,-15.43 41.71,-25.01 12.88,-9.37 24.67,-20.01 35.63,-31.61 51.43,-54.56 85.68,-119.44 72.41,-195.75 -15.55,-89.58 -91.8,-175.66 -155.66,-235.76 -46.04,-43.33 -92.75,-85.97 -139.68,-128.33 -32.78,-29.57 -66.07,-59.09 -98.2,-89.33 -137.91,-129.85 -265.41,-294.56 -294.73,-486.81 -26.86,-176.2 37,-329.35 157.63,-457.37 35.19,-37.34 74.34,-70.65 117.38,-98.62 43.72,-28.4 90.93,-51.16 139.68,-69.53l14.43 -5.43 196.29 77.92 -58.8 42.56c-17.87,12.93 -35.3,26.47 -52.25,40.58 -14.59,12.17 -28.46,25.14 -41.5,38.94 -52.26,55.43 -79.98,119.19 -58.11,194.49 28.99,99.82 140.51,214.45 214.18,283.77 19.99,18.82 40.56,37.25 60.85,55.74 32.08,29.26 64.01,58.7 95.64,88.46 73.27,68.98 152.62,148.9 208.85,232.71 41.58,62.01 72.85,130.52 85.62,204.42 16.18,93.7 10.93,187.15 -17.87,277.75 -29.78,93.66 -83.12,175.49 -150.21,246.68 -33.26,35.28 -69.14,68.91 -108.09,97.83 -34.88,25.88 -72.26,47.85 -112.22,64.93l-15.57 6.66zm-1498.51 -220.85l338.64 254.27c0.34,-38.81 0.29,-77.63 -0.04,-116.44 -0.62,-71.59 -2.89,-143.2 -5.89,-214.75l-1.71 -40.54 40.57 -0.95c66.67,-1.61 133.3,-5.19 199.75,-10.83 64.67,-5.5 129.2,-13.02 193.36,-22.93l45.95 -7.08 -0.02 46.5c-0.04,69.8 1.23,139.57 3.71,209.33 2.21,62.3 6.58,124.56 13.3,186.55l4.35 40.17 -40.23 3.81c-64.05,6.04 -127.91,14.07 -191.56,23.38 -34.9,5.1 -69.72,10.72 -104.47,16.78l422.18 293.1c6.79,-9.08 13.64,-18.11 20.47,-27.15 14.09,-18.59 28.23,-37.25 41.87,-56.18 37.44,-52.04 73.96,-104.74 109.36,-158.19 40.65,-61.32 80.4,-123.25 119.38,-185.63l13.78 -22.09 303.76 44.41 -43.06 54.22c-52.72,66.34 -104.59,133.33 -155.56,201.02 -59.68,79.28 -118.13,159.51 -176.14,240 -50.16,69.59 -99.81,139.56 -148.61,210.08 -42.5,61.41 -84.38,123.25 -125.44,185.64l-9 13.62 -129.58 27.73 -14.71 -11.66c-97.31,-77.12 -195.53,-153.06 -294.42,-228.13 -90.55,-68.73 -181.88,-136.45 -274.15,-202.84 -91.16,-65.61 -183.24,-129.93 -276.09,-193.12 -98.34,-66.93 -197.33,-132.94 -297.2,-197.59l-15.14 -9.81 -20.88 -141.57 10.59 -13.47c52.1,-66.32 103.6,-133.1 154.55,-200.3 45.31,-59.78 90.1,-119.96 133.95,-180.82 44.9,-62.3 88.86,-125.27 132.25,-188.61 47.72,-69.65 94.89,-139.72 141.3,-210.25l36.57 -55.53 137.95 253.8 -16.62 20.68c-32.71,40.71 -65.01,81.77 -96.68,123.31 -35.4,46.4 -70.07,93.31 -104.17,140.66 -20.47,28.4 -41.19,56.76 -61.18,85.5 -5.06,7.26 -10.06,14.57 -15.04,21.9zm-646.17 1139.71c86.77,55.53 174.71,109.28 263.68,161.19 103.45,60.32 207.9,118.9 313.47,175.39 93.97,50.29 188.69,99.18 284.18,146.51 99.02,49.05 198.67,96.76 299.06,142.95l41.19 18.94 -24.07 38.42c-17.58,28.05 -34.8,56.31 -51.39,84.92 -16.72,28.82 -32.8,57.99 -48.52,87.35 -15.85,29.61 -31.38,59.34 -46.23,89.45 -14.82,30.07 -28.98,60.43 -42.81,90.96l-7.04 15.57 -125.24 43.6 -16.12 -9.93c-89.64,-55.24 -180.16,-109.02 -271.45,-161.48 -82.47,-47.39 -165.58,-93.72 -249.45,-138.57 -102.57,-54.87 -206.23,-107.68 -310.82,-158.61 -91.08,-44.35 -183.06,-86.89 -275.86,-127.54l-145.64 271.82 -289.58 -24.42 31.74 -54.5c58.74,-100.82 116.65,-202.14 173.56,-304.01 49.47,-88.51 98.49,-177.31 146.38,-266.69 47.62,-88.9 94.16,-178.39 139.86,-268.31 50.31,-99.01 100.41,-198.12 150.3,-297.32l28.38 -56.43 177.87 229.3 -145.45 271.44zm-463.22 2076.86c101.18,140.34 205.46,278.46 312.32,414.51 124.75,158.82 252.52,315.26 383.28,469.18l40 47.08 -314.52 90.18 -16.51 -21.66c-131.68,-172.86 -264.24,-345.15 -398.88,-515.71 -107.76,-136.49 -216.5,-272.24 -327.13,-406.4l-259.57 73.82 -10.04 -39.83c-18.42,-73.18 -38.54,-145.91 -59.93,-218.25 -21.15,-71.54 -43.33,-142.76 -66.17,-213.76l-13.66 -42.44 43.71 -8.82c268.86,-54.31 536.89,-112.74 803.83,-175.85 266.37,-62.97 531.8,-129.92 796.16,-200.82l39.69 -10.64 9.43 40c16.76,71.13 36.46,141.62 58.01,211.46 24.53,79.48 51.77,158.15 81.17,235.96l16.85 44.56 -46.84 8.72c-190.17,35.38 -380.01,72.53 -569.47,111.55 -167.5,34.48 -334.75,70.2 -501.73,107.16zm234.3 71.44c66.92,-25.43 133.18,-52.6 198.73,-81.38 67.49,-29.63 134.27,-60.84 200.32,-93.55l39.87 -19.76 15.26 41.79c20.85,57.11 42.8,113.83 65.6,170.18 26.11,64.49 53.97,128.31 82.43,191.78l15.18 33.83 -32.65 17.58c-62.57,33.69 -124.89,68.02 -186.28,103.88 -51.62,30.15 -102.53,61.51 -152.67,94.08l-37.79 24.55 -19.74 -40.52c-32.26,-66.26 -66.07,-131.77 -101.3,-196.51 -34.55,-63.44 -70.28,-126.24 -107.12,-188.38l-24.15 -40.77 44.31 -16.8zm-1326.26 1873.23c79.52,6.91 159.11,13.03 238.72,18.76 106.92,7.68 213.93,14.26 321,19.67 106.69,5.42 213.45,9.71 320.23,12.89 80.08,2.38 160.17,4.33 240.29,5.56 -11.7,-113.94 -50.28,-220.26 -135.84,-302.03 -112.22,-107.28 -274.74,-142.47 -425,-150.07 -141.17,-7.16 -298.91,10.39 -411.31,104.3 -88.66,74.07 -130.39,180.22 -148.09,290.92z"/>
  <path class="fil0" d="M3072.55 8769.51c158.32,0 286.15,128.7 286.15,286.73 0,158 -127.83,286.72 -286.15,286.72 -158.33,0 -286.14,-128.72 -286.14,-286.72 0,-158.03 127.81,-286.73 286.14,-286.73zm-0.02 39.29c136.91,0 247.85,111.24 247.85,248.46 0,137.22 -110.94,248.47 -247.85,248.47 -136.89,0 -247.81,-111.25 -247.81,-248.47 0,-137.22 110.92,-248.46 247.81,-248.46z"/>
  <path class="fil0" d="M2124.35 8056.52c158.34,0 286.15,128.72 286.15,286.73 0,158.02 -127.81,286.73 -286.15,286.73 -158.32,0 -286.15,-128.71 -286.15,-286.73 0,-158.01 127.83,-286.73 286.15,-286.73zm0.02 39.31c136.87,0 247.85,111.21 247.85,248.44 0,137.22 -110.98,248.45 -247.85,248.45 -136.89,0 -247.87,-111.23 -247.87,-248.45 0,-137.23 110.98,-248.44 247.87,-248.44z"/>
  <path class="fil0" d="M1473.31 7031.67c158.31,0 286.12,128.72 286.12,286.73 0,158.02 -127.81,286.72 -286.12,286.72 -158.34,0 -286.15,-128.7 -286.15,-286.72 0,-158.01 127.81,-286.73 286.15,-286.73zm-0.02 39.29c136.89,0 247.87,111.26 247.87,248.46 0,137.22 -110.98,248.47 -247.87,248.47 -136.87,0 -247.85,-111.25 -247.85,-248.47 0,-137.2 110.98,-248.46 247.85,-248.46z"/>
  <path class="fil0" d="M1055.19 6004.11c158.31,0 286.14,128.73 286.14,286.73 0,158.02 -127.83,286.75 -286.14,286.75 -158.34,0 -286.15,-128.73 -286.15,-286.75 0,-158 127.81,-286.73 286.15,-286.73zm0 39.27c136.87,0 247.85,111.26 247.85,248.48 0,137.22 -110.98,248.45 -247.85,248.45 -136.89,0 -247.85,-111.23 -247.85,-248.45 0,-137.22 110.96,-248.48 247.85,-248.48z"/>
  <path class="fil0" d="M932.67 4970.52c158.34,0 286.14,128.72 286.14,286.72 0,158.01 -127.8,286.73 -286.14,286.73 -158.32,0 -286.12,-128.72 -286.12,-286.73 0,-158 127.8,-286.72 286.12,-286.72zm0 39.29c136.87,0 247.85,111.25 247.85,248.45 0,137.23 -110.98,248.48 -247.85,248.48 -136.87,0 -247.85,-111.25 -247.85,-248.48 0,-137.2 110.98,-248.45 247.85,-248.45z"/>
  <path class="fil0" d="M1057.79 3908.54c158.32,0 286.15,128.72 286.15,286.73 0,158.02 -127.83,286.72 -286.15,286.72 -158.34,0 -286.14,-128.7 -286.14,-286.72 0,-158.01 127.8,-286.73 286.14,-286.73zm0 39.29c136.87,0 247.85,111.26 247.85,248.48 0,137.2 -110.98,248.45 -247.85,248.45 -136.89,0 -247.83,-111.25 -247.83,-248.45 0,-137.22 110.94,-248.48 247.83,-248.48z"/>
  <path class="fil0" d="M1599.12 2774.91c158.33,0 286.15,128.72 286.15,286.75 0,158 -127.82,286.73 -286.15,286.73 -158.31,0 -286.15,-128.73 -286.15,-286.73 0,-158.03 127.84,-286.75 286.15,-286.75zm0 39.29c136.89,0 247.85,111.26 247.85,248.46 0,137.24 -110.96,248.47 -247.85,248.47 -136.87,0 -247.83,-111.23 -247.83,-248.47 0,-137.2 110.96,-248.46 247.83,-248.46z"/>
  <path class="fil2" d="M3072.55 8808.8c136.89,0 247.83,111.24 247.83,248.44 0,137.23 -110.94,248.5 -247.83,248.5 -136.92,0 -247.84,-111.27 -247.84,-248.5 0,-137.2 110.92,-248.44 247.84,-248.44zm2015.17 618.29c7.9,-154.7 22.12,-286.02 43.15,-393.89 21,-107.46 48.71,-191.56 82.83,-251.9 73.06,-127.18 164.78,-218.94 275.16,-275.76 110.41,-56.82 244.92,-81.41 403.5,-73.34 269.93,13.66 465.3,110.64 586.76,290.37 121.47,179.81 172.87,449.08 154.63,807.55l-18.71 368.98 -69 68.39c0,0 -878.35,78.82 -1408.62,-61.53l-69.43 -89.88 19.73 -388.99zm2020.67 -8606.11c555.84,219.01 1061.38,537.76 1494.76,934.2 -1942.04,1825.16 -3673.23,5427.27 -3990.98,7870.5 -15.45,119.12 -86.35,176.4 -168.98,176.4 -116.24,0 -180.15,-62.64 -191.55,-176.4 -252.42,-2088.68 -943.74,-5785.02 -2395.55,-7670.43 252.14,-259.5 533.09,-490.84 837.66,-688.93 804.8,1838.98 1234.6,4283.5 1477.03,5502.32 522.75,-2677.26 1364.95,-4343.6 2937.61,-5947.66zm-1855.5 8596.78c93.52,8.45 187.18,15.76 280.87,22.48 107.22,7.7 214.51,14.32 321.84,19.76 107,5.43 214,9.7 321.08,12.89 94.78,2.8 189.59,5.04 284.4,6.2 -6.51,-139.43 -47.08,-271.75 -151.23,-371.32 -119.63,-114.35 -289.99,-152.93 -450.52,-161.07 -151.93,-7.71 -318.09,12.65 -438.87,113.53 -107.88,90.12 -152.74,222.21 -167.57,357.53zm3744.8 -5019.74l-120.02 -50.65c17.11,-8.27 32.93,-17.85 47.84,-28.69 14.94,-10.86 28.48,-23.04 41.17,-36.5 68.97,-73.14 96.6,-149.88 82.71,-229.92 -13.93,-80.02 -69.7,-165.75 -167.65,-257.97 -40.2,-37.8 -86.94,-80.79 -140.3,-128.89 -52.99,-47.85 -85.74,-77.61 -97.56,-88.76 -164.83,-155.18 -259.06,-309.74 -282.65,-463.77 -23.33,-153.8 25.65,-295.03 147.24,-424.03 33.94,-36.03 70.75,-66.76 110.09,-92.54 39.63,-25.53 83.61,-47.42 132,-65.65l114.53 45.47c-19.65,14.2 -37.7,28.36 -54.4,42.23 -16.95,14.16 -31.75,28.22 -44.98,42.23 -68.71,72.87 -91.22,150.81 -67.4,232.93 23.87,82.12 98.83,182.8 225.15,301.68 6.05,5.69 26.36,24.36 61.32,56.19 34.89,31.81 66.55,61.05 95.16,88.02 93.29,87.76 160.8,163.25 203.06,225.88 41.76,62.63 67.98,125.73 79.47,188.99 15.03,90.42 9.59,176.64 -16.6,258.91 -26.15,82.32 -73.32,159.35 -141.23,231.42 -34.98,37.1 -69.35,68.08 -102.84,93.17 -34.01,25.01 -68.44,45.03 -104.11,60.25zm-1345.96 -745.92l93.53 172.06c-31.51,39.25 -64.1,80.51 -97.29,124.12 -33.07,43.24 -68.15,90.62 -104.83,141.52 -27.58,38.31 -48.35,67.14 -61.55,86.04 -13.35,19.23 -25.35,37.17 -36.48,53.83l431.38 323.94c1.47,-62.75 1.9,-128.1 1.24,-195.6 -0.48,-67.86 -2.76,-139.75 -5.95,-216.09 68.26,-1.63 135.96,-5.09 202.16,-10.95 66.29,-5.39 131.64,-13.28 196.08,-23.25 -0.05,74.44 1.36,144.85 3.73,210.77 2.32,65.94 6.98,129.32 13.5,189.44 -63.46,5.97 -127.99,14.05 -193.58,23.63 -65.63,9.59 -132.23,21.22 -199.97,34.44l532.53 369.69c9.53,-13.18 23.95,-32.61 43.15,-57.89 19.14,-25.32 33.38,-44.4 42.45,-56.98 36.18,-50.29 73.09,-103.36 110.26,-159.47 37.15,-56.09 77.17,-118.09 119.94,-186.51l209.48 30.61c-50.14,63.11 -102.31,130.33 -156.2,201.87 -54.1,71.89 -112.79,152.03 -176.64,240.67 -54.6,75.73 -104.12,145.78 -149.05,210.7 -44.95,64.93 -87.06,127.3 -125.95,186.38l-95.24 20.4c-102.31,-81.11 -201.14,-157.33 -295.1,-228.66 -93.95,-71.3 -185.72,-139.25 -274.94,-203.44 -89.33,-64.27 -181.63,-128.82 -276.94,-193.71 -95.04,-64.66 -194.41,-131.07 -297.99,-198.11l-15.74 -106.78c56.29,-71.64 107.72,-138.48 154.97,-200.83 47.49,-62.65 92.39,-123 134.54,-181.6 43.32,-60.05 87.48,-123.26 132.78,-189.39 45.28,-66.07 92.63,-136.3 141.72,-210.85zm-823.84 1281.69l123.29 158.94 -150.59 281.09c95.83,61.98 194.4,122.91 296.12,182.01 101.83,59.63 206.77,118.34 314.72,176.1 93.01,49.78 188.07,98.92 285.31,147.07 97.24,48.21 197.21,96.13 300.09,143.45 -17.69,28.21 -35.24,56.98 -52.09,86.09 -16.73,28.8 -33.15,58.59 -49.17,88.52 -16.06,30 -31.82,60.15 -46.85,90.66 -14.9,30.19 -29.28,61.05 -43.37,92.13l-91.21 31.75c-95.08,-58.61 -185.91,-112.36 -272.49,-162.11 -86.23,-49.54 -169.84,-96.05 -250.51,-139.17 -104.99,-56.17 -209.03,-109.29 -312.16,-159.28 -103.3,-50.54 -206.99,-97.91 -311.09,-142.91l-150.62 281.11 -200.62 -16.93c63.93,-109.78 121.76,-211.24 173.88,-304.65 52.03,-93 101.03,-182.03 146.73,-267.29 45.65,-85.29 92.5,-175.1 140.26,-269.1 47.79,-93.99 97.89,-193.15 150.37,-297.48zm-505.56 2477.47c110.19,154.55 226.64,309.6 348.52,464.94 122.28,155.48 250.05,312.39 384.25,470.37l-228.94 65.64c-145.91,-191.52 -278.81,-363.76 -399.34,-516.25 -120.13,-152.36 -234.81,-294.87 -344.25,-427.17l-245.11 69.7c-18.48,-73.4 -38.63,-146.52 -60.36,-219.82 -21.44,-72.73 -43.78,-144.19 -66.45,-214.63 269.84,-54.5 538.3,-113.02 805.12,-176.14 266.78,-63.03 532.55,-130.1 797.31,-201.09 15.98,67.73 35.59,139.1 58.74,214.04 23.1,74.97 50.28,154.5 81.95,238.33 -192.36,35.78 -382.48,73.13 -570.21,111.69 -187.41,38.71 -374.4,78.68 -561.23,120.39zm315.99 134.51c67.03,-25.46 133.9,-52.96 200.58,-82.12 66.37,-29.26 133.77,-60.56 202,-94.37 19.84,54.29 41.89,111.3 66.1,171.45 24.32,59.77 51.97,123.92 83.02,193.17 -69.44,37.39 -132,71.97 -187.49,104.55 -55.83,32.43 -107.1,64.45 -154.27,95.08 -32.88,-67.54 -67.11,-133.47 -102.12,-198.11 -35.43,-64.76 -71.34,-128.12 -107.82,-189.65zm-5039.2 -4731.56c136.89,0 247.84,111.24 247.84,248.44 0,137.23 -110.95,248.49 -247.84,248.49 -136.87,0 -247.83,-111.26 -247.83,-248.49 0,-137.2 110.96,-248.44 247.83,-248.44zm-541.35 1133.61c136.87,0 247.87,111.27 247.87,248.5 0,137.19 -111,248.46 -247.87,248.46 -136.88,0 -247.8,-111.27 -247.8,-248.46 0,-137.23 110.92,-248.5 247.8,-248.5zm-125.09 1061.99c136.85,0 247.83,111.27 247.83,248.44 0,137.24 -110.98,248.49 -247.83,248.49 -136.87,0 -247.87,-111.25 -247.87,-248.49 0,-137.17 111,-248.44 247.87,-248.44zm122.52 1033.56c136.85,0 247.83,111.27 247.83,248.49 0,137.23 -110.98,248.43 -247.83,248.43 -136.89,0 -247.87,-111.2 -247.87,-248.43 0,-137.22 110.98,-248.49 247.87,-248.49zm418.1 1027.58c136.89,0 247.85,111.26 247.85,248.45 0,137.23 -110.96,248.5 -247.85,248.5 -136.87,0 -247.87,-111.27 -247.87,-248.5 0,-137.19 111,-248.45 247.87,-248.45zm651.05 1024.88c136.9,0 247.87,111.23 247.87,248.45 0,137.24 -110.97,248.44 -247.87,248.44 -136.89,0 -247.85,-111.2 -247.85,-248.44 0,-137.22 110.96,-248.45 247.85,-248.45z"/>
 </g>
</svg>
