<?xml version="1.0" encoding="UTF-8"?>
<!DOCTYPE svg PUBLIC "-//W3C//DTD SVG 1.1//EN" "http://www.w3.org/Graphics/SVG/1.1/DTD/svg11.dtd">
<!-- Creator: CorelDRAW 2019 (64-Bit) -->
<svg xmlns="http://www.w3.org/2000/svg" xml:space="preserve" width="591px" height="171px" version="1.1" style="shape-rendering:geometricPrecision; text-rendering:geometricPrecision; image-rendering:optimizeQuality; fill-rule:evenodd; clip-rule:evenodd"
viewBox="0 0 649.19 188.43"
 xmlns:xlink="http://www.w3.org/1999/xlink"
 xmlns:xodm="http://www.corel.com/coreldraw/odm/2003">
 <defs>
  <style type="text/css">
   <![CDATA[
    .str0 {stroke:#FEFEFE;stroke-width:0.99;stroke-linecap:round;stroke-linejoin:round;stroke-miterlimit:4}
    .fil3 {fill:#075D1B}
    .fil2 {fill:#FEFEFE}
    .fil1 {fill:#6E5617;fill-rule:nonzero}
    .fil0 {fill:#075D1B;fill-rule:nonzero}
    .fil4 {fill:#FEFEFE;fill-rule:nonzero}
   ]]>
  </style>
 </defs>
 <g id="Livello_x0020_1">
  <metadata id="CorelCorpID_0Corel-Layer"/>
  <path class="fil0" d="M596.06 171.14l-126.54 2.16 0 -4.32 126.54 2.16zm-549.41 0l-6.29 -8.37 -6.29 8.37 6.29 8.37 6.29 -8.37zm568.47 0l-6.28 -8.37 -6.29 8.37 6.29 8.37 6.28 -8.37zm-436.58 2.16l-126.54 -2.16 126.54 -2.16 0 4.32z"/>
  <g id="_2112900744512">
   <path class="fil1" d="M233.49 158.06l-4.41 4.84c-2.33,-1.37 -4.02,-2.05 -5.04,-2.05 -0.79,0 -1.48,0.3 -2.05,0.89 -0.58,0.59 -0.85,1.29 -0.85,2.1l0.01 0.27c-2.41,-1.12 -3.62,-2.41 -3.62,-3.87 0,-0.82 0.28,-1.52 0.86,-2.11 0.57,-0.58 1.25,-0.89 2.04,-0.89 1.03,0 2.71,0.69 5.05,2.05l3.55 -3.9c1.65,0.57 3.14,1.46 4.46,2.67zm-3.85 12c0.29,0.17 0.56,0.34 0.8,0.5 1.11,0.74 2.04,1.77 2.8,3.09 0.75,1.32 1.12,2.74 1.12,4.28 0,2.83 -1.14,5.28 -3.42,7.37 -2.28,2.09 -4.99,3.13 -8.1,3.13 -3.41,0 -6.78,-1.61 -10.12,-4.82l0.44 -0.5c2.01,1.14 4.03,1.72 6.08,1.72 3.11,0 5.81,-1.04 8.09,-3.14 2.28,-2.09 3.43,-4.54 3.43,-7.37 0,-1.53 -0.38,-2.95 -1.12,-4.26zm-6.33 4.07c-0.54,-0.26 -1.15,-0.51 -1.82,-0.75 -2.06,-0.77 -3.54,-1.49 -4.42,-2.14 -0.84,-0.64 -1.55,-1.55 -2.13,-2.73 0.79,0.4 1.77,0.82 2.95,1.26 3.49,1.28 5.3,2.74 5.42,4.36zm19.69 -19.62c0.94,0.08 1.75,0.47 2.44,1.16 0.78,0.79 1.18,1.72 1.18,2.81 0,1.11 -0.4,2.04 -1.18,2.83 -0.78,0.79 -1.72,1.18 -2.83,1.18 -1.1,0 -2.04,-0.39 -2.82,-1.18 -0.69,-0.69 -1.07,-1.5 -1.16,-2.44l0.38 0.02c1.1,0 2.04,-0.4 2.83,-1.19 0.77,-0.78 1.17,-1.72 1.17,-2.83l-0.01 -0.36zm-0.76 11.93l3.61 0 0 21.53 -6.41 0 0 -3.6 2.8 0 0 -17.93zm17.13 1.49l0 1.06c0.39,-0.36 0.78,-0.69 1.17,-0.98 0.64,0.17 1.2,0.56 1.7,1.17 0.52,0.67 0.84,1.45 0.96,2.34 -1.09,0.06 -1.99,0.59 -2.7,1.61 -0.75,1.08 -1.13,2.47 -1.13,4.17l0 10.67 -6.4 0 0 -3.6 2.8 0 0 -10.67c0,-1.71 0.37,-3.1 1.13,-4.18 0.66,-0.95 1.48,-1.48 2.47,-1.59zm9.36 -1.53c0.99,0.42 1.86,1.1 2.62,2.06 1.34,1.68 2.01,3.83 2.01,6.45l0 13.06 -6.5 0 0 -3.6 2.9 0 0 -13.07c0,-1.87 -0.34,-3.5 -1.03,-4.9zm26.57 14.13l0 6.42c-2.2,0.99 -4.03,1.48 -5.48,1.48 -3.25,0 -5.95,-1.06 -8.13,-3.2 -0.65,-0.64 -1.21,-1.33 -1.66,-2.07 1.78,1.11 3.84,1.67 6.18,1.67 1.45,0 3.28,-0.5 5.48,-1.49l0 -1.72c1.03,-0.19 2.23,-0.55 3.61,-1.09zm-3.56 -14.24c1.23,0.24 2.43,0.65 3.61,1.22l0 2.88c-0.25,0.94 -0.37,1.94 -0.38,3 -1.71,-0.77 -3.3,-1.16 -4.73,-1.16 -1.44,0 -2.59,0.44 -3.47,1.31 -0.88,0.88 -1.31,2.05 -1.31,3.47 0,0.37 0.03,0.73 0.09,1.07 -0.95,-0.17 -1.75,-0.58 -2.4,-1.23 -0.86,-0.87 -1.3,-2.03 -1.3,-3.45 0,-1.42 0.44,-2.59 1.32,-3.46 0.87,-0.88 2.02,-1.32 3.46,-1.32 1.54,0 3.25,0.45 5.11,1.34l0 -3.67zm28.68 12.45l-5.22 0 -4.84 -1.6c-0.41,0.65 -0.88,1.19 -1.41,1.6l-3.87 0c0.02,0.36 0.07,0.71 0.14,1.03 -0.88,-0.11 -1.68,-0.54 -2.38,-1.27 -0.82,-0.86 -1.28,-1.98 -1.36,-3.36l15.33 0 0 -1.03c0,-2.52 -0.59,-4.72 -1.77,-6.61 0.81,0.5 1.57,1.12 2.27,1.87 2.07,2.23 3.11,5.01 3.11,8.34l0 1.03zm-5.54 2.31l4.97 1.65c-2.19,3.82 -5.58,5.73 -10.19,5.73 -3.39,0 -6.08,-1.02 -8.08,-3.08 -0.57,-0.59 -1.07,-1.24 -1.48,-1.95 1.66,0.95 3.65,1.43 5.95,1.43 3.75,0 6.68,-1.26 8.83,-3.78zm-12.76 -12.21c0.95,-0.87 2,-1.54 3.14,-2.01 0.25,-0.03 0.51,-0.05 0.78,-0.05 2.05,0 3.4,1.21 4.05,3.63 -0.14,-0.02 -0.29,-0.02 -0.44,-0.02 -0.81,0 -1.53,0.14 -2.15,0.44l-6.02 0c0.1,-0.76 0.31,-1.43 0.64,-1.99zm54.69 13.19l3.61 0 0 5.94 -22.36 0 2.84 -3.6 15.91 0 0 -2.34zm-7.06 -20.83c-0.21,-0.03 -0.42,-0.04 -0.64,-0.04 -1.41,0 -2.44,0.51 -3.07,1.53 -0.64,1.02 -1.02,2.6 -1.16,4.77l-7.08 0c0,-1.3 0.12,-2.5 0.38,-3.6l3.09 0c0.14,-2.17 0.52,-3.76 1.16,-4.78 0.64,-1.02 1.66,-1.53 3.08,-1.53 1.21,0 2.24,0.4 3.05,1.21 0.67,0.66 1.07,1.47 1.19,2.44zm5.92 -4.43c0.63,0.36 1.21,0.79 1.76,1.29 1.96,1.79 2.96,4.1 2.99,6.89 -0.1,0.7 -0.16,1.41 -0.2,2.15 -0.42,2.24 -1.52,4.64 -3.3,7.24l-1.92 2.77c-0.28,0.42 -0.59,0.85 -0.92,1.31l-6.43 0 0.88 -1.08c1.16,-1.44 2.1,-2.71 2.87,-3.83l1.91 -2.78c2.34,-3.4 3.5,-6.48 3.5,-9.27 0,-1.76 -0.38,-3.32 -1.14,-4.69zm26.82 0.43c1.11,0.69 2.11,1.6 2.98,2.73 2.26,2.9 3.39,6.78 3.39,11.65 0,5.67 -1.26,9.88 -3.76,12.63 -2.51,2.74 -5.41,4.12 -8.69,4.12 -3.75,0 -6.81,-1.46 -9.13,-4.39 -0.23,-0.3 -0.46,-0.6 -0.67,-0.92 1.79,1.14 3.85,1.7 6.19,1.7 3.29,0 6.19,-1.37 8.69,-4.11 2.51,-2.76 3.76,-6.96 3.76,-12.64 0,-4.39 -0.92,-7.98 -2.76,-10.77zm-5.09 4.68c-0.32,-0.07 -0.65,-0.11 -0.99,-0.11 -1.82,0 -3.25,0.93 -4.29,2.78 -1.04,1.85 -1.56,4.43 -1.56,7.72 0,2.46 0.35,4.52 1.06,6.17 -1.23,-0.3 -2.26,-1.16 -3.08,-2.57 -1.06,-1.8 -1.59,-4.2 -1.59,-7.2 0,-3.3 0.52,-5.88 1.56,-7.73 1.04,-1.85 2.47,-2.77 4.29,-2.77 1.74,0 3.12,0.92 4.15,2.77 0.16,0.3 0.31,0.61 0.45,0.94zm26.04 -5.85l3.61 0 0 31.94 -7.03 0 0 -3.6 3.42 0 0 -28.34zm-7.02 5.84l-1.01 0 0.76 -3.6 0.25 0 0 3.6zm39.98 -5.84l3.6 0 0 5.84 -9.63 0 -0.07 0.68c-1.17,-0.32 -2.47,-0.49 -3.9,-0.49l0.36 -3.79 9.64 0 0 -2.24zm-0.2 11.08c0.82,0.46 1.55,1.05 2.2,1.75 1.96,2.12 2.94,4.62 2.94,7.5 0,3.27 -1.26,6.1 -3.79,8.49 -2.54,2.39 -5.52,3.58 -8.98,3.58 -1.63,0 -3.07,-0.23 -4.31,-0.68 -1.25,-0.45 -2.64,-1.2 -4.2,-2.23l0.16 -1.54 0.43 0.16c1.24,0.45 2.68,0.69 4.32,0.69 3.45,0 6.44,-1.2 8.97,-3.59 2.53,-2.39 3.79,-5.21 3.79,-8.48 0,-2.09 -0.51,-3.97 -1.53,-5.65zm-5.62 4.4c-0.57,-0.17 -1.19,-0.25 -1.84,-0.25 -1.91,0 -3.96,0.46 -6.16,1.38l0.46 -4.81c0.72,-0.12 1.41,-0.18 2.09,-0.18 1.61,0 2.97,0.51 4.03,1.52 0.71,0.67 1.18,1.45 1.42,2.34z"/>
   <path class="fil2" d="M231.18 154.4l-5.53 6.06 -0.64 -0.37c-1.01,-0.59 -3.38,-1.93 -4.58,-1.93 -0.55,0 -1,0.22 -1.39,0.61 -0.4,0.42 -0.59,0.88 -0.59,1.47 0,1.66 2.57,2.84 3.85,3.36 1.68,0.72 3.52,1.56 5.05,2.59 1.3,0.87 2.3,2.04 3.08,3.4 0.83,1.46 1.25,3.05 1.25,4.73 0,3.22 -1.37,5.88 -3.73,8.05 -2.45,2.25 -5.38,3.38 -8.71,3.38 -4.21,0 -7.82,-2.24 -10.76,-5.08l-0.63 -0.6 5.88 -6.86 0.7 0.72c1.32,1.35 3.25,2.95 5.24,2.95 0.72,0 1.33,-0.4 1.83,-0.87 0.48,-0.45 0.9,-1.02 0.9,-1.69 0,-1.8 -3.52,-3.2 -4.83,-3.68 -1.5,-0.56 -3.36,-1.31 -4.65,-2.27 -1.11,-0.83 -1.91,-1.99 -2.5,-3.23 -0.64,-1.35 -0.99,-2.77 -0.99,-4.26 0,-3.01 0.96,-5.68 3.15,-7.78 2.23,-2.13 5.07,-2.98 8.12,-2.98 3.72,0 7.05,1.13 9.81,3.66l0.67 0.62zm-1.3 0.06l-4.4 4.83c-2.34,-1.36 -4.02,-2.05 -5.05,-2.05 -0.79,0 -1.47,0.31 -2.04,0.89 -0.58,0.59 -0.86,1.29 -0.86,2.11 0,1.61 1.47,3.01 4.4,4.21 2.16,0.92 3.79,1.76 4.9,2.5 1.11,0.75 2.04,1.77 2.8,3.1 0.75,1.31 1.13,2.74 1.13,4.27 0,2.83 -1.15,5.28 -3.43,7.37 -2.28,2.1 -4.98,3.14 -8.09,3.14 -3.42,0 -6.79,-1.61 -10.12,-4.82l4.66 -5.43c2.1,2.15 4.06,3.22 5.89,3.22 0.86,0 1.68,-0.37 2.47,-1.13 0.79,-0.74 1.18,-1.52 1.18,-2.35 0,-1.7 -1.81,-3.22 -5.43,-4.55 -2.07,-0.77 -3.54,-1.48 -4.42,-2.14 -0.88,-0.66 -1.62,-1.62 -2.22,-2.88 -0.6,-1.27 -0.9,-2.55 -0.9,-3.87 0,-2.93 0.96,-5.29 2.86,-7.11 1.91,-1.82 4.4,-2.73 7.49,-2.73 3.64,0 6.7,1.14 9.18,3.42zm5.13 0.41c0,-1.09 0.39,-2.02 1.17,-2.81 0.79,-0.78 1.73,-1.17 2.83,-1.17 1.1,0 2.04,0.39 2.83,1.17 0.77,0.79 1.17,1.72 1.17,2.81 0,1.11 -0.4,2.05 -1.17,2.83 -0.79,0.79 -1.73,1.19 -2.83,1.19 -1.1,0 -2.04,-0.4 -2.83,-1.19 -0.78,-0.78 -1.17,-1.72 -1.17,-2.83zm0.82 7.96l6.41 0 0 21.54 -6.41 0 0 -21.54zm19.94 0l0 2.56c2.18,-2.04 4.48,-3.07 6.88,-3.07 2.05,0 3.75,0.84 5.1,2.53 1.34,1.68 2.01,3.83 2.01,6.45l0 13.07 -6.51 0 0 -12.05c0,-1.24 -0.34,-2.28 -1.01,-3.14 -0.68,-0.84 -1.5,-1.27 -2.46,-1.27 -1.17,0 -2.13,0.54 -2.88,1.61 -0.76,1.08 -1.13,2.47 -1.13,4.18l0 10.67 -6.41 0 0 -21.54 6.41 0zm35.92 14.1l0 6.41c-2.2,0.99 -4.03,1.49 -5.48,1.49 -3.24,0 -5.95,-1.07 -8.13,-3.21 -2.17,-2.13 -3.25,-4.81 -3.25,-8.01 0,-3.22 1.01,-5.89 3.01,-8.01 2.02,-2.12 4.56,-3.18 7.65,-3.18 2.16,0 4.24,0.5 6.26,1.49l0 6.05c-1.87,-0.89 -3.58,-1.33 -5.12,-1.33 -1.43,0 -2.59,0.43 -3.46,1.31 -0.88,0.87 -1.32,2.04 -1.32,3.46 0,1.42 0.44,2.58 1.3,3.45 0.87,0.88 2.02,1.31 3.44,1.31 1.28,0 2.99,-0.41 5.1,-1.23zm25.12 -1.79l-15.33 0c0.08,1.38 0.54,2.5 1.36,3.36 0.83,0.87 1.79,1.31 2.89,1.31 1.97,0 3.51,-0.9 4.63,-2.67l5.88 1.95c-2.19,3.82 -5.58,5.74 -10.19,5.74 -3.39,0 -6.08,-1.03 -8.07,-3.08 -2.01,-2.06 -3.01,-4.82 -3.01,-8.28 0,-3.13 1.05,-5.75 3.16,-7.87 2.11,-2.12 4.71,-3.18 7.8,-3.18 3.09,0 5.69,1.11 7.77,3.34 2.07,2.23 3.11,5.01 3.11,8.35l0 1.03zm-15.33 -4.31l8.72 0c-0.61,-2.7 -2,-4.05 -4.16,-4.05 -1.25,0 -2.27,0.35 -3.09,1.06 -0.81,0.7 -1.3,1.7 -1.47,2.99zm46.17 7.59l9.16 0 0 5.95 -22.36 0 10.92 -13.85c1.59,-2.04 2.72,-3.71 3.39,-5.02 0.68,-1.31 1.02,-2.53 1.02,-3.68 0,-1.24 -0.41,-2.26 -1.22,-3.06 -0.81,-0.81 -1.83,-1.21 -3.05,-1.21 -1.42,0 -2.44,0.51 -3.08,1.53 -0.64,1.02 -1.02,2.6 -1.16,4.78l-7.08 0c-0.01,-3.87 1.13,-6.86 3.42,-8.98 2.3,-2.11 5.13,-3.17 8.51,-3.17 3.14,0 5.71,0.92 7.7,2.74 1.99,1.82 2.99,4.16 2.99,7.01 0,2.79 -1.16,5.87 -3.5,9.27l-1.91 2.78c-0.77,1.12 -1.71,2.39 -2.87,3.83l-0.88 1.08zm25.15 -26.46c3.79,0 6.81,1.46 9.07,4.36 2.25,2.91 3.38,6.79 3.38,11.65 0,5.68 -1.25,9.88 -3.76,12.64 -2.5,2.74 -5.4,4.12 -8.69,4.12 -3.75,0 -6.8,-1.47 -9.12,-4.4 -2.33,-2.93 -3.5,-6.78 -3.5,-11.56 0,-5.07 1.13,-9.15 3.41,-12.21 2.29,-3.07 5.29,-4.6 9.01,-4.6l0.2 0zm5.68 16.61c0,-3.24 -0.51,-5.78 -1.53,-7.63 -1.03,-1.85 -2.41,-2.77 -4.15,-2.77 -1.82,0 -3.25,0.92 -4.29,2.77 -1.04,1.85 -1.56,4.43 -1.56,7.73 0,3 0.53,5.4 1.59,7.2 1.06,1.81 2.44,2.7 4.17,2.7 1.75,0 3.15,-0.89 4.2,-2.7 1.06,-1.8 1.57,-4.24 1.57,-7.3zm14.55 -16.15l10.41 0 0 31.95 -7.02 0 0 -26.1 -4.61 0 1.22 -5.85zm27.53 0l15.84 0 0 5.85 -9.64 0 -0.36 3.79c3.63,0 6.44,1.06 8.39,3.19 1.96,2.12 2.94,4.62 2.94,7.51 0,3.27 -1.26,6.09 -3.79,8.48 -2.53,2.39 -5.52,3.59 -8.97,3.59 -1.64,0 -3.08,-0.24 -4.32,-0.69 -1.25,-0.45 -2.64,-1.2 -4.2,-2.23l0.76 -7.28c3.49,2.28 6.23,3.43 8.22,3.43 1.42,0 2.65,-0.51 3.73,-1.53 1.06,-1.02 1.6,-2.21 1.6,-3.57 0,-1.52 -0.53,-2.78 -1.6,-3.79 -1.06,-1.01 -2.42,-1.52 -4.03,-1.52 -1.9,0 -3.96,0.46 -6.16,1.39l1.59 -16.62zm-186.47 2.45c0,-1.34 0.49,-2.51 1.44,-3.46 0.95,-0.95 2.13,-1.44 3.48,-1.44 1.35,0 2.52,0.49 3.48,1.44 0.94,0.95 1.44,2.12 1.44,3.46 0,1.35 -0.49,2.52 -1.44,3.48 -0.96,0.96 -2.13,1.46 -3.48,1.46 -1.35,0 -2.53,-0.5 -3.48,-1.46 -0.95,-0.96 -1.44,-2.13 -1.44,-3.48zm0.82 7.04l8.25 0 0 23.38 -8.25 0 0 -23.38zm21.78 1.53c1.74,-1.24 3.73,-2.04 5.96,-2.04 2.39,0 4.34,1.02 5.82,2.88 1.6,2.02 2.21,4.47 2.21,7.02l0 13.99 -8.35 0 0 -12.97c0,-0.95 -0.22,-1.82 -0.82,-2.57 -0.45,-0.57 -0.99,-0.92 -1.73,-0.92 -0.94,0 -1.6,0.46 -2.13,1.22 -0.74,1.06 -0.96,2.38 -0.96,3.65l0 11.59 -8.25 0 0 -23.38 8.25 0 0 1.53zm35.92 12.14l0 8.36 -0.54 0.24c-1.76,0.79 -3.91,1.57 -5.86,1.57 -3.38,0 -6.35,-1.09 -8.77,-3.47 -2.41,-2.36 -3.53,-5.31 -3.53,-8.67 0,-3.29 1,-6.24 3.27,-8.64 2.24,-2.37 5.06,-3.47 8.31,-3.47 2.34,0 4.56,0.55 6.66,1.58l0.51 0.26 0 8.08 -1.31 -0.63c-1.45,-0.69 -3.1,-1.24 -4.72,-1.24 -1.07,0 -2.04,0.27 -2.81,1.04 -0.77,0.76 -1.05,1.75 -1.05,2.81 0,1.06 0.28,2.04 1.04,2.8 0.76,0.77 1.71,1.04 2.78,1.04 1.51,0 3.37,-0.63 4.77,-1.17l1.25 -0.49zm17.42 0.48l7.57 2.51 -0.56 0.98c-2.41,4.21 -6.17,6.2 -10.99,6.2 -3.32,0 -6.38,-0.95 -8.73,-3.36 -2.37,-2.44 -3.27,-5.58 -3.27,-8.92 0,-3.3 1.1,-6.18 3.43,-8.52 2.31,-2.33 5.16,-3.45 8.45,-3.45 3.32,0 6.18,1.2 8.45,3.63 2.33,2.51 3.35,5.57 3.35,8.98l0 1.95 -7.7 0zm-7.49 0c0.16,0.67 0.47,1.28 0.97,1.8 0.61,0.64 1.33,1.03 2.22,1.03 1.72,0 2.94,-0.8 3.85,-2.24l0.37 -0.59 -7.41 0zm47.04 1.44l8.15 0 0 7.79 -25.17 0 12.09 -15.34c1.18,-1.49 2.42,-3.18 3.3,-4.87 0.51,-1 0.91,-2.12 0.91,-3.26 0,-0.93 -0.28,-1.75 -0.95,-2.41 -0.66,-0.66 -1.47,-0.94 -2.4,-0.94 -0.96,0 -1.78,0.27 -2.3,1.1 -0.72,1.15 -0.94,3.03 -1.02,4.34l-0.05 0.87 -8.86 0 -0.01 -0.92c-0.01,-3.66 0.96,-7.12 3.71,-9.66 2.57,-2.35 5.67,-3.41 9.14,-3.41 3.11,0 6,0.86 8.32,2.98 2.24,2.05 3.29,4.67 3.29,7.69 0,3.53 -1.7,6.95 -3.66,9.79l-1.91 2.78c-0.82,1.19 -1.68,2.34 -2.58,3.47zm23.22 -26.46c4.01,0 7.33,1.54 9.79,4.72 2.71,3.48 3.58,7.88 3.58,12.21 0,4.59 -0.79,9.74 -4,13.26 -2.51,2.75 -5.61,4.42 -9.37,4.42 -4.03,0 -7.34,-1.59 -9.85,-4.75 -2.75,-3.47 -3.69,-7.78 -3.69,-12.13 0,-4.49 0.86,-9.09 3.6,-12.76 2.42,-3.26 5.68,-4.97 9.74,-4.97l0.2 0zm22.7 8.15l-4.83 0 1.62 -7.68 12.07 0 0 33.78 -8.86 0 0 -26.1zm32.1 0l-0.19 1.98c3.05,0.17 5.92,1.13 8.06,3.46 2.11,2.29 3.18,5.01 3.18,8.13 0,3.63 -1.45,6.67 -4.08,9.15 -2.69,2.54 -5.9,3.84 -9.6,3.84 -1.57,0 -3.15,-0.21 -4.63,-0.74 -1.54,-0.56 -3.03,-1.43 -4.39,-2.33l-0.47 -0.31 0.97 -9.34 1.27 0.83c1.95,1.28 5.3,3.28 7.71,3.28 1.21,0 2.22,-0.44 3.09,-1.28 0.84,-0.8 1.32,-1.73 1.32,-2.9 0,-1.24 -0.41,-2.27 -1.31,-3.12 -0.94,-0.9 -2.1,-1.27 -3.4,-1.27 -1.99,0 -3.98,0.55 -5.8,1.32l-1.42 0.59 1.81 -18.97 17.6 0 0 7.68 -9.72 0zm-124.97 10.72l6.34 0c-0.49,-1.27 -1.33,-2.21 -2.93,-2.21 -0.93,0 -1.78,0.22 -2.49,0.83 -0.44,0.38 -0.73,0.86 -0.92,1.38zm74.93 -1.34c0,-2.34 -0.27,-5.1 -1.42,-7.18 -0.74,-1.33 -1.75,-2.3 -3.34,-2.3 -1.64,0 -2.7,0.92 -3.48,2.31 -1.18,2.08 -1.45,4.91 -1.45,7.27 0,2.25 0.3,4.77 1.46,6.74 0.77,1.3 1.8,2.24 3.38,2.24 1.58,0 2.63,-0.91 3.41,-2.24 1.16,-1.99 1.44,-4.58 1.44,-6.84z"/>
   <path class="fil0" d="M229.88 154.46l-4.4 4.83c-2.34,-1.36 -4.02,-2.05 -5.05,-2.05 -0.79,0 -1.47,0.31 -2.04,0.89 -0.58,0.59 -0.86,1.29 -0.86,2.11 0,1.61 1.47,3.01 4.4,4.21 2.16,0.92 3.79,1.76 4.9,2.5 1.11,0.75 2.04,1.77 2.8,3.1 0.75,1.31 1.13,2.74 1.13,4.27 0,2.83 -1.15,5.28 -3.43,7.37 -2.28,2.1 -4.98,3.14 -8.09,3.14 -3.42,0 -6.79,-1.61 -10.12,-4.82l4.66 -5.43c2.1,2.15 4.06,3.22 5.89,3.22 0.86,0 1.68,-0.37 2.47,-1.13 0.79,-0.74 1.18,-1.52 1.18,-2.35 0,-1.7 -1.81,-3.22 -5.43,-4.55 -2.07,-0.77 -3.54,-1.48 -4.42,-2.14 -0.88,-0.66 -1.62,-1.62 -2.22,-2.89 -0.6,-1.26 -0.9,-2.54 -0.9,-3.86 0,-2.93 0.96,-5.3 2.86,-7.11 1.91,-1.82 4.4,-2.73 7.49,-2.73 3.64,0 6.7,1.14 9.18,3.42zm5.13 0.41c0,-1.09 0.39,-2.02 1.17,-2.81 0.79,-0.78 1.73,-1.17 2.83,-1.17 1.1,0 2.04,0.39 2.83,1.17 0.77,0.79 1.17,1.72 1.17,2.81 0,1.11 -0.4,2.05 -1.17,2.83 -0.79,0.79 -1.73,1.19 -2.83,1.19 -1.1,0 -2.04,-0.4 -2.83,-1.19 -0.78,-0.78 -1.17,-1.72 -1.17,-2.83zm0.82 7.96l6.41 0 0 21.54 -6.41 0 0 -21.54zm19.94 0l0 2.56c2.18,-2.04 4.48,-3.07 6.88,-3.07 2.05,0 3.75,0.84 5.1,2.53 1.34,1.68 2.01,3.83 2.01,6.45l0 13.07 -6.51 0 0 -12.05c0,-1.24 -0.34,-2.28 -1.01,-3.14 -0.68,-0.84 -1.5,-1.27 -2.46,-1.27 -1.17,0 -2.13,0.54 -2.88,1.61 -0.76,1.08 -1.13,2.47 -1.13,4.18l0 10.67 -6.41 0 0 -21.54 6.41 0zm35.92 14.1l0 6.41c-2.2,0.99 -4.03,1.49 -5.48,1.49 -3.24,0 -5.95,-1.07 -8.13,-3.21 -2.17,-2.13 -3.25,-4.81 -3.25,-8.01 0,-3.22 1.01,-5.89 3.01,-8.01 2.02,-2.12 4.56,-3.18 7.65,-3.18 2.16,0 4.24,0.5 6.25,1.49l0 6.05c-1.86,-0.89 -3.57,-1.34 -5.11,-1.34 -1.44,0 -2.59,0.44 -3.46,1.32 -0.88,0.87 -1.32,2.04 -1.32,3.46 0,1.42 0.44,2.58 1.3,3.45 0.88,0.88 2.02,1.31 3.44,1.31 1.28,0 2.99,-0.41 5.1,-1.23zm25.12 -1.79l-15.33 0c0.08,1.38 0.54,2.5 1.36,3.36 0.83,0.87 1.79,1.31 2.89,1.31 1.97,0 3.51,-0.9 4.63,-2.67l5.88 1.95c-2.19,3.82 -5.58,5.74 -10.19,5.74 -3.39,0 -6.08,-1.03 -8.07,-3.08 -2.01,-2.06 -3.01,-4.82 -3.01,-8.28 0,-3.13 1.05,-5.75 3.16,-7.87 2.11,-2.12 4.71,-3.18 7.8,-3.18 3.09,0 5.69,1.11 7.77,3.34 2.07,2.23 3.11,5.01 3.11,8.35l0 1.03zm-15.33 -4.31l8.72 0c-0.61,-2.7 -2,-4.05 -4.16,-4.05 -1.25,0 -2.27,0.35 -3.09,1.06 -0.81,0.7 -1.3,1.7 -1.47,2.99zm46.17 7.59l9.16 0 0 5.95 -22.36 0 10.92 -13.85c1.58,-2.04 2.72,-3.71 3.39,-5.02 0.68,-1.31 1.02,-2.53 1.02,-3.68 0,-1.24 -0.41,-2.26 -1.22,-3.06 -0.81,-0.81 -1.84,-1.21 -3.05,-1.21 -1.42,0 -2.44,0.51 -3.08,1.53 -0.64,1.02 -1.02,2.61 -1.16,4.78l-7.08 0c-0.01,-3.87 1.13,-6.86 3.42,-8.98 2.3,-2.11 5.13,-3.17 8.51,-3.17 3.14,0 5.71,0.92 7.7,2.74 1.99,1.82 2.99,4.16 2.99,7.01 0,2.79 -1.16,5.87 -3.5,9.27l-1.91 2.78c-0.77,1.12 -1.71,2.39 -2.87,3.83l-0.88 1.08zm25.15 -26.46c3.79,0 6.82,1.46 9.07,4.36 2.25,2.91 3.38,6.79 3.38,11.65 0,5.68 -1.25,9.88 -3.76,12.64 -2.5,2.74 -5.4,4.11 -8.69,4.11 -3.75,0 -6.8,-1.46 -9.13,-4.39 -2.32,-2.93 -3.49,-6.78 -3.49,-11.56 0,-5.07 1.13,-9.15 3.41,-12.21 2.29,-3.07 5.29,-4.6 9.01,-4.6l0.2 0zm5.68 16.61c0,-3.23 -0.51,-5.78 -1.53,-7.63 -1.03,-1.85 -2.41,-2.77 -4.15,-2.77 -1.82,0 -3.25,0.92 -4.29,2.77 -1.04,1.85 -1.56,4.43 -1.56,7.73 0,3 0.53,5.4 1.59,7.2 1.06,1.81 2.44,2.7 4.17,2.7 1.75,0 3.15,-0.89 4.2,-2.7 1.06,-1.8 1.57,-4.24 1.57,-7.3zm14.55 -16.15l10.41 0 0 31.95 -7.02 0 0 -26.1 -4.61 0 1.22 -5.85zm27.53 0l15.84 0 0 5.85 -9.64 0 -0.36 3.79c3.63,0 6.44,1.06 8.39,3.19 1.96,2.12 2.94,4.62 2.94,7.51 0,3.27 -1.26,6.09 -3.79,8.48 -2.53,2.39 -5.52,3.59 -8.97,3.59 -1.64,0 -3.08,-0.24 -4.32,-0.69 -1.25,-0.45 -2.64,-1.2 -4.2,-2.23l0.76 -7.28c3.49,2.28 6.23,3.43 8.22,3.43 1.42,0 2.65,-0.51 3.73,-1.53 1.06,-1.02 1.6,-2.21 1.6,-3.57 0,-1.52 -0.53,-2.78 -1.6,-3.79 -1.06,-1.01 -2.42,-1.52 -4.03,-1.52 -1.9,0 -3.96,0.46 -6.16,1.39l1.59 -16.62z"/>
  </g>
  <g id="_2112900746272">
   <path class="fil1" d="M7.67 135.78l-0.21 -0.58c2.05,0.45 4.16,0.61 6.28,0.61 3.62,0 7.17,-0.65 10.45,-2.22 3.17,-1.53 5.8,-3.77 7.94,-6.57 1.66,-2.26 2.73,-4.82 3.34,-7.52 1.91,-8.44 -0.7,-25.71 3.05,-32.09 2.33,-3.97 7.07,-3.51 10.98,-2.77l2.92 0.56 -1.28 -3.23 0.26 0.13 1.67 4.2c-4.67,-0.88 -9.93,-1.15 -12.7,3.55 -4.05,6.88 -1.25,23.8 -3.23,32.55 -0.62,2.7 -1.64,4.99 -3.05,6.89 -2.04,2.68 -4.48,4.71 -7.34,6.09 -2.87,1.37 -6.11,2.06 -9.75,2.06 -3.19,0 -6.38,-0.38 -9.33,-1.66zm91.78 -55.78l-3.12 6.48c-6.1,-0.32 -12.44,-0.47 -18.55,-0.22l-0.24 12.14c-0.57,0.42 -1.14,0.83 -1.71,1.24l0.29 -15.07c5.61,-0.16 11.25,-0.02 16.86,0.28l1.09 0.06 2.3 -4.79c1.03,-0.04 2.05,-0.08 3.08,-0.12zm-2.34 26.08c0.67,0.72 1.35,1.43 2.04,2.12 -2.22,1.6 -4.29,3.16 -6.21,4.64 -1.91,1.49 -3.7,2.99 -5.36,4.48 -0.64,-0.74 -1.31,-1.48 -1.98,-2.21 1.64,-1.48 3.34,-2.89 5.08,-4.24 2.03,-1.57 4.08,-3.11 6.16,-4.6l0.27 -0.19zm-17.46 2.92l0 0 -0.03 -0.04 0.03 0.04zm-2.22 0.06l0.3 16.7 -1.58 0 -0.32 -18.29c0.54,0.53 1.07,1.06 1.6,1.59zm23.71 26.47l0.79 1.52c-12.56,-0.58 -25.54,-0.6 -38.1,-0.06l-1.87 -1.69c12.19,-0.49 24.45,-0.44 36.64,0.12l2.54 0.11zm20.36 -57.09l0.06 -0.04c0.57,1.35 1.16,2.72 1.78,4.11 -0.62,-1.35 -1.24,-2.71 -1.84,-4.07zm37.7 3.73l2.18 1.7c-4.06,8.9 -7.81,17.78 -11.25,26.62 -3.44,8.84 -6.57,17.66 -9.38,26.45 -2.92,-0.17 -5.58,-0.21 -8.49,0.01l-0.81 -1.76c1.98,-0.06 3.94,0 5.94,0.12l1.26 0.08 0.39 -1.21c2.84,-8.88 5.97,-17.67 9.35,-26.36 3.36,-8.65 6.97,-17.2 10.81,-25.65zm51.36 -2.25l-3.12 6.49c-6.13,-0.32 -12.41,-0.45 -18.54,-0.22l-0.25 12.14c-0.57,0.42 -1.14,0.83 -1.72,1.24l0.3 -15.06c5.62,-0.15 11.25,-0.02 16.86,0.27l1.08 0.05 2.31 -4.78c1.02,-0.04 2.05,-0.08 3.08,-0.13zm-2.35 26.08c0.68,0.73 1.36,1.44 2.05,2.13 -2.22,1.6 -4.29,3.16 -6.21,4.64 -1.92,1.49 -3.71,2.99 -5.36,4.48 -0.64,-0.74 -1.31,-1.48 -1.98,-2.21 1.64,-1.48 3.34,-2.89 5.08,-4.24 2.02,-1.57 4.08,-3.11 6.16,-4.6l0.26 -0.2zm-19.67 2.99l0.29 16.7 -1.57 0 -0.32 -18.3c0.54,0.53 1.07,1.06 1.6,1.6zm19.4 21.19l0 0 1.84 3.54 -1.84 -3.54zm4.31 5.28l0.79 1.52c-12.56,-0.58 -25.54,-0.6 -38.1,-0.06l-1.87 -1.69c12.2,-0.49 24.45,-0.45 36.63,0.11l2.55 0.12zm-27.5 -2.16l0.04 0 -0.04 0zm0.18 0l0.05 0zm0.09 0l0.05 -0.01zm0.09 0l0.24 0zm0.04 0l0.05 0zm0.09 0l0.14 0 -0.14 0 0 0zm0.14 0l0.05 0 -0.05 0 0 0zm0.05 0l0.05 0zm0.04 0l0.14 0zm0.05 0l0.05 -0.01zm0.14 0l0.04 0 -0.04 0 0 0zm0.51 0l0.05 0zm-0.19 0l-0.14 0 -0.05 0 -0.09 0 -0.05 0zm50.25 -29.85l0.02 30.88 -8.17 4.07 0 -3.06 6.54 -3.26 -0.02 -30.53 1.63 1.9zm38.87 -24.3l1.62 -0.83 0.03 43.61 -1.63 -1.77 -0.02 -41.01zm3.39 46.8l2.02 2.17c-2.16,1.8 -4.2,3.59 -6.13,5.4 -1.93,1.8 -3.77,3.64 -5.54,5.51l-1.91 -2.31c1.71,-1.82 3.49,-3.57 5.31,-5.27 1.96,-1.84 3.98,-3.61 6.05,-5.34l0.2 -0.16z"/>
   <path class="fil3" d="M3.14 133.72l-3.14 -8.45 3.32 1.27c3.37,1.28 8.09,0.72 10.36,-2.32 1.98,-2.64 2.36,-6.83 2.36,-10.02 -0.01,-10.71 -1.63,-23.03 5.44,-32.08 4.08,-5.21 9.79,-7.37 16.32,-7.37 3.95,0 7.49,0.92 11.04,2.64l0.56 0.28 2.98 7.49 -2.87 -0.54c-3.93,-0.75 -8.67,-1.2 -11.02,2.78 -3.75,6.38 -1.13,23.65 -3.04,32.1 -0.61,2.7 -1.68,5.25 -3.34,7.51 -2.13,2.79 -4.76,5.03 -7.93,6.55 -3.27,1.58 -6.83,2.22 -10.44,2.22 -3.42,0.01 -6.81,-0.41 -9.97,-1.79l-0.63 -0.27zm634.5 -13.68c-2.12,0 -3.89,0.73 -5.4,2.24 -1.52,1.52 -2.25,3.28 -2.25,5.4 0,2.12 0.74,3.88 2.25,5.4 1.52,1.51 3.29,2.25 5.4,2.25 2.12,0 3.89,-0.74 5.4,-2.25 1.51,-1.52 2.25,-3.29 2.25,-5.4 0,-2.11 -0.74,-3.88 -2.25,-5.4 -1.51,-1.51 -3.28,-2.24 -5.4,-2.24zm-633.23 12.48l-1.67 -4.49c4.08,1.57 9.53,0.75 12.23,-2.85 1.78,-2.39 2.67,-6.04 2.67,-10.98 -0.01,-10.31 -1.6,-22.5 5.11,-31.09 3.52,-4.49 8.54,-6.75 15.05,-6.75 3.72,0 7,0.86 10.34,2.48l1.67 4.2c-4.67,-0.89 -9.93,-1.15 -12.7,3.55 -4.05,6.88 -1.26,23.8 -3.23,32.55 -0.62,2.7 -1.65,4.99 -3.05,6.89 -2.04,2.68 -4.49,4.71 -7.34,6.09 -2.87,1.37 -6.11,2.05 -9.76,2.06 -3.19,0 -6.37,-0.38 -9.32,-1.66zm91.78 -55.78l-3.12 6.48c-6.1,-0.32 -12.44,-0.47 -18.55,-0.22l-0.39 19.81c1.9,-1.31 3.86,-2.7 5.86,-4.17 2.02,-1.48 4.11,-3.08 6.32,-4.82 1.52,1.99 3.07,3.94 4.67,5.78 1.59,1.86 3.23,3.64 4.91,5.34 -2.22,1.6 -4.29,3.16 -6.21,4.64 -1.91,1.49 -3.71,2.99 -5.36,4.48 -1.54,-1.77 -3.17,-3.51 -4.86,-5.26 -1.7,-1.75 -3.48,-3.48 -5.33,-5.21l0.42 23.8c7,0 13.48,-0.03 20.53,-0.5l3.59 6.9c-12.56,-0.58 -25.54,-0.6 -38.1,-0.06l-2.66 -2.4c0.8,-17.35 0.84,-34.46 -0.03,-51.81l2.85 -2.76c11.92,0.49 23.54,0.49 35.46,-0.02zm7.92 8.42c1.66,-3.18 10.33,-7.05 14.18,-10.02 2.28,5.37 4.94,11.14 7.99,17.31 3.03,6.15 6.41,12.61 10.09,19.37l14.91 -36.53 6.84 5.32c-4.06,8.9 -7.81,17.77 -11.25,26.62 -3.44,8.84 -6.57,17.66 -9.39,26.45 -2.91,-0.18 -5.57,-0.21 -8.48,0.01 -3.96,-8.65 -8.01,-17 -12.16,-25.08 -4.14,-8.08 -8.39,-15.89 -12.73,-23.45zm103.19 -8.5l-3.12 6.49c-6.13,-0.32 -12.42,-0.45 -18.55,-0.23l-0.39 19.82c1.9,-1.31 3.86,-2.7 5.86,-4.17 2.01,-1.47 4.11,-3.09 6.32,-4.83 1.51,2.01 3.07,3.95 4.67,5.79 1.58,1.86 3.23,3.64 4.9,5.34 -2.21,1.6 -4.28,3.16 -6.2,4.64 -1.92,1.49 -3.71,2.99 -5.36,4.48 -1.54,-1.77 -3.17,-3.51 -4.86,-5.26 -1.7,-1.75 -3.48,-3.48 -5.33,-5.22l0.42 23.81c7,0 13.48,-0.03 20.53,-0.5l3.59 6.9c-12.56,-0.58 -25.54,-0.6 -38.11,-0.06l-2.65 -2.4c0.79,-17.36 0.83,-34.45 -0.03,-51.81l2.84 -2.76c11.93,0.49 23.54,0.49 35.47,-0.03zm26.02 20.48l0.02 33.91 -8.17 4.07 -0.03 -47.04 -3.33 -3.65c2.25,-1.56 4.45,-3.11 6.62,-4.71 2.17,-1.58 4.32,-3.23 6.46,-4.9 5.52,7.1 10.87,13.73 16.08,19.89 5.22,6.16 10.14,11.71 14.78,16.65l-0.02 -32.21 8.08 -4.11 0.03 45.74 3.76 4.06c-2.16,1.8 -4.2,3.59 -6.13,5.4 -1.93,1.8 -3.77,3.64 -5.54,5.51 -5.59,-6.77 -11.1,-13.37 -16.53,-19.8 -5.43,-6.41 -10.79,-12.68 -16.08,-18.81zm403.73 29.87l-1.68 0 0 -2.77 1.88 0c1.41,0 2.12,0.44 2.12,1.31 0,0.55 -0.17,0.94 -0.52,1.14 -0.36,0.21 -0.95,0.32 -1.8,0.32zm3.92 3.74c-0.54,-0.91 -0.93,-1.5 -1.17,-1.77 -0.23,-0.26 -0.56,-0.47 -0.99,-0.62l0 -0.05c0.85,-0.11 1.53,-0.42 2.01,-0.93 0.49,-0.51 0.73,-1.13 0.73,-1.87 0,-0.92 -0.29,-1.63 -0.88,-2.13 -0.59,-0.5 -1.43,-0.75 -2.53,-0.75l-4.82 0 -0.02 10.17 2.07 0 0 -4.17 0.54 0c0.63,0 1.14,0.18 1.52,0.54 0.38,0.36 0.83,1.01 1.33,1.96l0.88 1.67 2.52 0 -1.19 -2.05zm-3.33 6.52c-2.62,0 -4.9,-0.95 -6.77,-2.82 -1.87,-1.87 -2.83,-4.15 -2.83,-6.77 0,-2.63 0.95,-4.9 2.82,-6.77 1.88,-1.87 4.16,-2.81 6.78,-2.81 2.63,0 4.9,0.94 6.78,2.81 1.86,1.87 2.81,4.15 2.81,6.77 0,2.62 -0.95,4.9 -2.81,6.77 -1.88,1.87 -4.15,2.82 -6.78,2.82zm-259.3 -60.6c5.7,-0.01 10.54,0.27 14.55,0.84 3.98,0.56 7.12,1.42 9.4,2.56 4.81,2.44 8.35,5.63 10.65,9.57 2.3,3.94 3.45,8.83 3.45,14.65 0.01,9.93 -3.18,17.27 -9.56,22.07 -6.37,4.79 -16.16,7.19 -29.36,7.19l-13.58 0.02 -2.64 -2.41c0.79,-17.35 0.82,-34.45 -0.04,-51.8l2.81 -2.68 14.32 -0.01zm-0.7 51.97c6.9,-0.38 12.15,-2.66 15.76,-6.84 3.61,-4.18 5.41,-10.09 5.41,-17.74 -0.01,-7.37 -1.81,-13 -5.38,-16.84 -3.57,-3.86 -8.84,-5.84 -15.82,-5.97 -0.66,15.74 -0.64,31.65 0.03,47.39zm73.62 -16.96c3.44,4.15 7.1,8.1 10.92,11.9 -3.77,3.04 -7.37,6.21 -10.91,9.51 -3.58,-3.31 -7.17,-6.49 -11.01,-9.5 3.83,-3.81 7.49,-7.8 11,-11.91zm-0.23 -37.48c10.18,17.41 25.48,34.45 36.74,51.19 -4.9,3.08 -9.6,6.58 -14.06,10.27 -6.95,-12.31 -14.15,-24.5 -21.53,-36.55 -8.48,11.8 -16.39,24.1 -23.83,36.58l-5.01 -7.17c8.2,-12.22 16.28,-24.52 23.99,-37.06l-5.35 -7.69c4.66,-3.02 4.6,-6.25 9.05,-9.57zm86.15 2.53l-3.01 6.75 -11.72 0.01c-1.37,16.53 -1.25,33.41 -0.25,49.97 -4.97,-0.34 -9.92,-0.33 -14.9,0.01l-2.62 -2.4c0.96,-15.78 0.98,-31.81 -0.35,-47.57l-11.72 0 -2.94 -6.78c15.98,0.56 31.54,0.44 47.51,0.01zm48.58 -0.28l-3.12 6.48c-6.15,-0.31 -12.39,-0.45 -18.54,-0.22l-0.39 19.81c1.9,-1.31 3.86,-2.7 5.86,-4.17 2.01,-1.47 4.11,-3.09 6.31,-4.82 1.52,2 3.08,3.94 4.68,5.79 1.58,1.86 3.22,3.63 4.9,5.34 -2.22,1.59 -4.29,3.15 -6.21,4.64 -1.91,1.49 -3.7,2.99 -5.35,4.47 -1.54,-1.76 -3.17,-3.51 -4.87,-5.26 -1.69,-1.75 -3.47,-3.48 -5.32,-5.21l0.42 23.8c6.98,0 13.55,-0.03 20.53,-0.5l3.59 6.9c-12.56,-0.58 -25.55,-0.6 -38.11,-0.06l-2.65 -2.4c0.79,-17.34 0.83,-34.46 -0.04,-51.8l2.85 -2.77c11.93,0.49 23.54,0.49 35.46,-0.02zm6.56 55.72l-1.67 -4.49c4.07,1.55 9.5,0.78 12.22,-2.85 3.84,-5.12 2.5,-16.31 2.5,-22.82 0,-8.32 1.76,-14.73 5.28,-19.24 3.52,-4.51 8.54,-6.76 15.06,-6.76 3.71,0 7.01,0.86 10.33,2.47l1.67 4.21c-4.66,-0.88 -9.92,-1.15 -12.69,3.55 -1.6,2.71 -2.4,7.24 -2.4,13.62 0,6.19 0.52,12.91 -0.83,18.93 -1.35,5.8 -5.01,10.38 -10.4,12.98 -2.86,1.37 -6.11,2.05 -9.75,2.06 -3.2,0 -6.36,-0.38 -9.32,-1.66zm-516.22 -47.62l-0.3 15.14c1.09,-0.78 2.17,-1.56 3.24,-2.35 2.12,-1.55 4.21,-3.16 6.27,-4.78l1.29 -1.02 0.99 1.31c1.48,1.94 3.01,3.85 4.61,5.71 1.55,1.8 3.16,3.56 4.83,5.26l1.32 1.33 -1.52 1.1c-2.08,1.49 -4.14,3.03 -6.17,4.6 -1.8,1.4 -3.56,2.87 -5.26,4.4l-1.21 1.09 -1.07 -1.22c-1.56,-1.78 -3.17,-3.51 -4.81,-5.2 -0.83,-0.85 -1.66,-1.69 -2.51,-2.51l0.33 18.37c6.29,-0.01 12.56,-0.07 18.85,-0.49l1.04 -0.07 5.36 10.3 -2.78 -0.13c-12.63,-0.58 -25.33,-0.6 -37.96,-0.06l-0.66 0.03 -3.71 -3.35 0.04 -0.75c0.79,-17.22 0.83,-34.44 -0.04,-51.65l-0.03 -0.73 3.86 -3.75 0.69 0.02c11.78,0.49 23.55,0.49 35.33,-0.02l2.68 -0.11 -4.75 9.86 -1.07 -0.05c-5.61,-0.3 -11.26,-0.45 -16.88,-0.28zm60.07 23.52l14.43 -35.35 9.51 7.4 -0.53 1.16c-3.99,8.73 -7.73,17.58 -11.21,26.53 -3.38,8.69 -6.51,17.48 -9.36,26.36l-0.38 1.19 -1.24 -0.08c-2.77,-0.16 -5.5,-0.2 -8.27,0.01l-1.12 0.08 -0.46 -1.01c-3.86,-8.43 -7.9,-16.77 -12.13,-25.02 -4.05,-7.89 -8.28,-15.69 -12.69,-23.39l-0.44 -0.76 0.41 -0.78c1.97,-3.76 10.95,-7.71 14.63,-10.54l1.64 -1.27 0.81 1.91c2.47,5.82 5.15,11.56 7.95,17.22 2.71,5.5 5.54,10.94 8.45,16.34zm51.04 -23.59l-0.3 15.13c1.09,-0.77 2.17,-1.55 3.24,-2.34 2.12,-1.55 4.21,-3.16 6.27,-4.79l1.29 -1.01 0.99 1.3c1.48,1.95 3.01,3.86 4.61,5.72 1.55,1.8 3.16,3.56 4.83,5.26l1.31 1.33 -1.52 1.1c-2.08,1.49 -4.13,3.03 -6.15,4.6 -1.81,1.4 -3.57,2.87 -5.27,4.4l-1.21 1.1 -1.08 -1.23c-1.55,-1.78 -3.16,-3.51 -4.8,-5.21 -0.83,-0.84 -1.66,-1.68 -2.51,-2.51l0.33 18.38c6.29,0 12.56,-0.08 18.84,-0.49l1.05 -0.07 5.36 10.3 -2.78 -0.13c-12.64,-0.58 -25.33,-0.6 -37.97,-0.06l-0.65 0.03 -3.71 -3.35 0.04 -0.76c0.78,-17.21 0.82,-34.43 -0.04,-51.65l-0.03 -0.72 3.86 -3.75 0.69 0.02c11.78,0.49 23.55,0.49 35.33,-0.02l2.68 -0.12 -4.75 9.87 -1.07 -0.06c-5.62,-0.29 -11.26,-0.42 -16.88,-0.27zm76.93 22.79l-0.02 -29.1 11.3 -5.75 0.03 47.73 4.47 4.84 -1.3 1.09c-2.06,1.72 -4.09,3.49 -6.05,5.33 -1.88,1.75 -3.71,3.57 -5.47,5.44l-1.24 1.33 -1.16 -1.41c-5.48,-6.62 -10.98,-13.22 -16.52,-19.78 -4.4,-5.2 -8.81,-10.37 -13.25,-15.53l0.02 30.58 -11.38 5.68 -0.03 -49.02 -4.16 -4.55 1.52 -1.04c2.21,-1.53 4.41,-3.09 6.58,-4.69 2.16,-1.59 4.3,-3.21 6.41,-4.87l1.27 -0.99 0.99 1.27c5.22,6.72 10.55,13.35 16.05,19.85 3.89,4.6 7.86,9.15 11.94,13.59zm373.5 31.6c-3.06,0 -5.74,-1.12 -7.91,-3.29 -2.16,-2.16 -3.29,-4.84 -3.29,-7.9 0,-3.06 1.12,-5.74 3.28,-7.91 2.17,-2.16 4.86,-3.28 7.92,-3.28 3.06,0 5.75,1.12 7.91,3.28 2.16,2.17 3.29,4.85 3.29,7.91 0,3.06 -1.13,5.74 -3.29,7.9 -2.16,2.17 -4.85,3.29 -7.91,3.29zm-259.3 -63.81c4.9,0 9.92,0.17 14.77,0.86 3.27,0.46 6.94,1.22 9.91,2.71 4.66,2.35 8.66,5.65 11.31,10.2 2.72,4.68 3.66,10.11 3.67,15.46 0,9.2 -2.65,17.67 -10.2,23.35 -8.23,6.19 -20.35,7.51 -30.33,7.52l-14.2 0.01 -3.66 -3.33 0.04 -0.75c0.78,-17.22 0.81,-34.44 -0.04,-51.65l-0.04 -0.74 3.81 -3.63 14.96 -0.01zm74.15 35.6c3.41,4.1 7.04,8.02 10.82,11.78l1.28 1.26 -1.4 1.13c-3.73,3 -7.32,6.17 -10.83,9.43l-1.09 1.02 -1.09 -1.01c-3.53,-3.27 -7.13,-6.45 -10.91,-9.42l-1.42 -1.12 1.28 -1.28c3.8,-3.78 7.43,-7.73 10.9,-11.81l1.24 -1.45 1.22 1.47zm-0.42 -8.64c-7.92,11.17 -15.33,22.72 -22.34,34.49l-1.27 2.14 -7.06 -10.12 0.61 -0.91c7.99,-11.91 15.87,-23.9 23.4,-36.11l-5.69 -8.18 1.39 -0.9c1.81,-1.18 2.86,-2.41 4.08,-4.15 1.52,-2.15 2.72,-3.75 4.88,-5.36l1.44 -1.08 0.9 1.55c10.56,18.06 25.02,33.75 36.69,51.1l0.92 1.38 -1.4 0.88c-4.85,3.05 -9.47,6.49 -13.89,10.14l-1.48 1.23 -0.94 -1.67c-6.54,-11.6 -13.3,-23.07 -20.24,-34.43zm50.78 -16.91l-11.3 0 -4.36 -10.08 2.54 0.09c15.8,0.55 31.6,0.43 47.41,0.01l2.55 -0.07 -4.47 10.02 -11.29 0.01c-1.24,16.04 -1.1,32.23 -0.12,48.27l0.11 1.83 -1.83 -0.13c-4.89,-0.33 -9.79,-0.32 -14.68,0.02l-0.69 0.04 -3.69 -3.39 0.05 -0.76c0.93,-15.25 0.98,-30.62 -0.23,-45.86zm62.82 -0.85l-0.3 15.14c1.09,-0.77 2.17,-1.55 3.25,-2.34 2.12,-1.56 4.2,-3.16 6.27,-4.79l1.29 -1.01 0.98 1.3c1.48,1.95 3.02,3.86 4.61,5.71 1.56,1.81 3.17,3.56 4.84,5.26l1.31 1.34 -1.52 1.09c-2.08,1.5 -4.14,3.03 -6.16,4.61 -1.81,1.4 -3.57,2.87 -5.27,4.4l-1.21 1.09 -1.07 -1.23c-1.56,-1.78 -3.17,-3.51 -4.81,-5.2 -0.82,-0.85 -1.66,-1.69 -2.5,-2.51l0.32 18.38c6.29,-0.01 12.57,-0.08 18.85,-0.5l1.05 -0.07 5.36 10.31 -2.79 -0.13c-12.63,-0.59 -25.33,-0.61 -37.96,-0.06l-0.65 0.03 -3.71 -3.35 0.03 -0.76c0.79,-17.22 0.83,-34.44 -0.03,-51.65l-0.04 -0.73 3.86 -3.75 0.69 0.03c11.78,0.48 23.56,0.48 35.34,-0.02l2.68 -0.12 -4.75 9.86 -1.07 -0.05c-5.62,-0.29 -11.26,-0.43 -16.89,-0.28zm25.38 49.11l-3.14 -8.44 3.31 1.25c3.38,1.29 8.08,0.74 10.37,-2.31 3.45,-4.61 2.18,-16.2 2.18,-21.86 -0.01,-7 1.19,-14.58 5.62,-20.23 4.07,-5.22 9.78,-7.38 16.32,-7.38 3.94,0 7.5,0.92 11.03,2.64l0.56 0.27 2.98 7.49 -2.87 -0.54c-3.92,-0.73 -8.66,-1.19 -11.01,2.79 -1.93,3.27 -2.18,9.12 -2.17,12.81 0,6.38 0.55,13.02 -0.88,19.29 -1.44,6.3 -5.45,11.26 -11.26,14.06 -3.28,1.58 -6.83,2.22 -10.45,2.22 -3.42,0.01 -6.8,-0.42 -9.96,-1.79l-0.63 -0.27zm-211.88 -6.46c4.98,-0.53 9.64,-2.24 13.01,-6.16 3.94,-4.56 5.03,-10.84 5.02,-16.69 0,-5.54 -1.05,-11.55 -4.94,-15.75 -3.43,-3.69 -8.24,-5.08 -13.11,-5.39 -0.58,14.65 -0.55,29.34 0.02,43.99z"/>
   <path class="fil0 str0" d="M4.41 132.52l-1.67 -4.49c4.08,1.57 9.53,0.75 12.23,-2.85 1.78,-2.39 2.67,-6.04 2.67,-10.98 -0.01,-10.31 -1.6,-22.5 5.11,-31.09 3.52,-4.49 8.54,-6.75 15.05,-6.75 3.72,0 7,0.86 10.34,2.48l1.67 4.2c-4.67,-0.89 -9.93,-1.15 -12.7,3.55 -4.05,6.88 -1.26,23.8 -3.23,32.55 -0.62,2.7 -1.65,4.99 -3.05,6.89 -2.04,2.68 -4.49,4.71 -7.34,6.09 -2.87,1.37 -6.11,2.05 -9.76,2.06 -3.19,0 -6.37,-0.38 -9.32,-1.66zm91.78 -55.78l-3.12 6.48c-6.1,-0.32 -12.44,-0.47 -18.55,-0.22l-0.39 19.81c1.9,-1.31 3.86,-2.7 5.86,-4.17 2.02,-1.48 4.11,-3.08 6.32,-4.82 1.52,1.99 3.07,3.94 4.67,5.78 1.59,1.86 3.23,3.64 4.91,5.34 -2.22,1.6 -4.29,3.16 -6.21,4.64 -1.91,1.49 -3.71,2.99 -5.36,4.48 -1.54,-1.77 -3.17,-3.51 -4.86,-5.26 -1.7,-1.75 -3.48,-3.48 -5.33,-5.21l0.42 23.8c7,0 13.48,-0.03 20.53,-0.5l3.59 6.9c-12.56,-0.58 -25.54,-0.6 -38.1,-0.06l-2.66 -2.4c0.8,-17.35 0.84,-34.46 -0.03,-51.81l2.85 -2.76c11.92,0.49 23.54,0.49 35.46,-0.02zm7.92 8.42c1.66,-3.18 10.33,-7.05 14.18,-10.02 2.28,5.37 4.94,11.14 7.99,17.31 3.03,6.15 6.41,12.61 10.09,19.37l14.91 -36.53 6.84 5.32c-4.06,8.9 -7.81,17.77 -11.25,26.62 -3.44,8.84 -6.57,17.66 -9.39,26.45 -2.91,-0.18 -5.57,-0.21 -8.48,0.01 -3.96,-8.65 -8.01,-17 -12.16,-25.08 -4.14,-8.08 -8.39,-15.89 -12.73,-23.45zm103.19 -8.5l-3.12 6.49c-6.13,-0.32 -12.42,-0.45 -18.55,-0.23l-0.39 19.82c1.9,-1.31 3.86,-2.7 5.86,-4.17 2.01,-1.47 4.11,-3.09 6.32,-4.83 1.51,2.01 3.07,3.95 4.67,5.79 1.58,1.86 3.23,3.64 4.9,5.34 -2.21,1.6 -4.28,3.16 -6.2,4.64 -1.92,1.49 -3.71,2.99 -5.36,4.48 -1.54,-1.77 -3.17,-3.51 -4.86,-5.26 -1.7,-1.75 -3.48,-3.48 -5.33,-5.22l0.42 23.81c7,0 13.48,-0.03 20.53,-0.5l3.59 6.9c-12.56,-0.58 -25.54,-0.6 -38.11,-0.06l-2.65 -2.4c0.79,-17.36 0.83,-34.45 -0.03,-51.81l2.84 -2.76c11.93,0.49 23.54,0.49 35.47,-0.03zm26.02 20.48l0.02 33.91 -8.17 4.07 -0.03 -47.04 -3.33 -3.65c2.25,-1.56 4.45,-3.11 6.62,-4.71 2.17,-1.58 4.32,-3.23 6.46,-4.9 5.52,7.1 10.87,13.73 16.08,19.89 5.22,6.16 10.14,11.71 14.78,16.65l-0.02 -32.21 8.08 -4.11 0.03 45.74 3.76 4.06c-2.16,1.8 -4.2,3.59 -6.13,5.4 -1.93,1.8 -3.77,3.64 -5.54,5.51 -5.59,-6.77 -11.1,-13.37 -16.53,-19.8 -5.43,-6.41 -10.79,-12.68 -16.08,-18.81zm145.02 -20.47c5.7,-0.01 10.54,0.27 14.55,0.84 3.98,0.56 7.12,1.42 9.4,2.56 4.81,2.44 8.35,5.63 10.65,9.57 2.3,3.94 3.45,8.83 3.45,14.65 0.01,9.93 -3.18,17.27 -9.56,22.07 -6.37,4.79 -16.16,7.19 -29.36,7.19l-13.58 0.02 -2.64 -2.41c0.79,-17.35 0.82,-34.45 -0.04,-51.8l2.81 -2.68 14.32 -0.01zm-0.7 51.97c6.9,-0.38 12.15,-2.66 15.76,-6.84 3.61,-4.18 5.41,-10.09 5.41,-17.74 -0.01,-7.37 -1.81,-13 -5.38,-16.84 -3.57,-3.86 -8.84,-5.84 -15.82,-5.97 -0.66,15.74 -0.64,31.65 0.03,47.39zm73.62 -16.96c3.44,4.15 7.1,8.1 10.92,11.9 -3.77,3.04 -7.37,6.21 -10.91,9.51 -3.58,-3.31 -7.17,-6.49 -11.01,-9.5 3.83,-3.81 7.49,-7.8 11,-11.91zm-0.23 -37.48c10.18,17.41 25.48,34.45 36.74,51.19 -4.9,3.08 -9.6,6.58 -14.06,10.27 -6.95,-12.31 -14.15,-24.5 -21.53,-36.55 -8.48,11.8 -16.39,24.1 -23.83,36.58l-5.01 -7.17c8.2,-12.22 16.28,-24.52 23.99,-37.06l-5.35 -7.69c4.66,-3.02 4.6,-6.25 9.05,-9.57zm86.15 2.53l-3.01 6.75 -11.72 0.01c-1.37,16.53 -1.25,33.41 -0.25,49.97 -4.97,-0.34 -9.92,-0.33 -14.9,0.01l-2.62 -2.4c0.96,-15.78 0.98,-31.81 -0.35,-47.57l-11.72 0 -2.94 -6.78c15.98,0.56 31.54,0.44 47.51,0.01zm48.58 -0.28l-3.12 6.48c-6.15,-0.31 -12.39,-0.45 -18.54,-0.22l-0.39 19.81c1.9,-1.31 3.86,-2.7 5.86,-4.17 2.01,-1.47 4.11,-3.09 6.31,-4.82 1.52,2 3.08,3.94 4.68,5.79 1.58,1.86 3.22,3.63 4.9,5.34 -2.22,1.59 -4.29,3.15 -6.21,4.64 -1.91,1.49 -3.7,2.99 -5.35,4.47 -1.54,-1.76 -3.17,-3.51 -4.87,-5.26 -1.69,-1.75 -3.47,-3.48 -5.32,-5.21l0.42 23.8c6.98,0 13.55,-0.03 20.53,-0.5l3.59 6.9c-12.56,-0.58 -25.55,-0.6 -38.11,-0.06l-2.65 -2.4c0.79,-17.34 0.83,-34.46 -0.04,-51.8l2.85 -2.77c11.93,0.49 23.54,0.49 35.46,-0.02zm6.56 55.72l-1.67 -4.49c4.07,1.55 9.5,0.78 12.22,-2.85 3.84,-5.12 2.5,-16.31 2.5,-22.82 0,-8.32 1.76,-14.73 5.28,-19.24 3.52,-4.51 8.54,-6.76 15.06,-6.76 3.71,0 7.01,0.86 10.33,2.47l1.67 4.21c-4.66,-0.88 -9.92,-1.15 -12.69,3.55 -1.6,2.71 -2.4,7.24 -2.4,13.62 0,6.19 0.52,12.91 -0.83,18.93 -1.35,5.8 -5.01,10.38 -10.4,12.98 -2.86,1.37 -6.11,2.05 -9.75,2.06 -3.2,0 -6.36,-0.38 -9.32,-1.66z"/>
   <path class="fil1" d="M648.85 127.03c0.23,0.83 0.34,1.7 0.34,2.61 0,2.61 -0.95,4.9 -2.82,6.76 -1.87,1.88 -4.15,2.83 -6.77,2.83 -0.92,0 -1.79,-0.12 -2.62,-0.35 0.22,0.01 0.44,0.02 0.66,0.02 3.07,0 5.76,-1.13 7.93,-3.3 2.16,-2.17 3.29,-4.86 3.29,-7.92 0,-0.22 0,-0.43 -0.01,-0.65zm-16.35 8.75l0.04 0.03zm0.02 0.01l0.01 0 -0.01 0 0 0zm0.01 0l0 0.01 0 -0.01zm0 0.01l0.01 0 0 0 -0.01 0zm0.03 0.01l0 0.01 0 -0.01 0 0zm0 0.01l0.01 0zm0.01 0.01l0.01 0 -0.01 0 0 0zm0.01 0l0.01 0.01 -0.01 -0.01 0 0zm0.01 0.01l0 0 0 0zm0 0l0.01 0 0 0 -0.01 0zm0.01 0.01l0.01 0 0 0 -0.01 0 0 0zm0.04 0.02l0.01 0.01 -0.01 -0.01 0 0 0 0zm0.01 0.01l0.01 0 0 0 -0.01 0zm0.01 0l0.01 0.01 0 0zm0 0l0.05 0.03 0.01 0 0 0.01 0 0zm0.01 0.01l0.01 0 0 0zm0.01 0l0 0.01 0 0zm0.02 0l0 0.01 0 0zm-221.82 -49.14l0 0 0 0 0.03 0.04 -0.03 -0.04zm5.28 6.2c2.24,3.92 3.36,8.75 3.36,14.51 0.01,9.92 -3.18,17.27 -9.55,22.06 -6.37,4.79 -16.17,7.19 -29.37,7.19l-13.58 0.02 -1.79 -1.64 12.11 -0.01c9.98,-0.01 22.11,-1.33 30.35,-7.52 7.55,-5.68 10.21,-14.16 10.2,-23.37 0,-3.81 -0.48,-7.66 -1.73,-11.24zm-27.2 -7.29c-2.41,-0.78 -5.15,-1.19 -8.22,-1.25 -0.59,14 -0.64,28.14 -0.17,42.17 -0.5,0.08 -1,0.15 -1.5,0.2 -0.58,-14.63 -0.6,-29.3 -0.03,-43.94 3.5,0.23 6.97,1.01 9.92,2.82zm74.26 38.97c0.69,0.71 1.39,1.41 2.09,2.11 -3.77,3.04 -7.37,6.21 -10.91,9.51 -0.73,-0.68 -1.47,-1.35 -2.2,-2.02l0.05 -0.05c3.5,-3.26 7.1,-6.43 10.83,-9.43l0.14 -0.12zm26.06 1.55c0.55,0.79 1.09,1.58 1.62,2.37 -4.9,3.08 -9.6,6.58 -14.06,10.27l-1.48 -2.62c4.19,-3.42 8.57,-6.65 13.15,-9.53l0.77 -0.49zm-35.69 -21.5c-1.83,2.59 -3.63,5.2 -5.41,7.83 -2.96,3.38 -6.01,6.66 -9.19,9.82l-1.31 1.3 1.45 1.14 0.67 0.53c-2.84,4.48 -5.61,9 -8.32,13.55l-1.78 -2.55c6.98,-11.72 14.35,-23.21 22.24,-34.34l1.65 2.72zm86.72 -24.79l-3.01 6.75 -11.72 0.01c-1.37,16.53 -1.25,33.41 -0.24,49.97 -4.98,-0.34 -9.93,-0.33 -14.91,0.02l-1.87 -1.72c4.47,-0.25 8.94,-0.23 13.4,0.07l1.85 0.12 -0.11 -1.85c-0.97,-16.04 -1.12,-32.21 0.13,-48.24l11.27 -0.01 2.25 -5.04 2.96 -0.08zm-37.49 6.77l-7.08 0 -0.71 -1.63 7.67 0 0.12 1.63zm86.08 -7.05l-3.13 6.48c-6.15,-0.31 -12.39,-0.45 -18.54,-0.22l-0.24 12.15c-0.57,0.41 -1.15,0.82 -1.72,1.23l0.3 -15.06c5.62,-0.16 11.25,-0.02 16.86,0.27l1.08 0.06 2.31 -4.79c1.02,-0.03 2.05,-0.07 3.08,-0.12zm-2.35 26.08c0.68,0.72 1.36,1.43 2.04,2.13 -2.22,1.59 -4.29,3.15 -6.2,4.64 -1.92,1.49 -3.71,2.99 -5.36,4.47 -0.65,-0.74 -1.31,-1.47 -1.99,-2.21 1.65,-1.47 3.34,-2.88 5.08,-4.23 2.03,-1.58 4.08,-3.11 6.16,-4.61l0.27 -0.19zm-17.51 2.87l-0.01 -0.01 -0.05 -0.06 0.06 0.07zm-2.16 0.11l0.29 16.7 -1.57 0 -0.32 -18.29c0.53,0.53 1.07,1.06 1.6,1.59zm23.71 26.48l0.79 1.52c-12.56,-0.59 -25.55,-0.61 -38.11,-0.07l-1.86 -1.68c12.19,-0.49 24.44,-0.45 36.63,0.11l2.55 0.12zm4.86 0.18l-0.22 -0.58c2.05,0.45 4.15,0.61 6.28,0.61 3.62,0 7.18,-0.65 10.46,-2.23 5.82,-2.79 9.84,-7.77 11.28,-14.07 1.43,-6.28 0.87,-12.92 0.87,-19.3 0,-3.68 0.25,-9.54 2.17,-12.8 2.34,-3.97 7.07,-3.51 10.99,-2.77l2.91 0.55 -1.28 -3.22 0.26 0.12 1.67 4.21c-4.66,-0.88 -9.92,-1.15 -12.69,3.55 -1.6,2.71 -2.4,7.25 -2.4,13.62 0,6.19 0.52,12.91 -0.83,18.93 -1.34,5.8 -5.01,10.38 -10.4,12.98 -2.86,1.37 -6.11,2.06 -9.75,2.06 -3.2,0 -6.36,-0.38 -9.32,-1.66z"/>
   <path class="fil4" d="M637.64 120.04c-2.12,0 -3.89,0.73 -5.4,2.24 -1.52,1.52 -2.25,3.28 -2.25,5.4 0,2.12 0.74,3.88 2.25,5.4 1.52,1.51 3.29,2.25 5.4,2.25 2.12,0 3.89,-0.74 5.4,-2.25 1.51,-1.52 2.25,-3.29 2.25,-5.4 0,-2.11 -0.74,-3.88 -2.25,-5.4 -1.51,-1.51 -3.28,-2.24 -5.4,-2.24zm-0.59 6.97l-1.68 0 0 -2.77 1.88 0c1.41,0 2.12,0.44 2.12,1.31 0,0.55 -0.17,0.94 -0.52,1.14 -0.36,0.21 -0.95,0.32 -1.8,0.32zm3.92 3.74c-0.54,-0.91 -0.93,-1.5 -1.17,-1.77 -0.23,-0.26 -0.56,-0.47 -0.99,-0.62l0 -0.05c0.85,-0.11 1.53,-0.42 2.01,-0.93 0.49,-0.51 0.73,-1.13 0.73,-1.87 0,-0.92 -0.29,-1.63 -0.88,-2.13 -0.59,-0.5 -1.43,-0.75 -2.53,-0.75l-4.82 0 -0.02 10.17 2.07 0 0 -4.17 0.54 0c0.63,0 1.14,0.18 1.52,0.54 0.38,0.36 0.83,1.01 1.33,1.96l0.88 1.67 2.52 0 -1.19 -2.05zm-3.33 6.52c-2.62,0 -4.9,-0.95 -6.77,-2.82 -1.87,-1.87 -2.83,-4.15 -2.83,-6.77 0,-2.63 0.95,-4.9 2.82,-6.77 1.88,-1.87 4.16,-2.81 6.78,-2.81 2.63,0 4.9,0.94 6.78,2.81 1.86,1.87 2.81,4.15 2.81,6.77 0,2.62 -0.95,4.9 -2.81,6.77 -1.88,1.87 -4.15,2.82 -6.78,2.82z"/>
   <path class="fil2" d="M299.8 59.18l0.02 1.69 -0.02 0 0 0.06 -1.42 0 -3.44 11.26 0.09 -5.48 -0.43 -1.71 -1.53 4.48 -0.29 -1.07 -1.6 4.71 -0.31 -1.16 -2.49 6.65 -0.16 -2.83 -0.98 2.51 -0.65 -6.55 -3.98 3.21 2.06 -5.48c0.03,-0.08 0.06,-0.16 0.09,-0.25l-2.79 4.63 0 -0.66 -1.47 2.78 0 -0.69 -1.37 2.93 0.41 -8.14 -0.01 0.01 0.01 -0.01 0 -0.02c0,-0.15 0.02,-0.31 0.03,-0.46l-3.81 0.61 2.35 -2.84 -3.17 1.27 2.81 -3.02 -2.53 0.73 3.51 -3.04 -0.31 0.05 -0.97 0.69 0.78 -2.9 -2.19 0.28 1.38 -0.64 -5 1.04 2 -1.83 -3.32 0.76 3.41 -2.56 -4.37 0.77 6.1 -3.38 -2.77 0.03 3.31 -1.52 -0.68 -0.01 2.51 -1.07 0.03 -0.38c-0.31,0.06 -0.63,0.09 -0.96,0.11l-5.37 0.25 1.06 -0.76 -3.68 0.59 3.91 -2.49 -3 0.26 4.84 -2.73 -3.75 -0.39 5.68 -1.69 -2.27 -0.68 3.69 -0.98 0.17 -0.3 -3.02 0.56 1.12 -1.45 -0.15 -0.05 0.21 -0.02 0.36 -0.47 -3.76 0.3 4.64 -3.13 -1.25 -1.07 1.4 -0.3 -3 -2.2 2.06 0.16 -0.57 -0.33 4.57 0.01 -0.76 -0.78 2.39 0.1 -0.6 -0.76 3.42 0.47 -0.04 -0.1 -0.25 0.01 0.21 -0.12 -0.45 -1.19 1.58 0.56 0.13 -0.07 -0.13 -0.26 -0.62 -0.12 0.52 -0.08 -0.14 -0.25 -2.24 0.07 0.82 -0.45 -0.25 0.01 0.85 -0.83 -0.02 -0.02 -8.72 -0.65 4.32 -1.03 -0.83 -0.13 1.69 -0.65c-0.09,-0.03 -0.19,-0.06 -0.28,-0.09l-6.07 -1.87 4.71 -0.93 -0.49 -0.44 3.16 -0.6c0.09,-0.02 0.17,-0.03 0.25,-0.05l-1.36 -1.38 3.32 0.4 -1.55 -2.02 3.37 1.19 -1.19 -1.71 3.24 1.44 2.49 -0.63 -0.37 -1.06 -0.7 -0.29 -4.19 -0.8 3.14 -1.09 -4.26 -1.09 5.17 -1.02 -4.18 -3.77 6.15 1.59 -1.19 -2.53 2.06 1.16 -1.66 -2.62 3.21 2.09 -0.02 -0.03 3.33 1.91 -2.29 -4.33 4.31 3.9 -0.48 -1.26 4.09 3.78 -0.3 -3.33 3.25 4.98 0.26 0.14 -0.04 -1.83 -1.62 -2.21 1.59 0.81 -0.02 -1.14 -1.8 -3.07 2.63 1.77 -1.3 -2.82 1.26 0.88 -1.8 -4.15 3.87 3.64 0.23 -0.16 0.8 -0.6c0.12,-0.62 0.27,-1.23 0.46,-1.83l2.55 -8.16 0.23 3.4 0.69 3.92 1.25 -3.23 0 3.39 0.01 -0.15 0.43 0.89 0.18 -0.35 0 0.74 0.42 0.87 0.6 -1.34 -0.8 -2.02 2.46 2.66 -0.88 -3.49 1.25 1.47 -0.77 -3.52 0.95 1.31 1.93 1.91 -0.31 -6.7 2.47 4.56 2.09 -3.64 -0.04 6.07c0,0.08 0,0.15 0,0.23l0.86 -0.61 1.98 -2.45 -0.28 1.19 0.2 -0.29 -0.7 4.25 3.22 -3.72 -1.59 3.97 0.35 0.79 0.19 -0.16 -0.01 -0.38 0.14 0.27 1.39 -1.17 -1.02 1.84 0.39 0.71 0.31 -0.28 0.11 0.71 0.22 -1.87 0 -4.75 0.61 1.38 0 -1.72 1.15 1.96 0.43 -6.98 2.58 8.48c0.14,0.46 0.26,0.91 0.35,1.37l4.41 -4.61 -1.99 5.18 2.44 -1.96 -2.04 4.32 1.62 -0.75 -1.27 2.18 0.84 -0.42 0.15 -0.41 -0.01 0.34 1.22 -0.61 0.83 -1.89 -0.42 3.6 0.92 -0.51 -1.01 1.25 -0.16 1.4 2.99 -4.42 -0.85 4.29 4.8 -4.64 -1.09 2.35 4.32 -3.7 -2.61 4.41 0.58 -0.32 4.96 -3.36 -1.71 3.05 4.71 -2.2 -2.26 2.76 4.98 -1.1 -3.91 3.38 5.18 0.91 -3.43 0.93 3.62 0.74 -4.79 1.17 -1.14 0.44 -0.45 1.19 0.96 0.23 3.36 -1.83 -1.45 2.03 2.16 -0.99 -0.94 1.54 0.19 0.05 4.45 -1.42 -1.81 1.91 2.02 -0.36 -1.2 1.53c0.22,0.01 0.44,0.03 0.67,0.06l5.14 0.65 -0.76 0.39 4.56 0.27 -7.73 2.62c-0.34,0.12 -0.68,0.23 -1.02,0.35l0.01 0.22 4.11 1.1 -6.58 0.75 0.32 0.28 -3.53 0.41 -0.06 0.07 1.17 0.08 -1.12 0.39 0.3 0.19 4.37 -1.15 -0.97 0.79 1.68 -0.53 -2.32 2.19 5.84 -1.07 -1.5 1.16 2.2 -0.25 -1.68 1.34 5.38 0.07 -0.74 0.34 0.96 -0.04 -2.95 2 1.14 0.23 -1.21 1.13 4.64 3.48 -2.95 -0.41 -0.07 0.02 1.2 1.22 -3.25 -0.21 0.24 0.38 7.53 1.79 -4.55 0.45 3.96 1.21 -3.74 0.38 4.37 2.54 -2.27 -0.17 4.68 2.74 -6.11 -1 -2.43 0.63c-0.25,0.07 -0.5,0.1 -0.76,0.1l1.74 0.61 -1.72 0 3.9 1.71 -1.33 -0.11 3.77 1.87 -3.35 -0.45 3.68 2.14 -3.82 -0.58 3.5 2.77 -2.79 -0.66 1.78 1.66 -5.42 -1.02c-0.16,-0.03 -0.32,-0.06 -0.48,-0.1 -0.1,0.27 -0.29,0.53 -0.57,0.75 -0.45,0.36 -0.94,0.45 -1.4,0.36l0 0.01 5.9 4.9 -3.3 -0.98 2.39 2.69 -1.68 -0.65 0.73 0.84 -0.77 -0.14 1.33 1.55 -3.62 -0.32c0.03,0.17 0.05,0.34 0.07,0.52l0.01 0.11 0.45 0.44 -0.43 -0.21 0 0.07 0.44 0.39 -0.42 -0.15 0.41 4.58 -2.54 -3.14 -0.25 0.66 -0.2 -0.3 0 1.43 -2.65 -4.45 0 0.61 1.2 3.8 -3.24 -2.29 -0.35 7.4 -1.12 -2.82 -0.07 2.72 -2.5 -6.5 -0.31 1.71 -1.95 -6.17c-0.26,-0.83 -0.49,-1.67 -0.7,-2.52 -0.09,-0.03 -0.18,-0.08 -0.27,-0.14 -0.16,0.17 -0.36,0.3 -0.6,0.38 -1.2,0.44 -1.79,-0.32 -2.11,-1.11 -0.08,-0.2 -0.16,-0.4 -0.24,-0.6 -0.02,-0.06 -0.04,-0.11 -0.07,-0.17l-0.87 0.17 -0.36 -1.48c0,-0.03 -0.01,-0.06 -0.01,-0.08l-1.6 0.39 -0.45 -1.43c-0.03,-0.1 -0.06,-0.19 -0.1,-0.28l-1.02 0.19 1.66 7.28 -5.39 -9.56c-0.05,-0.09 -0.1,-0.17 -0.15,-0.26l-0.94 0.51 -0.76 -1.38c-0.54,-0.98 -1.63,-1.89 -2.85,-2.66l-2.26 1.29 1.27 2.18 -2.78 0c-0.41,0 -0.82,-0.01 -1.22,-0.01 -0.61,1.11 -1.38,2.01 -1.97,2.81 -0.03,0.16 -0.02,0.36 -0.04,0.52 -0.1,1.07 -0.54,2 -1.29,2.73 -0.59,2.32 -0.68,10.47 -0.77,12.81 -0.06,1.61 -0.2,10.02 -0.69,13.27 0.39,0.61 0.32,1.31 0.19,2.14 -0.04,0.22 -0.15,0.69 -0.08,0.92 0.25,0.88 0.02,1.4 -0.25,2.07 0.67,0.89 0.71,2.02 0.24,3.13 0.75,0.96 0.69,2.16 0.35,3.31 -0.08,0.28 -0.17,0.55 -0.28,0.83 0.82,0.73 1,1.7 0.53,3.02 -0.04,0.1 -0.14,0.39 -0.08,0.58 0.75,1.18 0.63,2.45 0.12,3.66 0.66,1.07 0.56,2.43 0.02,3.57 0.85,1.81 1.17,3.65 0.52,5.5 0.39,0.47 0.65,1.02 0.77,1.63 0.46,0.43 0.74,0.92 0.9,1.46l0.34 -0.13 0.63 1.3c0.06,0.13 0.12,0.26 0.17,0.38l0.26 -0.12c0.06,-0.03 0.13,-0.06 0.19,-0.09l2.19 -6.3 0.28 5.32 0.73 -0.3 -0.63 2.17 0.04 0.83 0.68 0.55 6.17 -8.15 -2.19 5.83 4 -3.55 -3.65 6.95 0.38 0.41 1.53 -1.01 -0.06 0.71 3.97 -3.45 -1.82 4.37 0.49 0.52 0.81 -0.4 0.02 0.71 1.77 -0.89 -0.07 1.59c0.19,0.08 0.36,0.19 0.51,0.32 0.97,0.16 1.91,0.29 2.86,0.58l10.11 3.18 -10.6 -0.05c-19.36,-0.1 -38.73,0.05 -58.09,-0.08l4.12 -3.14c0.3,-0.07 0.59,-0.14 0.89,-0.2l-1.89 -2.11 2.99 0.81 -0.18 -0.32 2.33 0.39 -2.89 -4.06 4.74 2.55 -0.68 -1.71 -2.17 -2.28 1.58 0.79 -0.14 -0.35 0.79 0.68 0.9 0.45 -0.16 -0.36 1.37 0.96 2.73 1.36 -0.28 -0.55 1.14 -0.78 -2.99 -6.96 6.01 6.95 0.11 0.03 -1.06 -4.89 1.6 2.01 -0.26 -0.94 0.69 0.35 -0.1 -3.6 2.49 4.81 0.14 0.08c0.1,0.05 0.19,0.1 0.45,0.26l0.14 0.09c0.02,-0.06 0.05,-0.11 0.07,-0.17l2.69 -5.97c-0.25,-1.4 0.01,-2.81 0.72,-4.2 -0.54,-1.26 -0.55,-2.53 0.22,-3.65 -0.27,-0.93 -0.35,-1.83 0.04,-2.8 0.12,-0.31 0.22,-0.56 0.4,-0.78 -0.47,-1.13 -0.4,-2.25 0.26,-3.12 -0.33,-0.76 -0.56,-1.51 -0.55,-2.41 0.01,-0.7 0.19,-1.35 0.54,-1.92 -0.33,-0.68 -0.51,-1.36 -0.32,-2.22 0.1,-0.47 0.3,-0.9 0.58,-1.26 -0.03,-0.06 -0.06,-0.12 -0.09,-0.19 -0.29,-0.58 -0.36,-1.2 -0.16,-1.76 -0.12,-0.24 -0.22,-0.48 -0.31,-0.74 -0.29,-0.79 -0.32,-1.56 0.06,-2.2 -0.66,-4.35 -0.43,-20.94 -0.81,-25.67 -0.79,-0.65 -1.36,-1.49 -1.72,-2.46 -0.57,-1.54 -1.23,-3.08 -2.36,-4.3 -0.44,-0.48 -0.94,-0.9 -1.45,-1.3l-2.3 -1.84 1.24 -0.41 -0.91 -1.09c-1.97,0.47 -4.01,1.26 -5.42,2.28l-1.21 0.89 -0.67 -0.81 -2.83 1.43c-0.07,0.12 -0.13,0.25 -0.18,0.38l-0.59 1.38 -0.52 -0.18c0,0.03 -0.01,0.06 -0.01,0.1zm35.49 -5.65c-0.09,-0.03 -0.17,-0.06 -0.26,-0.09 -0.1,0.02 -0.2,0.04 -0.29,0.05 0.01,0.02 0.02,0.04 0.03,0.06 0.17,-0.02 0.34,-0.02 0.52,-0.02zm-27.61 -38.04l0.34 0.83 0.21 0.11 -0.55 -0.94zm10.36 -6.92l-0.09 2.38 0.47 0.98 0.47 -1.21 -0.85 -2.15zm24.16 5.45l-0.87 1.27 -0.02 0.47 0.16 -0.09 0.73 -1.65zm13.34 8.24l-0.5 0.19 0.23 0.06 0.27 -0.25z"/>
   <path class="fil1" d="M353.05 48.45c-1.11,-0.14 -2.14,0.44 -3.28,0.39 0.2,-0.3 0.57,-0.24 0.89,-0.52 -1.43,0 -2.66,0.44 -4.03,0.71 0.58,-0.45 1.16,-0.65 1.68,-0.97 -1.22,0.12 -2.2,1.06 -3.46,1.01 1.2,-0.7 2.34,-1.59 3.9,-1.28 -0.21,-0.15 -0.42,-0.3 -0.63,-0.45 1.74,-0.05 3.26,0.84 4.93,1.11zm-15.08 1.15c-2.2,0.53 -4.42,1.04 -6.42,2.2 -1.14,0.65 -2.16,1.47 -3.18,2.28 3.48,-4.47 8.41,-5.75 13.72,-6.2 -1.32,0.7 -2.65,1.37 -4.12,1.72zm-1.83 -5.03c0.04,0.34 -0.24,0.53 -0.39,0.72 -0.53,0.69 -1.03,1.4 -1.4,2.19 -0.13,0.28 -0.3,0.43 -0.65,0.4 0.52,0.28 0.35,0.56 0.05,0.78 -0.38,0.27 -0.78,0.5 -1.19,0.72 -0.84,0.47 -1.57,1.1 -2.38,1.71 0.61,-1.5 4.38,-5.62 5.96,-6.52zm1.39 -0.85c0.05,0.05 0.1,0.09 0.15,0.13 -0.82,1.02 -1.65,2.03 -2.47,3.05 -0.04,-0.04 -0.09,-0.07 -0.13,-0.11 0.77,-1.05 1.18,-2.4 2.45,-3.07zm17.17 13.56c0.84,0.02 2.31,1.29 3.59,3.18 -1.11,-1.03 -2.51,-1.51 -3.85,-2.11 0.67,0 1.32,0.07 2.06,0.31 -0.57,-0.61 -1.26,-0.91 -1.8,-1.38zm-27.11 -8.71c-0.84,0.65 -1.27,1.49 -1.62,2.37 -0.34,0.87 -0.53,1.79 -0.72,2.71 -0.2,-0.39 -0.2,-0.81 -0.27,-1.26 -0.25,0.2 -0.3,0.5 -0.51,0.81 -0.02,-0.22 -0.03,-0.37 -0.04,-0.53 -0.01,-0.14 0.18,-0.26 0.06,-0.43 -0.26,0.16 -0.28,0.54 -0.6,0.67 0.19,-1.29 1.26,-2.76 4.14,-5.73 0.15,1.31 0.12,2.53 -0.24,3.72 -0.15,-0.74 -0.03,-1.5 -0.2,-2.33zm0.37 8.76c0.13,-0.05 0.25,-0.05 0.33,0.12 0.15,0.33 0.17,1.2 -0.01,1.64 -0.22,-0.18 -0.1,-0.44 -0.18,-0.62 -0.15,-0.12 -0.33,0.62 -0.45,-0.04 -0.04,-0.23 -0.25,-0.08 -0.37,-0.01 -0.16,0.1 -0.29,0.24 -0.44,0.35 -0.16,0.11 -0.17,0.35 -0.43,0.39 0.02,-1.13 0.75,-1.48 1.55,-1.83zm1.34 3.58c0.08,0.21 0.09,0.45 0,0.69 -0.3,-0.34 -0.72,-0.26 -1.08,-0.36 -0.41,-0.11 -0.38,-0.23 -1.21,-0.09 0.52,-0.54 0.98,-0.84 1.58,-0.93 0.51,-0.07 0.58,0.36 0.71,0.69zm2.38 -6.62c0.15,0.02 0.3,0.07 0.43,0.14 0.23,0.14 0.53,0.31 0.44,0.61 -0.08,0.26 -0.41,0.14 -0.61,0.12 -1.27,-0.1 -2.22,0.4 -2.9,1.44 -0.07,0.09 -0.11,0.21 -0.29,0.24 0.07,-0.92 2.08,-2.65 2.93,-2.55zm-0.2 3.13c0,-0.03 -0.01,-0.06 0,-0.09 0.11,-0.19 0.47,-0.32 0.34,-0.55 -0.15,-0.27 -0.45,-0.04 -0.67,0.01 -0.35,0.08 -0.69,0.21 -1.19,0.36 0.69,-0.79 1.51,-1.07 2.34,-1.45 0.15,1.15 0.09,1.27 -0.82,1.72zm-4.17 51.4c-1.66,0.16 -3.02,1.33 -4.85,1.22 0.65,-0.48 1.24,-0.85 2,-1.15 -0.32,-0.07 -0.52,-0.12 -0.74,-0.17 1,-0.69 2.83,-0.65 3.59,0.1zm0.8 8.57c-1.65,0.04 -3.18,0.97 -4.79,0.28 0.18,-0.37 0.69,-0.33 1.07,-0.57 -0.66,-0.21 -1.37,-0.04 -2.07,-0.44 1.34,-0.44 2.59,-0.1 3.84,-0.1 -1.32,-0.68 -2.7,-1.09 -4.31,-0.82 1.33,-1.21 2.33,-1.35 3.65,-0.43 0.92,0.63 1.74,1.38 2.61,2.08zm-5.24 1.74c0.35,-0.44 0.78,-0.66 1.3,-0.69 1.09,-0.05 2.97,1.14 3.44,2.22 -0.62,-0.41 -1.21,-0.77 -1.93,-0.66 -0.15,0.02 -0.35,-0.04 -0.41,0.13 -0.06,0.16 0.11,0.28 0.19,0.4 0.12,0.18 0.34,0.3 0.38,0.69 -1.05,-0.96 -2.17,-0.85 -3.36,-0.47 0.48,-0.8 1.39,-0.8 1.98,-1.37 -0.48,-0.39 -1.04,-0.13 -1.59,-0.25zm4.49 5.08c-1.88,-1.08 -3.67,-0.7 -5.42,0.31 0.51,-0.93 1.29,-1.47 2.26,-1.82 -0.9,-0.24 -1.79,-0.42 -2.73,-0.26 0.22,-0.53 0.7,-0.81 1.28,-0.72 0.63,0.11 1.26,0.26 1.72,0.75 0.23,0.24 0.46,0.13 0.69,0.09 0.73,-0.14 1.42,0 2.1,0.27 0.15,0.06 0.34,0.09 0.36,0.36 -0.55,0 -1.1,-0.17 -1.74,0.03 0.64,0.19 1.07,0.54 1.48,0.99zm-0.31 2.92c-0.91,-0.15 -1.81,-0.26 -2.71,-0.45 -1.49,-0.31 -2.97,-0.69 -4.59,-0.05 0.77,-1.06 1.73,-1.38 2.82,-1.21 1.51,0.24 2.94,0.76 4.31,1.45 0.07,0.04 0.18,0.07 0.17,0.26zm-4.4 1.42c0.63,-1.01 2.74,-1.45 3.7,-0.36 -1.32,-0.29 -2.45,0.49 -3.7,0.36zm1.52 -16.79c-0.38,-0.32 -1.1,-0.43 -2.08,-0.3 0.81,-1.33 4.21,-1.61 5.12,-0.33 -0.83,0.04 -1.63,0.03 -2.5,0.26 0.83,0.36 1.63,0.57 2.17,1.34 -1.38,0.09 -2.65,0.3 -3.89,0.76 0.21,-0.58 0.79,-0.82 2.42,-1.02 -1.13,-0.27 -2.24,-0.02 -3.46,0.16 0.67,-0.66 1.5,-0.63 2.22,-0.87zm-2.59 -62.93c-0.22,0.66 -0.23,1.27 -0.33,1.88 -0.36,-1.27 -0.22,-2.53 0,-3.82 0.63,1.04 1.3,2.07 1.9,3.13 0.6,1.05 0.58,2.17 0.15,3.47 -0.08,-1.81 -0.44,-3.36 -1.72,-4.66zm-2.6 11.82c-0.12,0.01 -0.31,-0.2 -0.51,-0.48 0.97,-0.4 3.04,0.44 3.53,1.47 -0.95,-0.65 -1.91,-1.06 -3.02,-0.99zm1.48 -12.81c-0.5,-1.08 -0.83,-2.11 -1.34,-3.06 -0.44,-0.81 -0.85,-1.64 -1.29,-2.46 -0.31,-0.57 0.13,-1.11 0.02,-1.69 1.97,1.83 3.24,4.06 4.21,6.49 -0.04,0.03 -0.09,0.06 -0.13,0.09 -0.17,-0.28 -0.32,-0.56 -0.5,-0.82 -0.18,-0.26 -0.4,-0.5 -0.64,-0.74 0.24,0.76 -0.17,1.39 -0.33,2.19zm-3.1 -10.59c1.99,1.94 3.78,4.05 4.37,7 -0.44,-0.69 -0.81,-1.32 -1.22,-1.92 -0.51,-0.73 -1.11,-1.38 -1.83,-1.92 -0.47,-0.36 -1.11,-0.62 -0.91,-1.45 -0.41,0.48 -0.25,1.1 -0.66,1.53 0.08,-1.1 0.17,-2.19 0.25,-3.24zm-0.7 -1.74c0.07,0.04 0.12,0.05 0.12,0.08 0.2,0.54 0.71,0.96 0.34,1.72 -0.27,0.54 -0.2,1.26 -0.51,1.86 0.1,-1.21 0,-2.43 0.05,-3.66zm2.58 -6.94c-0.34,-1.43 -0.07,-2.85 0.01,-4.3 0.18,0.33 0.35,0.65 0.54,0.99 -0.17,0.08 -0.25,-0.11 -0.42,-0.08 0.18,0.5 0.16,1.04 0.27,1.52 0.09,0.41 0.38,0.85 0.66,1.23 0.79,1.08 1.61,2.14 2.4,3.22 0.29,0.4 0.62,0.78 0.62,1.34 -0.62,-0.74 -1.24,-1.47 -1.86,-2.21 -0.02,0.99 -0.35,1.88 -0.59,2.78 -0.31,-1.27 0.22,-2.61 -0.36,-3.9 -0.14,0.77 -0.27,1.54 -0.4,2.31 -0.42,-1.34 0.05,-2.77 -0.52,-4.2 -0.14,0.5 -0.25,0.9 -0.35,1.3zm4.41 2.18c-0.97,-0.54 -3.19,-2.78 -3.37,-3.35 1.03,0.45 2.92,2.31 3.37,3.35zm-0.12 17.35c-0.55,-3.11 -1.18,-6.04 -2.22,-8.85 1.52,2.69 2.85,5.42 2.22,8.85zm-2.29 -12.25c0.89,1.52 1.59,3.09 2.06,4.9 -1.54,-1.36 -2.19,-2.95 -2.06,-4.9zm1.98 1.58c-0.62,-0.78 -1.24,-1.55 -1.87,-2.33 -0.15,-0.18 -0.16,-0.35 -0.1,-0.58 0.27,-1.01 0.48,-2.02 0.47,-3.1 0.57,1.23 1.38,2.34 1.78,3.65 -0.7,-0.41 -1.04,-1.13 -1.7,-1.7 0.4,1.44 1.26,2.62 1.42,4.06zm0.76 25.49c0.27,-0.32 0.68,-0.32 0.98,-0.56 -0.4,-0.22 -0.78,-0.08 -1.16,-0.08 0.63,-0.85 1.88,-0.47 2.74,0.87 -0.84,-0.37 -1.69,-0.15 -2.56,-0.23zm-0.68 -2.22c-0.07,-0.46 0.08,-0.75 0.16,-1.06 0.07,-0.32 0.23,-0.36 0.55,-0.26 1,0.33 1.47,1.09 1.78,2.01 -0.34,-0.5 -0.77,-0.95 -1.33,-1.13 -0.34,-0.12 -0.87,-0.16 -1.16,0.44zm2.3 30.5c-0.49,0.33 -1.03,0.25 -1.55,0.28 -0.17,0.02 -0.42,0.07 -0.46,-0.11 -0.05,-0.29 0.27,-0.16 0.44,-0.27 -0.28,-0.37 -0.66,-0.47 -1.09,-0.44 0.54,-0.78 1.74,-0.9 2.59,-0.22 -0.35,0.02 -0.64,0.04 -1.05,0.07 0.43,0.26 0.77,0.47 1.12,0.69zm-0.23 -33.71c-0.3,-0.05 -0.55,-0.1 -0.81,-0.12 -0.24,-0.03 -0.49,-0.06 -0.74,0.06 0.13,0.16 0.24,0.29 0.41,0.49 -0.48,-0.08 -0.74,-0.34 -1.03,-0.59 0.17,-0.18 0.44,-0.11 0.58,-0.31 -0.21,-0.38 -0.63,-0.16 -0.92,-0.28 0.84,-1.1 1.99,-1.16 2.5,-0.14 -0.17,0.13 -0.38,0.02 -0.6,0.12 0.15,0.28 0.48,0.41 0.61,0.77zm-2.78 36.91c0.37,-0.39 0.92,-0.47 1.44,-0.77 -0.3,-0.01 -0.53,-0.02 -0.79,-0.03 0.72,-0.74 2.64,-0.45 3.47,0.47 -1.32,0.54 -2.7,0.59 -4.12,0.33zm3.9 5.03c-1.11,0.63 -2.24,0.42 -3.4,0.3 1.46,-1.21 2.53,-1.3 3.4,-0.3zm-1.85 -2.36c-0.4,-0.2 -0.87,-0.17 -1.33,-0.3 0.52,-0.47 1.39,-0.47 1.94,0.01 0.22,0.19 0.64,0.36 0.56,0.66 -0.07,0.26 -0.5,0.15 -0.77,0.18 -0.6,0.07 -1.21,0.11 -1.9,0.05 0.47,-0.5 1.03,-0.43 1.53,-0.53 -0.01,-0.01 -0.01,-0.03 -0.03,-0.07zm-1.57 3.52c0.49,-0.48 1.6,-0.35 2.56,0.31 -0.08,0.26 -0.37,0.02 -0.48,0.21 0.22,0.22 0.53,0.28 0.79,0.44 0.26,0.16 0.52,0.3 0.73,0.66 -1.09,-0.13 -2.12,0.14 -3.16,-0.14 0.24,-0.3 0.61,-0.17 0.99,-0.3 -0.68,-0.29 -1.3,-0.28 -1.98,-0.14 0.24,-0.5 0.68,-0.67 1.05,-0.98 -0.17,-0.13 -0.35,0.11 -0.5,-0.06zm0.11 4.28c0.31,-0.24 0.62,-0.48 0.98,-0.75 -0.2,-0.1 -0.45,0.11 -0.6,-0.1 0.8,-0.71 2.43,-0.1 3.31,1.03 -0.99,-0.05 -1.94,0.24 -2.91,0.03 0.06,-0.18 0.25,-0.06 0.36,-0.18 -0.4,-0.05 -0.75,-0.03 -1.14,-0.03zm0.89 -50.67c0.12,-0.06 0.26,-0.01 0.38,0.07 0.61,0.39 1.1,0.87 1.36,1.6 -1,-1.11 -2.05,-1.09 -3.19,-0.18 0.34,-0.68 0.83,-1.15 1.45,-1.49zm4.26 -27.11c0.2,0.6 -0.18,0.93 -0.47,1.22 -0.83,0.85 -1.72,1.65 -2.58,2.47 -0.07,0.07 -0.14,0.14 -0.34,0.03 0.81,-1.51 2.21,-2.46 3.39,-3.72zm0.73 -1.42c0.1,-0.54 -0.31,-0.02 -0.43,-0.2 0.23,-0.36 0.46,-0.72 0.69,-1.09 0.09,1.55 0.4,3.09 0.03,4.79 -0.18,-0.4 -0.31,-0.67 -0.5,-1.1 -0.19,1.24 -0.03,2.33 -0.15,3.57 -0.35,-0.92 -0.45,-1.76 -0.71,-2.55 -0.26,0.73 -0.19,1.47 -0.12,2.2 0.08,0.73 0,1.46 0.01,2.2 -0.38,-0.98 -0.6,-2 -0.72,-3.21 -0.59,1.06 -1.33,1.84 -2.08,2.66 -0.13,-0.33 0.06,-0.54 0.2,-0.72 0.92,-1.25 1.65,-2.65 2.71,-3.81 0.71,-0.78 0.89,-1.76 1.07,-2.74zm1.74 9.6c0.55,-0.59 1.11,-1.17 1.53,-1.87 0.06,-0.09 0.13,-0.21 0.27,-0.18 0.12,0.03 0.1,0.14 0.1,0.24 -0.05,1.55 0.05,3.11 -0.01,4.64 -0.12,-0.55 -0.27,-1.11 -0.37,-1.68 -0.1,-0.56 -0.15,-1.13 -0.26,-1.7 -0.04,0.57 -0.37,0.92 -0.82,1.19 -0.81,0.51 -1.48,1.2 -2.22,1.81 0.45,-0.92 1.09,-1.71 1.78,-2.45zm1.03 3.96c-0.45,-1.09 -0.84,-2.19 0.06,-3.36 -0.1,1.18 0.12,2.26 -0.06,3.36zm-4.31 0.4c-0.68,2.21 -1.31,4.44 -2.28,6.55 -0.27,-2.54 1.07,-4.52 2.28,-6.55zm-0.14 -4.25c0.48,2.27 -0.39,4.55 -2.13,5.64 0.46,-1.99 1.21,-3.8 2.13,-5.64zm-0.1 -0.39c-0.65,0.81 -1.3,1.62 -2.01,2.39 0.23,-1.4 1.13,-2.53 1.52,-3.96 -0.65,0.55 -0.93,1.35 -1.79,1.81 0.5,-1.43 1.43,-2.5 1.78,-3.85 0.1,1.15 0.32,2.25 0.56,3.34 0.01,0.08 -0.01,0.2 -0.06,0.27zm4.04 5.98c-0.27,-0.44 -0.22,-0.87 -0.48,-1.23 -0.14,0.52 -0.1,1.02 -0.11,1.52 -0.02,0.45 -0.12,0.85 -0.32,1.27 -0.71,1.53 -1.5,3.04 -1.91,4.76 -0.28,-0.24 -0.31,-1.26 -0.96,-0.2 0.67,-1.7 1.52,-3.15 2.46,-4.55 -2.37,1.69 -3.29,4.41 -4.74,6.76 0.39,-1.94 1.05,-3.78 1.91,-5.55 0.87,-1.79 2.4,-3.05 3.54,-4.64 -0.68,0.12 -1.18,0.57 -1.78,0.84 0.57,-0.96 1.43,-1.68 2.18,-2.52 -0.02,1.16 0.5,2.27 0.21,3.54zm-14.5 15.17c0.23,0.18 0.41,0.3 0.68,0.51 -0.76,-0.07 -1.22,-0.36 -1.54,-0.89 -0.15,-0.24 -0.23,-0.41 0.19,-0.4 0.53,0.01 1.04,0.05 1.53,0.25 0.18,0.08 0.4,0.15 0.44,0.44 -0.4,0.12 -0.83,-0.11 -1.3,0.09zm-5.95 -6.64c-1.42,-0.31 -2.59,-1.04 -3.83,-1.72 3.24,-0.67 11.53,3.13 12.81,5.92 -2.54,-2.4 -5.69,-3.47 -8.98,-4.2zm-6.1 1.74c-1.84,0.34 -3.44,1.63 -5.47,1.52 0.07,0.04 0.14,0.08 0.2,0.12 0.15,0.07 0.42,0.04 0.4,0.26 -0.03,0.24 -0.32,0.2 -0.48,0.21 -0.52,0.02 -1.03,0.01 -1.5,0.01 0.29,0.13 0.7,0.12 1,0.47 -0.95,0.39 -1.87,-0.1 -2.78,0.07 0.5,0.16 1.01,0.31 1.51,0.49 0.11,0.03 0.32,0.03 0.29,0.21 -0.02,0.19 -0.21,0.19 -0.36,0.18 -0.16,-0.01 -0.31,-0.04 -0.46,-0.05 -0.42,0 -0.84,0 -1.26,0 0.25,0.17 0.51,0.24 0.75,0.35 0.14,0.06 0.41,0.06 0.36,0.29 -0.05,0.2 -0.3,0.14 -0.46,0.13 -0.77,-0.08 -1.53,-0.18 -2.31,-0.02 -0.43,0.08 -0.52,-0.27 -0.49,-0.6 0.03,-0.44 0.33,-0.71 0.69,-0.94 1.39,-0.89 2.86,-1.61 4.3,-2.42 0.26,-0.14 0.49,-0.35 0.91,-0.43 -0.46,0.53 -0.85,0.98 -1.3,1.51 1.41,-0.7 2.6,-1.63 4.08,-2.23 -0.11,0.48 -0.48,0.68 -0.55,1.03 2,-1.29 4.15,-1.07 6.29,-0.92 -1.89,0.25 -3.36,0.76 -3.36,0.76zm-8.79 -2.85c1.06,-0.26 2.03,-0.73 3.05,-1.06 0.34,-0.12 0.68,-0.12 1.03,-0.1 0.16,0.01 0.46,-0.11 0.28,0.29 -0.06,0.12 0.16,0.16 0.3,0.18 1.14,0.08 2.07,0.66 3,1.26 -1.34,-0.12 -2.47,-0.91 -3.78,-1.15 0.68,0.37 1.36,0.74 2.03,1.11 -1.32,-0.27 -2.61,-0.61 -3.95,-0.71 0.25,0.3 0.46,0.41 0.94,0.53 0.36,0.08 0.71,0.18 1.05,0.31 -1.35,-0.06 -2.61,-0.56 -3.95,-0.66zm12.35 -5.84c1.5,0.53 2.71,1.34 3.09,3.11 -0.64,-0.8 -1.21,-1.5 -1.85,-2.28 0.07,0.54 0.43,0.84 0.49,1.28 -0.65,-0.64 -1.02,-1.51 -1.73,-2.11zm5.03 4.23c-0.94,-0.97 -1.64,-2.14 -2.57,-3.12 1.54,0.49 1.79,2.01 2.57,3.12zm0.03 -1.61c1.81,1.7 3.38,3.61 4.82,5.62 0.05,0.08 0.12,0.16 0,0.32 -0.97,-0.91 -2.06,-1.65 -3.17,-2.37 -0.29,-0.19 -0.39,-0.52 -0.53,-0.81 -0.59,-1.22 -1.43,-2.28 -2.25,-3.45 0.5,0.12 0.83,0.4 1.13,0.69zm-21.3 13.72c0.43,0.15 0.77,0 1.14,0.02 -1.12,0.49 -2.35,0.74 -3.21,1.7 0.81,-1.43 3.03,-3.36 3.79,-3.35 -0.48,0.37 -1.04,0.59 -1.49,1.09 0.64,-0.11 1.2,-0.2 1.77,-0.3 0.01,0.04 0.02,0.07 0.03,0.1 -0.65,0.24 -1.31,0.47 -2.03,0.74zm22.3 -18.55c-0.24,-0.12 -0.43,-0.48 -0.77,-0.1 -0.1,0.12 -0.27,-0.05 -0.33,-0.2 -0.16,-0.42 -0.31,-0.85 -0.47,-1.27 0.81,0.62 1.71,1.07 2.36,1.95 -0.36,-0.04 -0.55,-0.25 -0.79,-0.38zm-4.32 -5.52c0.63,1.27 0.79,2.59 1.13,3.86 -0.46,-0.49 -0.72,-1.07 -0.92,-1.69 -0.37,-1.11 -0.71,-2.23 -1.08,-3.34 -0.05,-0.15 -0.09,-0.29 -0.04,-0.44 0,0 0.01,0 0.01,0 0.74,0.85 1.65,1.49 2.62,2.04 0.67,0.37 1.32,0.75 1.84,1.34 -1.13,-0.66 -2.27,-1.27 -3.56,-1.77zm-2.08 -2.64c0.51,0.21 0.69,0.79 1.17,1.03 -0.34,0.6 -0.06,1.21 0.03,1.8 0.12,0.85 0.33,1.69 0.5,2.55 -0.52,-0.49 -1.19,-2.59 -1.7,-5.38zm31.07 1.52c-0.41,1.8 -0.73,3.6 -1.7,5.17 -0.05,-0.02 -0.11,-0.04 -0.16,-0.05 0.32,-1.19 0.65,-2.38 0.99,-3.62 -1.09,0.47 -2.08,1.09 -3.14,1.58 1.26,-1.12 2.89,-1.73 4.01,-3.08zm3.6 4.04c-0.74,1.1 -1.35,2.3 -2.3,3.28 0.34,-0.74 0.74,-1.45 1,-2.22 0.22,-0.68 0.7,-0.91 1.3,-1.06zm28.26 13.34c-0.7,-0.49 -1.37,-0.96 -2.04,-1.44 0.01,-0.02 0.03,-0.04 0.05,-0.06 0.9,0.15 1.8,0.29 2.71,0.44 -1.44,-0.84 -2.99,-1.37 -4.51,-1.99 1.16,0.09 2.33,0.18 3.49,0.26 -0.94,-0.54 -1.96,-0.77 -2.98,-0.97 -1.01,-0.2 -2.04,0.2 -3.05,-0.01 0,-0.06 0,-0.11 -0.01,-0.16 1.37,-0.14 2.73,-0.28 4.21,-0.43 -2.49,-0.76 -5.02,0.01 -7.38,-0.82 1.07,-0.02 2.13,0.14 3.21,-0.03 1.04,-0.17 2.01,-0.57 3.17,-0.68 -2.65,-0.63 -5.16,-0.56 -7.7,-0.13 1.27,-0.44 2.52,-0.89 3.78,-1.33 -2.13,-0.07 -4.12,0.67 -6.21,0.84 1.13,-0.37 2.26,-0.74 3.44,-1.13 -1.55,-0.13 -2.94,0.4 -4.38,0.6 0.61,-0.31 1.22,-0.62 1.84,-0.93 -1.68,0.22 -3.22,0.86 -4.84,1.21 1.38,-0.81 2.94,-1.21 4.35,-1.98 -1.98,0.18 -3.74,0.98 -5.53,1.72 1.29,-0.92 2.68,-1.68 3.92,-2.69 -1.64,0.37 -3.1,1.15 -4.52,2.03 0.36,-0.64 0.99,-1.04 1.38,-1.75 -1.1,0.65 -1.93,1.53 -3.06,1.99 0.56,-0.62 1.12,-1.23 1.55,-1.7 -0.83,0.35 -1.76,0.97 -2.73,1.54 0.49,-0.53 0.98,-1.05 1.48,-1.57 -1.32,0.48 -2.34,1.42 -3.54,2.09 0.69,-0.78 1.38,-1.56 2.06,-2.35 -0.84,0.46 -1.6,1.01 -2.24,1.89 -0.07,-0.7 0.38,-1.01 0.6,-1.58 -0.94,0.74 -1.48,1.67 -2.32,2.32 0.54,-0.72 1.07,-1.44 1.6,-2.16 -0.01,0 -0.02,-0.01 -0.04,-0.02 -1.04,0.83 -2.09,1.66 -3.14,2.49 0.35,-0.8 0.98,-1.36 1.47,-2.03 -1.39,0.49 -2.38,1.51 -3.4,2.48 0.43,-0.9 1.1,-1.61 1.73,-2.44 -1.64,0.83 -2.45,2.48 -3.88,3.45 0.59,-0.95 1.15,-1.89 1.67,-2.87 -0.47,0.3 -0.85,0.69 -1.42,0.94 0.1,-0.61 0.54,-0.97 0.65,-1.5 -0.62,0.68 -1.24,1.36 -1.86,2.05 0.05,-0.57 0.45,-0.92 0.58,-1.43 -0.65,0.79 -1.29,1.58 -1.95,2.4 0.3,-1.87 1.75,-2.55 3.21,-3.24 -0.23,-0.01 -0.44,-0.01 -0.65,0.04 -2.01,0.44 -3.84,1.3 -5.4,2.63 -2.22,1.89 -3.98,4.2 -5.54,6.66 -0.24,0.37 -0.41,0.79 -0.82,1.14 0.02,-0.14 0.01,-0.19 0.03,-0.24 0.87,-2.35 2.24,-4.41 3.76,-6.36 0.58,-0.75 1.2,-1.51 2.11,-1.87 1.36,-0.53 2.51,-1.43 3.78,-2.13 0.57,-0.31 0.99,-0.79 1.21,-1.58 -1.3,0.72 -2.49,1.37 -3.67,2.02 1.76,-1.91 3.77,-3.48 6.19,-4.48 -0.88,0.91 -1.21,2.16 -2.05,3.1 0.1,-0.46 0.21,-0.93 0.31,-1.4 -0.54,0.48 -0.71,1.14 -0.97,1.75 -0.21,0.51 0.02,0.74 0.58,0.63 0.57,-0.11 1.14,-0.18 1.72,-0.18 1.71,0 3.42,0 5.13,0 -0.79,-0.33 -1.62,-0.36 -2.57,-0.51 1.34,-0.24 2.57,-0.04 3.78,-0.2 -1.32,-0.41 -2.67,-0.51 -4.02,-0.62 2.21,-0.53 4.39,0.29 6.75,0.28 -0.77,-0.49 -1.54,-0.62 -2.09,-1.15 1.05,0.34 2.1,0.69 3.15,1.03 -0.71,-0.57 -1.56,-0.89 -2.33,-1.36 1.4,0.25 2.58,1.14 4.07,1.32 -0.69,-0.44 -1.32,-0.84 -1.94,-1.25 1.19,0.38 2.31,0.87 3.66,1.2 -0.91,-0.67 -1.79,-1.12 -2.5,-1.81 1.42,0.65 2.81,1.33 4.32,1.74 -0.88,-0.56 -1.72,-1.16 -2.49,-1.86 1.6,0.75 3.15,1.6 4.85,2.14 -0.91,-0.7 -1.83,-1.39 -2.74,-2.09 0.9,0.17 1.58,0.73 2.3,1.2 0.74,0.46 1.52,0.82 2.33,1.11 -0.73,-0.83 -1.78,-1.3 -2.43,-2.21 1.57,0.9 3.1,1.86 4.86,2.63 -0.59,-0.83 -1.29,-1.41 -1.87,-2.11 1.31,0.82 2.56,1.68 3.93,2.37 -0.45,-0.5 -0.89,-1 -1.33,-1.5 1.1,0.5 1.92,1.42 3.1,1.76 -0.15,-0.23 -0.38,-0.38 -0.57,-0.57 -0.18,-0.19 -0.33,-0.42 -0.49,-0.63 1,0.34 1.87,0.9 3.03,0.98 -0.64,-0.64 -1.31,-1.06 -1.86,-1.66 0.62,0.09 1.24,0.17 1.85,0.26 -0.61,-0.46 -1.31,-0.65 -2.01,-0.85 0.31,-0.33 0.78,-0.06 1.12,-0.38 -0.91,-0.18 -1.79,-0.22 -2.86,-0.17 0.91,-0.43 1.72,-0.64 2.54,-1.2 -1.66,0.06 -3.1,0.5 -4.57,0.74l-0.05 -0.13c0.85,-0.38 1.7,-0.77 2.69,-1.22 -1.81,-0.02 -3.29,0.83 -4.93,0.84 1,-0.5 2.12,-0.75 3.09,-1.52 -1.5,0.17 -2.78,0.82 -4.16,1.07 0.82,-0.5 1.75,-0.78 2.63,-1.46 -0.92,0.17 -1.67,0.45 -2.44,0.71 0.04,-0.39 0.42,-0.55 0.43,-0.92 -1.1,0.61 -2.18,1.2 -3.26,1.8 -0.02,-0.04 -0.04,-0.08 -0.06,-0.12 0.6,-0.56 1.2,-1.13 1.8,-1.7 -1.27,0.4 -2.32,1.17 -3.51,1.69 0.64,-0.81 1.42,-1.47 2.26,-2.16 -1.59,0.42 -2.85,1.38 -4.09,2 0.59,-0.72 1.24,-1.52 1.76,-2.16 -1.21,0.51 -2.5,1.36 -3.79,2.22 0.59,-0.8 1.18,-1.61 1.78,-2.41 -1.4,0.81 -2.47,1.99 -3.88,2.72 0.64,-0.59 1.29,-1.19 1.94,-1.79 -0.02,-0.02 -0.04,-0.04 -0.06,-0.07 -1.22,0.8 -2.44,1.59 -3.66,2.39 0.59,-0.75 1.31,-1.32 2.03,-1.91 -1.24,0.41 -2.22,1.23 -3.24,1.99 0.24,-0.65 0.87,-0.96 1.3,-1.6 -1.13,0.6 -1.92,1.44 -2.77,2.2 -0.03,-0.03 -0.06,-0.07 -0.1,-0.1 0.64,-0.87 1.27,-1.73 1.9,-2.6 -1.48,0.79 -2.29,2.21 -3.37,3.36 0.53,-1.09 1.06,-2.17 1.83,-3.12 -1.19,0.71 -1.95,1.75 -2.54,2.95 -0.15,0.31 -0.32,0.63 -0.75,0.88 0.46,-1.13 0.62,-2.24 1.29,-3.16 -0.14,0.09 -0.27,0.19 -0.41,0.28 -0.05,-0.23 -0.21,-0.19 -0.39,-0.17 -1.02,0.16 -1.96,0.55 -2.88,1 -3.24,1.59 -5.82,3.98 -8.06,6.77 -0.74,0.93 -1.5,1.85 -2.2,2.83 -0.03,-0.1 -0.02,-0.17 0,-0.24 0.6,-1.75 1.46,-3.36 2.69,-4.76 0.94,-1.06 2.13,-1.78 3.29,-2.54 0.62,-0.41 0.75,-0.82 0.54,-1.57 -0.17,0.24 -0.26,0.49 -0.31,0.76 -0.03,0.18 -0.1,0.38 -0.29,0.38 -0.6,0.01 -1.05,0.41 -1.6,0.6 1.01,-1.35 2.85,-1.98 3.29,-3.84 -0.38,0.12 -0.68,0.37 -1.17,0.42 0.68,-0.59 1.42,-0.9 1.99,-1.47 -0.84,1.22 -0.84,2.71 -1.44,4.15 1.99,-1.68 4.39,-2.23 6.67,-3.27 -0.65,-0.14 -1.19,0.11 -1.74,-0.14 1.85,-0.35 3.71,-0.69 5.56,-1.04 0,-0.03 0,-0.06 -0.01,-0.1 -1.26,-0.07 -2.52,-0.14 -3.79,-0.22 1.21,-0.29 2.44,-0.22 3.67,-0.22 1.24,0 2.48,-0.02 3.7,-0.28 -1.58,-0.17 -3.16,-0.33 -4.71,-0.7 0.62,-0.09 1.23,-0.09 1.84,0 0.62,0.08 1.24,0.04 1.86,0.05 0.62,0.01 1.24,0.01 1.86,-0.01 0.59,-0.02 1.18,-0.09 1.75,-0.29 -1.42,-0.1 -2.8,-0.34 -4.19,-0.59 1.6,-0.21 3.19,-0.07 4.82,0 -0.92,-0.44 -1.88,-0.66 -2.84,-0.93 1.83,0.05 3.61,0.57 5.59,0.64 -1.02,-0.64 -2.12,-0.75 -3.03,-1.35 1.39,0.42 2.73,-0.5 4.11,-0.11 -0.44,-0.2 -0.87,-0.41 -1.31,-0.62 1.12,0.03 2.19,0.34 3.38,0.2 -0.36,-0.31 -0.79,-0.23 -1.22,-0.59 1,0.19 1.84,0.2 2.71,0.1 -0.98,-0.26 -1.95,-0.52 -3.07,-0.82 1.34,-0.07 2.53,-0.14 3.71,-0.21 0,-0.03 0,-0.07 0.01,-0.1 -0.53,-0.21 -1.05,-0.42 -1.58,-0.64 1.27,0 2.49,0.33 3.72,0.31 -0.01,-0.24 -0.29,-0.07 -0.33,-0.25 0.83,-0.28 1.65,-0.56 2.48,-0.84 -0.86,-0.05 -1.69,0.22 -2.58,0.03 0.53,-0.27 1.06,-0.54 1.68,-0.86 -1.72,-0.22 -3.26,0.22 -4.83,0.55 0.55,-0.51 1.23,-0.81 1.73,-1.44 -1.63,0.28 -3.02,1.03 -4.5,1.55 0.45,-0.32 0.91,-0.59 1.37,-0.86 0.47,-0.28 0.86,-0.66 1.3,-1.11 -1.65,0.52 -2.95,1.48 -4.33,2.3 0.31,-0.4 0.66,-0.73 0.99,-1.08 0.32,-0.34 0.69,-0.66 1.01,-1.18 -1.73,0.8 -2.89,2.14 -4.32,3.12 0.82,-1.01 1.62,-2.02 2.36,-3.06 -0.9,0.49 -1.79,0.98 -2.53,1.82 -0.07,-0.73 0.4,-1.13 0.63,-1.74 -0.97,0.89 -1.48,1.99 -2.27,2.89 0.23,-0.83 0.46,-1.66 0.68,-2.49 -0.81,1.29 -1.24,2.77 -2.14,4.01 0.32,-1 0.53,-2.01 0.55,-3.09 -0.74,1.29 -1.15,2.71 -2.18,3.8 0.48,-1.36 0.69,-2.77 0.89,-4.36 -0.75,1.16 -1.2,2.29 -1.83,3.33 0.1,-0.83 0.21,-1.67 0.32,-2.5 -0.71,1.38 -1.07,2.85 -1.64,4.26 0.12,-1.11 0.24,-2.23 0.36,-3.34 -0.84,1.64 -1.02,3.53 -2.03,5.11 0.36,-1.43 0.44,-2.89 0.69,-4.33 -0.82,1.36 -0.95,2.99 -1.76,4.36 0.27,-1.14 0.48,-2.28 0.65,-3.57 -0.57,0.85 -0.64,1.75 -1.05,2.53l0 -1.53c-0.52,0.58 -0.55,1.32 -0.77,1.99 -0.23,0.67 -0.25,1.39 -0.7,1.99 0.14,-1.47 0.27,-2.95 0.41,-4.47 -0.68,1.67 -0.93,3.42 -1.43,5.11 -0.11,-1.28 0.05,-2.55 0.21,-3.82 -0.82,1.83 -0.9,3.89 -1.79,5.7 0.08,-0.99 0.27,-1.95 0.35,-2.92 0.07,-0.88 0.12,-1.73 0.96,-2.27 0.04,-0.03 0.07,-0.1 -0.03,-0.14 -0.99,0.59 -1.99,1.19 -2.99,1.8 1.05,-1.31 2.27,-2.4 3.65,-3.31 -0.98,0.2 -1.94,0.45 -2.91,0.67 -0.15,0.04 -0.39,0.28 -0.49,-0.03 -0.09,-0.3 0.21,-0.34 0.39,-0.4 0.53,-0.19 1.06,-0.36 1.59,-0.52 1.15,-0.35 2.25,-0.84 3.35,-1.33 -1.28,0.16 -2.52,0.57 -3.82,0.5 1.86,-0.49 3.68,-1.05 5.5,-1.66 -1.64,0.08 -3.25,0.46 -4.9,0.49 2.03,-0.73 4.18,-1.01 6.24,-1.61 -1.62,0.21 -3.25,0.25 -4.88,0.29 1.91,-0.7 3.97,-0.77 5.9,-1.37 -1.18,0.06 -2.35,0.02 -3.52,-0.1 2.18,-0.43 4.4,-0.56 6.72,-1.02 -1.24,-0.33 -2.36,-0.07 -3.44,-0.42 2.1,-0.23 4.2,-0.47 6.3,-0.7 -2.13,-0.51 -4.29,-0.57 -6.45,-0.59 -0.11,0 -0.24,0.02 -0.34,0.06 -1.05,0.48 -2.12,0.93 -3.07,1.6 -0.38,0.28 -0.79,0.52 -1.18,0.78 0.17,-0.31 0.42,-0.52 0.68,-0.69 1.74,-1.09 3.49,-2.11 5.65,-2.15 1.51,-0.03 2.99,-0.36 4.42,-0.91 -1.22,-0.1 -2.44,0.07 -3.65,-0.1 2.2,-0.55 4.44,-0.84 6.77,-1.4 -1.46,-0.3 -2.81,-0.15 -4.13,-0.25 -0.01,-0.05 -0.02,-0.11 -0.03,-0.17 1.32,-0.35 2.63,-0.7 3.94,-1.06 -0.79,-0.14 -1.55,-0.15 -2.33,-0.1 0.9,-0.47 1.79,-0.92 2.56,-1.59 -1.27,0.29 -2.47,0.74 -3.69,1.24 0.38,-0.48 0.77,-0.95 1.16,-1.43 -1.57,0.73 -2.63,2.1 -4.09,2.96 0.78,-0.97 1.44,-2.01 2.04,-3.09 -1.78,1.21 -3.05,2.94 -4.65,4.34 0.57,-0.94 1.14,-1.88 1.7,-2.81 -1.44,0.78 -2.1,2.23 -3.06,3.45 0.53,-1.1 0.87,-2.27 1.49,-3.32 -1.32,1.14 -2.05,2.73 -3.13,4.05 0.39,-1.05 0.71,-2.12 1.18,-3.14 -1.08,1.05 -1.84,2.31 -2.48,3.65 -0.05,-0.02 -0.09,-0.04 -0.13,-0.05 0.18,-0.92 0.36,-1.83 0.57,-2.88 -1.03,1.53 -1.49,3.16 -2.11,4.72 0.04,-1.04 -0.04,-2.06 0.08,-3.09 -0.63,1.43 -0.74,2.99 -1.17,4.48 -0.1,-1.04 -0.02,-2.07 0.02,-3.1 -0.47,1.23 -0.69,2.52 -0.93,3.81 -0.22,-0.93 0.04,-1.88 -0.1,-2.9 -0.45,1.38 -0.54,2.74 -0.81,4.06 -0.18,-0.9 -0.32,-1.79 -0.36,-2.7 -0.26,1.13 -0.24,2.28 -0.29,3.54 -0.29,-0.65 -0.15,-1.3 -0.47,-1.96 -0.24,1.16 -0.31,2.22 -0.37,3.28 -0.33,-0.66 -0.22,-1.43 -0.56,-2.21 -0.26,1.46 -0.12,2.85 -0.54,4.18 -0.17,-0.64 -0.34,-1.29 -0.54,-2.04 -0.29,1.15 -0.04,2.2 -0.13,3.23 -0.38,-0.45 -0.42,-1.04 -0.74,-1.51 -0.03,1.23 0.01,2.45 -0.12,3.68 -0.31,-0.9 -0.61,-1.8 -0.73,-2.78 -1.03,0.79 -2.03,1.55 -3.03,2.31 0.85,-1.31 2.29,-2.01 3.23,-3.22 -0.79,0.47 -1.62,0.83 -2.47,1.16 1.37,-0.99 2.59,-2.14 3.77,-3.35 -0.96,0.46 -1.9,0.97 -2.92,1.3 0.49,-0.52 1.13,-0.81 1.7,-1.2 0.56,-0.39 1.09,-0.79 1.57,-1.42 -1.11,0.49 -2.12,0.94 -3.14,1.38 1.44,-1.18 3.08,-2.1 4.29,-3.71 -1.51,0.56 -2.63,1.54 -3.91,2.26 1.15,-1.57 2.81,-2.63 3.97,-4.19 -0.87,0.51 -1.74,1.01 -2.61,1.52l-0.09 -0.12c1.25,-0.98 2.44,-2.01 3.6,-3.1 -1.31,0.58 -2.49,1.4 -3.76,2.06 1.14,-1.2 2.57,-2.08 3.7,-3.46 -0.53,0.27 -0.95,0.49 -1.37,0.71 0.74,-0.65 1.6,-1.15 2.22,-1.93 -0.93,0.52 -1.85,1.03 -2.71,1.67 0.96,-1.51 2.3,-2.7 3.34,-4.22 -1.09,0.54 -1.99,1.28 -2.97,1.88 0.7,-1.24 1.83,-2.15 2.54,-3.38 -0.76,0.36 -1.46,0.78 -2.15,1.25 0.66,-0.97 1.59,-1.7 2.12,-2.82 -0.57,0.46 -1.09,0.88 -1.75,1.12 0.49,-0.96 0.91,-1.92 1.35,-3.06 -0.51,0.53 -0.9,0.94 -1.36,1.43 0.1,-1.64 -0.13,-3.13 -0.58,-4.6 -0.08,1.35 -0.17,2.7 -0.26,4.16 -0.36,-0.73 -0.37,-1.47 -0.77,-2.16l0 3.33c-0.25,-0.57 -0.43,-0.97 -0.6,-1.37 0,1.37 0.34,2.69 0.25,4.05 -0.24,-0.81 -0.47,-1.61 -0.75,-2.58 -0.15,1.26 0.11,2.35 -0.12,3.45 -0.22,-0.4 -0.44,-0.79 -0.65,-1.19 0.04,1.03 0.23,2 0.66,2.92 -0.34,-0.47 -0.68,-0.95 -1.01,-1.42 0.16,1.14 0.47,2.23 0.37,3.38 -0.25,-0.59 -0.5,-1.18 -0.75,-1.77 -0.05,1.59 0.37,3.1 0.42,4.67 -0.33,-1.12 -0.65,-2.24 -0.98,-3.36 -0.13,1.14 -0.08,2.25 -0.04,3.37 -0.4,-0.63 -0.69,-1.31 -0.91,-2.01 -0.01,1.34 0.31,2.65 0.15,3.99 -0.27,-1.2 -1.07,-2.29 -0.67,-3.63 -0.24,0.05 -0.3,0.38 -0.64,0.41 0.55,-1.04 1.42,-1.79 1.95,-2.87 -0.58,0.3 -1.06,0.56 -1.53,0.81 0.49,-0.9 1.4,-1.45 1.7,-2.58 -0.43,0.28 -0.78,0.49 -1.25,0.8 0.29,-0.97 1.07,-1.48 1.32,-2.37 -0.32,0.2 -0.5,0.54 -0.94,0.59 0.37,-0.62 0.7,-1.16 1.09,-1.82 -0.44,0.28 -0.62,0.65 -1.04,0.82 0.1,-0.72 0.43,-1.35 0.31,-2.09 -0.25,0.23 -0.1,0.61 -0.4,0.81 -0.09,-0.55 0.04,-1.11 -0.22,-1.71 -0.22,0.59 -0.13,1.16 -0.43,1.67 -0.09,-0.35 -0.18,-0.65 -0.26,-0.95 -0.04,0 -0.09,0.01 -0.13,0.01l0 2.21c-0.06,0.01 -0.11,0.02 -0.16,0.03 -0.11,-0.35 -0.23,-0.7 -0.36,-1.11 -0.19,0.74 0.1,1.38 0.06,2.19 -0.22,-0.35 -0.1,-0.66 -0.36,-0.81l0 1.64c-0.02,0 -0.05,0 -0.07,0 -0.17,-0.43 -0.34,-0.87 -0.51,-1.31 -0.06,0.29 -0.02,0.55 0,0.82 0.16,2.26 0.07,4.52 0.12,6.78 0.04,2.18 -1.46,3.15 -2.93,4.21 0.56,-1.1 1.48,-1.98 2.12,-3.17 -0.85,0.45 -1.34,1.18 -2.09,1.57 0.73,-1.24 1.88,-2.21 2.27,-3.65 -0.68,0.76 -1.53,1.32 -2.3,1.97 0.69,-1.05 1.64,-1.91 2.07,-3.15 -0.51,0.52 -1.01,1.04 -1.64,1.68 0.51,-1.03 1.16,-1.78 1.44,-2.74 -0.57,0.54 -1.14,1.08 -1.71,1.61 -0.03,-0.03 -0.07,-0.07 -0.11,-0.1 0.59,-1.04 1.62,-1.84 1.83,-3.27 -0.71,0.75 -1.32,1.38 -2.08,1.84 0.53,-0.9 1.29,-1.63 1.72,-2.72 -0.56,0.31 -0.86,0.76 -1.5,1.03 0.68,-1.02 1.34,-1.85 1.8,-2.94 -0.52,0.42 -0.94,0.75 -1.36,1.08 -0.04,-0.04 -0.08,-0.07 -0.12,-0.11 0.58,-0.58 0.75,-1.37 1.13,-2.05 -0.45,0.37 -0.89,0.75 -1.34,1.12 -0.04,-0.03 -0.08,-0.07 -0.12,-0.1 0.66,-0.92 1.19,-1.9 1.6,-2.94 -0.42,0.49 -0.79,1.02 -1.35,1.4 0.46,-1.06 0.89,-2.11 1.08,-3.25 -0.38,0.56 -0.68,1.17 -1.24,1.6 0.37,-0.95 0.68,-1.91 0.93,-2.98 -0.39,0.48 -0.52,1.06 -1.22,1.38 0.39,-0.83 0.65,-1.54 0.83,-2.29 -0.37,0.27 -0.48,0.72 -0.83,1.12 -0.12,-1.29 -0.07,-2.5 -0.06,-3.82 -0.32,0.54 -0.23,1.07 -0.51,1.52 -0.2,-0.51 -0.18,-1.03 -0.5,-1.6 0.07,1.35 0.19,2.58 0.02,3.95 -0.34,-0.55 -0.62,-0.92 -1.01,-1.3 0.18,0.88 0.76,1.55 0.86,2.46 -0.51,-0.37 -0.77,-0.85 -1.17,-1.4 0.24,1.07 0.63,1.94 0.93,2.84 -0.55,-0.43 -0.87,-1.04 -1.36,-1.62 0.31,1.22 0.84,2.25 1.18,3.38 -0.43,-0.46 -0.86,-0.93 -1.37,-1.48 0.44,1.12 1.15,1.97 1.55,2.98 -0.47,-0.37 -0.92,-0.74 -1.45,-1.02 0.56,0.64 0.88,1.4 1.3,2.27 -0.61,-0.35 -0.95,-0.84 -1.6,-1.13 0.62,1.02 1.19,1.94 1.75,2.87 -0.03,0.02 -0.06,0.05 -0.08,0.08 -0.4,-0.29 -0.8,-0.57 -1.21,-0.85 0.32,0.95 1.1,1.56 1.47,2.43 -0.6,-0.44 -1.2,-0.87 -1.9,-1.38 0.39,1.22 1.34,1.94 1.84,2.94 -0.68,-0.39 -1.11,-1.05 -1.88,-1.52 0.52,1.2 1.25,2.13 1.73,3.19 -0.61,-0.67 -1.17,-1.37 -1.85,-1.98 0.16,0.59 0.58,1.02 0.87,1.53 0.28,0.52 0.62,1.01 0.76,1.59 -0.64,-0.67 -1.12,-1.46 -1.81,-2.08 0.52,1.75 1.5,3.25 2.25,4.88 -0.82,-0.59 -1.61,-1.22 -2.19,-2.07 -0.24,-0.35 -0.55,-0.69 -0.56,-1.13 -0.02,-2 -0.37,-4 -0.19,-6.02 0.06,-0.69 0.01,-1.38 0.01,-2.21 -0.31,0.44 -0.18,0.88 -0.52,1.17 -0.05,-0.9 -0.1,-1.76 -0.15,-2.61 -0.1,0.55 -0.24,1.06 -0.32,1.63 -0.34,-0.99 -0.06,-2.02 -0.44,-3.06 -0.17,0.42 -0.03,0.82 -0.29,1.16 -0.16,-0.65 -0.31,-1.25 -0.45,-1.84 -0.06,0.01 -0.12,0.02 -0.18,0.03l0 1.49c-0.03,0 -0.06,0 -0.1,-0.01 -0.11,-0.22 -0.22,-0.45 -0.39,-0.81 -0.02,0.89 0.27,1.57 0.46,2.34 -0.39,-0.22 -0.56,-0.6 -1.04,-0.76 0.35,0.57 0.64,1.05 0.95,1.55 -0.39,-0.03 -0.56,-0.38 -0.92,-0.42 0.29,0.8 1.02,1.31 1.17,2.15 -0.34,-0.22 -0.69,-0.44 -1.14,-0.73 0.37,1.16 1.29,1.76 1.86,2.66 -0.5,-0.29 -1,-0.58 -1.55,-0.9 0.52,1.1 1.41,1.87 1.79,2.96 -0.19,-0.2 -0.39,-0.41 -0.65,-0.69 0.19,0.73 0.79,1.1 0.98,1.76 -0.35,-0.08 -0.38,-0.45 -0.7,-0.51 -0.11,0.84 -0.29,1.64 -0.74,2.38l0 -3.68c-0.29,0.67 -0.38,1.4 -0.82,2.15 -0.04,-1.34 0.1,-2.57 -0.11,-3.89 -0.32,1.29 -0.61,2.46 -0.9,3.63 -0.08,-1.6 0.48,-3.14 0.27,-4.9 -0.29,0.72 -0.35,1.34 -0.77,1.83 0.13,-1.06 0.27,-2.11 0.41,-3.24 -0.25,0.17 -0.21,0.48 -0.53,0.54 0.16,-0.64 0.28,-1.27 0.31,-2.06 -0.26,0.57 -0.46,1.01 -0.66,1.45l-0.09 -0.02 0 -3.37c-0.4,0.75 -0.48,1.59 -0.78,2.36 -0.05,-0.45 -0.07,-0.89 -0.04,-1.33 0.04,-0.43 0.16,-0.87 0.2,-1.31 0.03,-0.41 0,-0.83 0,-1.36 -0.18,0.48 -0.32,0.85 -0.47,1.22 -0.18,-1 -0.03,-2.02 -0.22,-3.16 -0.2,0.74 -0.36,1.35 -0.53,1.95 -0.03,-0.01 -0.07,-0.01 -0.1,-0.02 -0.09,-1.32 -0.18,-2.64 -0.27,-3.96 -0.45,1.44 -0.7,2.88 -0.57,4.37l-0.17 0.08c-0.36,-0.4 -0.72,-0.81 -1.09,-1.21 -0.03,0.02 -0.05,0.04 -0.08,0.05 0.44,0.98 0.89,1.95 1.4,3.07 -0.71,-0.49 -1.27,-0.88 -1.84,-1.42 0.49,1.14 1.35,1.85 1.99,2.73 -0.73,-0.36 -1.4,-0.78 -2.06,-1.24 0.63,1.38 1.86,2.3 2.6,3.6 -0.93,-0.63 -1.85,-1.25 -2.92,-1.97 1.03,1.75 2.58,2.89 3.46,4.55 -0.88,-0.73 -1.79,-1.38 -2.91,-1.95 0.57,0.77 1.34,1.12 1.99,1.74 -0.39,-0.02 -0.58,-0.32 -0.92,-0.29 1.01,1.21 2.33,2.03 3.34,3.2 -1.2,-0.71 -2.4,-1.42 -3.6,-2.13 1.1,1.12 2.24,2.18 3.42,3.2 -0.82,-0.46 -1.63,-0.9 -2.57,-1.42 1.26,1.6 2.9,2.62 4.07,4.13 -1.23,-0.79 -2.44,-1.61 -3.89,-2.2 1.15,1.6 2.7,2.55 4.22,3.54 -1.04,-0.23 -1.95,-0.78 -3.04,-1.18 1.01,1.24 2.32,1.91 3.46,2.79 -0.03,0.05 -0.06,0.09 -0.1,0.14 -1.02,-0.55 -2.04,-1.1 -3.17,-1.7 1.23,1.3 2.44,2.47 3.71,3.56 -0.98,-0.41 -1.91,-0.91 -2.8,-1.56 0.29,0.53 0.77,0.82 1.09,1.27 -0.22,0.06 -0.3,-0.25 -0.51,-0.1 0.56,0.9 1.3,1.64 1.97,2.43 0.66,0.79 1.4,1.53 1.83,2.5 -0.87,-1.16 -2.32,-1.71 -3.1,-3.05 -0.01,1.03 -0.1,1.99 -0.47,2.9 -0.17,-1.39 0.07,-2.79 -0.28,-4.17 -0.16,0.64 -0.2,1.31 -0.45,2.09 -0.26,-1.28 -0.12,-2.45 -0.38,-3.64 -0.3,0.48 -0.19,1.03 -0.52,1.54 -0.2,-1.09 0.08,-2.13 -0.3,-3.21 -0.18,0.75 -0.21,1.42 -0.52,2.18 -0.32,-1.48 -0.16,-2.85 -0.57,-4.3 -0.12,0.84 -0.22,1.54 -0.33,2.37 -0.33,-1.18 -0.19,-2.29 -0.47,-3.44 -0.29,0.69 -0.35,1.31 -0.5,1.92 -0.04,-1.13 -0.05,-2.26 -0.36,-3.49 -0.06,0.97 -0.11,1.81 -0.16,2.65 -0.41,-1.29 -0.48,-2.65 -0.97,-3.92 0.01,1.07 0.16,2.12 0,3.18 -0.35,-1.35 -0.51,-2.74 -1.04,-4.05 0.02,1.04 0.15,2.07 -0.03,3.11 -0.31,-1.47 -0.62,-2.93 -0.93,-4.4 -0.02,0.01 -0.05,0.01 -0.07,0.02l0 2.97c-0.46,-1.58 -1.08,-3.09 -1.99,-4.48 0.04,0.45 0.13,0.88 0.21,1.31 0.07,0.41 0.26,0.81 0.13,1.25 -0.64,-1.3 -1.37,-2.52 -2.44,-3.51 0.37,0.99 0.85,1.93 1.07,2.98 -1.01,-1.37 -1.8,-2.9 -3.08,-4.06 0.58,1.09 1.05,2.21 1.46,3.36 -0.99,-1.23 -1.71,-2.7 -3.22,-3.56 0.62,0.95 1.19,1.82 1.62,2.78 -1.53,-1.37 -2.74,-3.04 -4.48,-4.17 0.65,1.03 1.3,2.05 1.95,3.07 -1.36,-1 -2.51,-2.24 -4.06,-3.11 0.32,0.66 0.95,0.99 1.16,1.72 -1.2,-0.68 -2.4,-1.09 -3.78,-1.45 0.83,0.76 1.72,1.16 2.61,1.75 -0.83,-0.14 -1.55,-0.09 -2.27,0.05 1.37,0.35 2.73,0.7 4.1,1.04 -1.35,0.37 -2.75,0.03 -4.09,0.5 2.2,0.42 4.41,0.85 6.61,1.27 -0.01,0.05 -0.01,0.09 -0.02,0.14 -1.28,0.14 -2.56,-0.14 -3.93,-0.02 2.28,0.91 4.62,0.89 6.9,1.21 -2.3,0.19 -4.59,0.17 -6.84,0.74 2.14,0.22 4.29,0.45 6.43,0.67 0,0.03 0,0.07 0,0.1 -1.18,0.08 -2.36,0.16 -3.53,0.24 2.14,0.53 4.34,0.65 6.63,1.06 -1.24,0.37 -2.35,0.14 -3.46,0.18 0.96,0.23 1.92,0.4 2.88,0.59 0.94,0.2 1.93,0.24 2.82,0.68 -1.48,0.07 -2.94,-0.09 -4.41,-0.14 0.68,0.2 1.36,0.36 2.05,0.5 0.7,0.14 1.4,0.24 2.09,0.39 0.66,0.16 1.31,0.37 1.97,0.55 -1.73,-0.04 -3.42,-0.39 -5.13,-0.39 1.93,0.54 3.86,1.06 5.74,1.81l-4.4 -0.84c1.86,0.87 3.83,1.39 5.73,2.13 -1.16,-0.07 -2.29,-0.25 -3.43,-0.51 1.27,0.78 2.42,1.67 3.43,2.75 -1.2,-0.31 -2.28,-0.86 -3.25,-1.6 0.12,1.37 0.23,2.69 0.34,4 -0.69,-1.67 -0.86,-3.48 -1.54,-5.15 0.05,1.39 0.38,2.76 0.27,4.17 -0.46,-1.44 -0.82,-2.91 -1.41,-4.29 -0.12,0.71 0.19,1.41 0,2.22 -0.43,-0.82 -0.48,-1.69 -0.96,-2.38 0.03,1.13 0.42,2.19 0.61,3.28 -0.81,-1.37 -1.05,-2.95 -1.74,-4.37 0.21,1.43 0.29,2.88 0.72,4.28 -1.1,-1.56 -1.24,-3.48 -2.05,-5.31 0.08,1.33 0.23,2.48 0.39,3.64 -0.55,-1.43 -0.95,-2.91 -1.7,-4.27 0.12,0.85 0.24,1.7 0.36,2.55 -0.67,-1.06 -1.12,-2.2 -1.91,-3.37 0.16,0.86 0.26,1.57 0.41,2.26 0.16,0.71 0.41,1.39 0.64,2.08 -1.07,-1.05 -1.54,-2.45 -2.26,-3.77 -0.03,1.07 0.22,2.04 0.51,3.01 -0.83,-1.15 -1.27,-2.49 -2.02,-3.67 0.18,0.74 0.36,1.48 0.54,2.22 -0.75,-0.89 -1.21,-1.96 -2.16,-2.86 0.23,0.64 0.61,1.05 0.55,1.65 -0.78,-0.81 -1.82,-1.53 -2.46,-1.69 0.71,1.02 1.54,1.92 2.31,2.87 -1.46,-0.95 -2.65,-2.28 -4.34,-3.03 0.59,0.85 1.31,1.49 1.91,2.24 -1.28,-0.86 -2.56,-1.66 -4.12,-2.21 0.8,1.03 1.92,1.45 2.82,2.16 -1.55,-0.68 -3.04,-1.5 -4.81,-1.71 0.52,0.53 1.11,0.83 1.76,1.35 -1.66,-0.31 -3.13,-0.78 -4.69,-0.48 0.38,0.33 0.88,0.46 1.25,0.86 -0.79,0.18 -1.51,-0.29 -2.39,-0.12 0.86,0.27 1.58,0.52 2.32,0.71 0.48,0.12 0.02,0.24 0.02,0.35 1.19,0.16 2.36,-0.22 3.57,-0.1 -0.52,0.2 -1.03,0.4 -1.63,0.63 1.37,0.21 2.65,0.15 3.92,0.24 -1.07,0.26 -2.15,0.52 -3.22,0.77 0.91,0.07 1.8,0.16 2.76,-0.01 -0.36,0.27 -0.78,0.24 -1.1,0.56 1.07,-0.05 2.06,-0.2 3.07,-0.23 -0.38,0.21 -0.76,0.42 -1.14,0.63 0.65,-0.03 1.36,-0.37 1.84,-0.1 0.63,0.35 1.2,0.13 1.8,0.2 0.14,0.02 0.3,-0.06 0.45,0.13 -0.96,0.39 -1.96,0.65 -2.99,1.22 1.75,-0.06 3.31,-0.45 4.91,-0.49 -0.71,0.26 -1.42,0.52 -2.29,0.84 1.64,-0.09 3.1,-0.29 4.56,-0.16 0,0.05 0.01,0.1 0.01,0.15 -1.24,0.18 -2.48,0.36 -3.72,0.54 2.39,0.49 4.81,0.14 7.21,0.22 -1.56,0.36 -3.14,0.49 -4.71,0.71 2.43,0.44 4.88,0.2 7.32,0.43 -1.2,0.11 -2.39,0.22 -3.59,0.33 0.01,0.03 0.01,0.06 0.01,0.09 1.83,0.32 3.65,0.64 5.62,0.99 -0.69,0.4 -1.29,-0.03 -1.85,0.25 2.32,0.75 4.61,1.55 6.58,3.07 -0.52,-1.12 -0.58,-2.34 -1.15,-3.4 0.41,0.2 0.46,0.63 0.7,0.92 0.54,0.66 0.89,1.4 0.88,2.27 -0.01,0.46 0.26,0.65 0.61,0.86 0.71,0.43 1.43,0.86 2.09,1.36 2,1.52 3.06,3.68 3.94,5.96 0.03,0.09 0.05,0.18 -0.12,0.34 -0.03,-0.07 -0.05,-0.15 -0.09,-0.21 -1.37,-2.08 -3,-3.94 -4.78,-5.66 -1.92,-1.84 -3.99,-3.48 -6.54,-4.4 -0.84,-0.3 -1.69,-0.54 -2.62,-0.59 0.52,1.02 0.95,2.03 1.24,3.1 -0.93,-1.36 -1.66,-2.86 -3.2,-3.8 0.63,1.02 1.28,1.93 1.67,3.01 -1.04,-1.17 -1.83,-2.57 -3.31,-3.46 0.7,0.99 1.34,1.89 1.98,2.79 -0.03,0.03 -0.07,0.07 -0.11,0.1 -0.85,-0.99 -1.93,-1.67 -3,-2.38 -0.06,0.07 -0.13,0.14 -0.19,0.21 0.61,0.51 1.22,1.03 1.82,1.54 -0.03,0.05 -0.07,0.09 -0.1,0.13 -1.11,-0.78 -2.08,-1.8 -3.44,-2.16 0.7,0.65 1.57,1.12 2.1,1.97 -1.18,-0.8 -2.36,-1.6 -3.23,-2.2 0.37,0.46 0.96,1.18 1.51,1.86 -1.26,-0.82 -2.35,-2 -3.85,-2.9 0.7,0.99 1.27,1.87 1.95,2.69 -1.4,-0.98 -2.89,-1.76 -4.51,-2.32 0.83,0.7 1.66,1.41 2.5,2.11l-0.08 0.09 -3.69 -1.86c0.54,0.77 1.3,1.26 1.91,1.93 -1.04,-0.62 -2.07,-1.21 -3.2,-1.79 0.41,0.81 1.2,1.2 1.63,1.91 -1.15,-0.59 -2.21,-1.35 -3.49,-1.81 0.29,0.76 0.96,1.05 1.42,1.57 -1.04,-0.5 -2.08,-1 -3.31,-1.18 0.54,0.7 1.31,0.94 2.08,1.48 -1.36,-0.25 -2.34,-1.13 -3.64,-1.18 0.69,0.71 1.56,1.05 2.31,1.57 -1.36,-0.25 -2.61,-0.95 -4.16,-0.95 0.79,0.46 1.56,0.69 2.17,1.22 -1.33,-0.23 -2.65,-0.52 -4.09,-0.63 0.76,0.55 1.59,0.75 2.37,1.12 -0.94,0.11 -1.85,0.04 -2.76,0.24 0.34,0.29 0.83,0.06 1.16,0.4 -0.71,0.17 -1.37,0.35 -2.07,0.83 0.68,-0.06 1.21,-0.18 1.83,-0.07 -0.57,0.55 -1.24,0.84 -1.74,1.5 1.07,-0.2 1.94,-0.67 2.93,-1.01 -0.29,0.57 -0.82,0.8 -1.12,1.34 1.18,-0.46 1.97,-1.36 3.12,-1.74 -0.49,0.44 -0.97,0.87 -1.46,1.3 0.04,0.04 0.07,0.08 0.11,0.12 1.46,-0.68 2.72,-1.69 4.15,-2.44 -0.75,0.68 -1.47,1.39 -2.21,2.23 1.72,-0.78 3.16,-1.79 4.75,-2.57 -0.69,0.75 -1.56,1.27 -2.3,2.12 1.73,-0.59 3.04,-1.73 4.55,-2.47 0.03,0.05 0.06,0.1 0.08,0.15 -0.84,0.68 -1.68,1.36 -2.52,2.04 1.65,-0.45 3.04,-1.45 4.63,-2.02 -0.73,0.71 -1.58,1.23 -2.55,1.85 1.47,-0.35 2.65,-0.98 3.94,-1.33 -0.5,0.35 -1,0.7 -1.61,1.14 1.24,-0.32 2.27,-0.82 3.4,-1.07 -0.67,0.39 -1.33,0.78 -2.06,1.21 1.49,-0.27 2.79,-0.92 4.15,-1.33 0.02,0.04 0.04,0.09 0.06,0.13 -0.84,0.43 -1.68,0.86 -2.52,1.29l0.03 0.08c1.06,-0.34 2.12,-0.67 3.17,-1.01 -0.5,0.49 -1.18,0.66 -1.71,1.08 2.21,-0.1 4.36,-0.84 6.58,-0.32 -1.42,0.07 -2.84,0.19 -4.26,0.68 1.3,0.2 2.54,-0.17 3.77,0.15 -0.71,0.12 -1.42,0.24 -2.15,0.36 0.35,0.16 0.35,0.13 0.61,0.14 2.13,0.05 4.28,-0.48 6.39,0.2 0.15,0.05 0.35,0.07 0.29,-0.18 -0.18,-0.87 -0.56,-1.65 -1.11,-2.37 0.07,0.45 0.14,0.9 0.21,1.35 -0.71,-0.97 -1.14,-2.09 -1.99,-2.93 -0.39,0.1 -0.14,0.31 -0.07,0.46 0.34,0.71 0.7,1.4 0.99,2.14 -1.01,-0.91 -1.5,-2.2 -2.37,-3.24 0.49,0.2 0.99,0.4 1.49,0.6 0.09,0.02 0.2,0.02 0.28,0.06 2.26,1.02 4.21,2.48 5.92,4.27 0.01,0.01 -0.02,0.05 -0.04,0.12 -1.2,-0.72 -2.47,-1.32 -3.58,-2.21 0.15,0.76 0.54,1.4 1.18,1.76 1.33,0.76 2.56,1.67 3.94,2.32 0.43,0.2 0.8,0.48 1.12,0.82 1.67,1.82 3.02,3.86 4.18,6.03 0.18,0.35 0.4,0.73 0.3,1.31 -0.73,-1.3 -1.51,-2.43 -2.37,-3.49 -2.09,-2.58 -4.29,-5.05 -7.53,-6.24 -0.84,-0.31 -1.67,-0.7 -2.64,-0.64 0.22,0.68 0.81,1.14 0.92,1.87 -0.61,-0.2 -0.87,-0.8 -1.49,-1.03 0.52,1.12 1.21,2.01 1.83,2.95 -1.45,-1.03 -2.41,-2.6 -4.09,-3.59 0.59,0.9 1.25,1.55 1.63,2.39 -0.97,-0.96 -1.94,-1.92 -3.25,-2.4 0.57,0.64 1.09,1.32 1.53,2.07 -1.02,-0.8 -2,-1.63 -3.05,-2.38 0.34,0.63 0.84,1.14 1.1,1.8 -0.87,-0.7 -1.35,-1.78 -2.43,-2.36 0.44,0.59 0.81,1.13 1.03,1.78 -0.74,-0.57 -1.28,-1.38 -2.27,-1.75 0.68,0.82 1.3,1.56 1.93,2.3 -1.15,-0.69 -2.15,-1.57 -3.5,-2.17 0.46,0.7 1.08,1.07 1.5,1.78 -1.03,-0.66 -1.88,-1.35 -2.93,-1.69 -0.05,0.05 -0.09,0.1 -0.13,0.14 0.44,0.42 0.88,0.83 1.32,1.24 -0.87,-0.41 -1.55,-1.07 -2.44,-1.65 0.41,0.77 1.1,1.16 1.49,1.81 -1.48,-0.75 -2.89,-1.65 -4.52,-2.02 1.25,1.03 2.6,1.91 4.01,2.71 -1.38,-0.46 -2.64,-1.24 -4.13,-1.38 0.82,0.45 1.65,0.89 2.47,1.33 -1.43,-0.4 -2.69,-1.22 -4.24,-1.71 0.87,0.8 1.87,1.11 2.79,1.81 -1.34,-0.22 -2.38,-0.96 -3.77,-1.08 0.67,0.62 1.42,0.8 1.99,1.27 -1.25,-0.33 -2.44,-0.88 -3.77,-0.86 0.87,0.34 1.74,0.69 2.61,1.04 -1.82,-0.31 -3.59,-0.89 -5.47,-0.72 1.25,0.42 2.52,0.79 3.73,1.33 -2.48,-0.48 -4.95,-0.56 -7.35,0.08 2.05,0.62 4.17,1.02 6.38,0.67 -2.45,0.86 -5.07,0.13 -7.53,0.86 1.36,0.15 2.71,0.29 4.05,0.43 0,0.09 0,0.17 0.01,0.26 -2.13,-0.26 -4.18,-0.11 -6.09,0.96l3.52 -0.29c-1.42,0.64 -2.9,1.09 -4.22,1.93 0.85,-0.14 1.69,-0.28 2.7,-0.44 -0.81,0.58 -1.49,1.08 -2.18,1.57 1.26,-0.06 2.35,-0.47 3.34,-1.37 -0.12,0.59 -0.51,0.94 -0.56,1.47 1.04,-0.84 1.62,-2.06 2.63,-2.88 -0.34,0.91 -0.96,1.66 -1.34,2.66 0.72,-0.58 1.22,-1.21 1.77,-1.8 0.54,-0.58 1.06,-1.18 1.85,-1.44 -0.71,0.85 -1.42,1.7 -2.14,2.55 1.51,-0.86 2.77,-2.05 4.23,-2.97 -0.73,0.85 -1.45,1.7 -2.27,2.66 1.79,-0.97 2.98,-2.5 4.56,-3.5 -0.58,0.86 -1.53,1.38 -2.12,2.32 1.44,-0.52 2.58,-1.43 3.92,-1.95l-1.89 1.71c1.17,-0.35 2.17,-1.05 3.33,-1.42 -0.47,0.4 -0.95,0.8 -1.54,1.29 1.12,-0.43 2.03,-0.94 2.93,-1.47 0.03,0.04 0.05,0.08 0.08,0.12 -0.53,0.44 -1.05,0.88 -1.58,1.31 1.79,-0.52 3.4,-1.56 5.33,-1.59 -1.04,0.43 -2,0.99 -3.05,1.57 1.29,0.51 2.55,0.8 3.77,1.23 -2.38,-0.3 -4.74,-0.81 -7.13,-0.28 1.32,0.17 2.58,0.58 3.87,0.86 -1.58,0.26 -3.11,-0.41 -4.76,-0.29 0.98,0.48 1.97,0.68 2.93,1 -1.92,-0.2 -3.8,-0.99 -5.93,-0.33 1.48,0.12 2.8,0.24 4.06,0.68 -1.04,-0.09 -2.07,-0.23 -3.1,-0.18 -1.05,0.05 -2.07,0.23 -3.07,0.52 0,0.06 0.01,0.11 0.01,0.16l1.88 0c-1.36,0.31 -2.75,0.31 -4.04,0.86 1.19,0.02 2.38,-0.26 3.55,0.13 -2.13,-0.02 -4.2,0.25 -6.15,1.15 0.62,-0.01 1.24,-0.03 1.84,-0.12 0.62,-0.1 1.23,-0.05 1.84,-0.01 -1.9,0.36 -3.7,1 -5.41,1.95 1.61,-0.29 3.21,-0.57 4.81,-0.85 0.02,0.05 0.03,0.1 0.04,0.14 -1.92,0.96 -4.19,1.11 -6.04,2.5 1.17,-0.27 2.25,-0.52 3.32,-0.76 -1.17,0.77 -2.47,1.28 -3.58,2.3 1.26,-0.26 2.32,-0.77 3.51,-1.25 -0.45,0.77 -0.91,1.42 -1.16,2.35 0.89,-0.63 1.55,-1.26 2.16,-2.14 -0.07,0.75 -0.34,1.32 -0.33,2.07 0.85,-1.33 1.48,-2.59 2.22,-3.81 0.01,0.93 -0.39,1.77 -0.45,2.68 0.82,-1.28 1.58,-2.57 2.13,-3.98 0.05,0.02 0.1,0.04 0.15,0.06 -0.27,1.14 -0.55,2.27 -0.82,3.41 0.74,-1.31 1.47,-2.62 2.44,-3.79 -0.31,0.87 -0.61,1.74 -0.95,2.71 1.04,-1.07 1.65,-2.34 2.69,-3.25 0.04,0.03 0.08,0.06 0.12,0.08 -0.4,0.72 -0.8,1.43 -1.2,2.15 0.69,-0.52 1.26,-1.12 1.74,-1.8 0.46,-0.67 0.9,-1.36 1.66,-1.76 -0.7,1.04 -1.4,2.08 -2.15,3.2 2.32,-1.57 4.35,-3.4 6.82,-4.55 -0.31,0.36 -0.69,0.63 -1.05,0.91 -0.82,0.64 -1.53,1.36 -1.72,2.45 -0.13,0.74 -0.13,0.74 -0.95,0.75 0.98,0.67 2.05,0.94 3,1.44 -1.23,0.07 -2.31,-0.57 -3.5,-0.68 -1.13,-0.1 -2.87,0.16 -3.53,0.57 0.97,-0.09 1.9,-0.15 2.83,0.12 -1.85,0.21 -3.61,0.71 -5.29,1.49 1.22,-0.16 2.43,-0.35 3.66,-0.3 -0.58,0.21 -1.18,0.37 -1.77,0.52 -0.58,0.14 -1.21,0.26 -1.65,0.63 -0.45,0.38 -0.98,0.47 -1.47,0.69 -0.54,0.24 -1.1,0.45 -1.56,0.85 1.01,-0.18 2,-0.42 3.03,-0.34 -1.53,0.73 -3.25,1.02 -4.66,2.24 1.05,-0.3 1.98,-0.57 2.91,-0.84 -1.22,0.77 -2.56,1.32 -3.67,2.53 0.96,-0.39 1.75,-0.79 2.62,-0.96 -0.49,0.42 -0.99,0.81 -1.51,1.17 -0.72,0.49 -1.18,0.95 -1.32,1.37 0.65,-0.29 1.27,-0.64 1.96,-0.77 -0.99,0.89 -2.15,1.57 -3.04,2.66 0.8,-0.13 1.43,-0.54 2.24,-0.89 -0.47,1.07 -0.76,2.03 -0.81,3.07l0.86 -1.84c0.03,0.01 0.07,0.02 0.1,0.03l0 1.21c0.59,-1.1 0.92,-2.15 1.47,-3.15l0 1.74c0.7,-1.16 0.83,-2.5 1.49,-3.8 0.07,0.63 0.14,1.1 0.32,1.63 0.31,-0.81 0.35,-1.62 0.73,-2.47 0.06,0.63 0.12,1.12 0.17,1.61 0.36,-1.02 0.59,-2.08 1.08,-3.04 0.11,0.67 -0.2,1.3 -0.13,2.01 0.85,-1.51 1.26,-3.18 2.41,-4.47 -0.23,0.64 -0.46,1.29 -0.74,2.07 1.2,-0.89 2.43,-1.29 3.76,-1.46 -1.25,0.83 -2.87,1.02 -3.93,2.18 0.86,-0.33 1.72,-0.59 2.63,-0.69 -0.6,0.34 -1.22,0.62 -1.84,0.91 -0.63,0.3 -1.23,0.65 -1.83,1.22 0.87,-0.26 1.6,-0.47 2.34,-0.69 -0.97,0.75 -2.13,1.15 -3.01,2l1.56 -0.48c-0.84,0.71 -1.75,1.31 -2.7,2.12 0.76,-0.2 1.32,-0.52 2.04,-0.61 -0.7,1.23 -1.21,2.46 -1.74,3.87 0.95,-0.77 1.55,-1.6 2.15,-2.47 -0.24,1.32 -0.28,2.62 -0.15,3.93 0.66,-1.68 0.88,-3.47 1.44,-5.18 -0.01,1.53 -0.17,3.04 -0.07,4.65 0.82,-2.2 1.02,-4.47 1.71,-6.61 0.04,0.54 0.03,1.08 0.04,1.61 0.02,0.54 -0.08,1.08 0.07,1.65 0.76,-2.21 1.29,-4.41 1.55,-6.69 0.11,1.01 0.04,2.02 0.33,3.09 0.59,-1.7 1.08,-3.31 1.7,-4.88 0.01,0.26 0.01,0.52 0.02,0.78 0.08,-0.2 0.18,-0.4 0.29,-0.59l-0.29 0.59 0.48 1.92 1.34 -4.12 -0.05 3.15 1.43 -4.68 0.04 3.15c-0.04,-2.61 1.86,-4.31 1.86,-4.31l-0.62 2.24c1.24,-2.92 3.72,-3.77 3.72,-3.77l-2.05 2.21 5.93 -3 -2.17 2c3.53,-2.57 8.79,-2.99 8.79,-2.99 0.83,0.05 1.65,0.23 2.41,0.63 1.92,1.01 3.47,2.56 5.3,3.72 0.71,0.44 0.65,0.52 0.1,1.18 -1.44,-1.45 -2.95,-2.79 -4.86,-3.85 0.39,0.7 0.78,1.18 1.43,1.44 0.3,0.12 0.55,0.36 0.81,0.56 0.65,0.52 1.21,1.12 1.63,2.03 -0.91,-0.65 -1.55,-1.35 -2.25,-1.98 -0.5,-0.46 -1.01,-0.82 -1.76,-0.54 -0.61,0.24 -1.19,0.1 -1.72,-0.3 -0.28,-0.2 -0.59,-0.4 -1.03,-0.4 0.47,0.57 1.14,0.87 1.45,1.6 -0.34,-0.04 -0.62,-0.12 -0.97,0 0.61,0.49 1.14,0.94 1.63,1.47 1.28,1.4 2.03,3.07 2.68,4.82 0.3,0.8 0.77,1.47 1.47,1.97 0.14,0.09 0.26,0.19 0.29,0.35 0.17,0.81 0.54,25.83 0.91,26.55 0.07,0.14 0.18,0.29 -0.01,0.41 -0.48,0.29 -0.32,0.69 -0.19,1.07 0.13,0.37 0.31,0.71 0.47,1.06 0.09,0.19 0.17,0.36 -0.01,0.53 -0.24,0.24 -0.18,0.49 -0.06,0.75 0.17,0.33 0.32,0.66 0.52,0.97 0.17,0.26 0.13,0.41 -0.14,0.54 -0.41,0.21 -0.64,0.53 -0.74,0.98 -0.15,0.7 0.21,1.24 0.52,1.79 0.12,0.21 0.13,0.3 -0.04,0.47 -0.43,0.43 -0.65,0.94 -0.66,1.56 -0.01,0.93 0.38,1.72 0.77,2.52 0.07,0.16 0.2,0.28 -0.04,0.42 -0.87,0.49 -0.89,1.24 -0.53,2.04 0.24,0.54 0.4,1.03 -0.19,1.46 -0.13,0.09 -0.17,0.29 -0.23,0.45 -0.31,0.76 -0.11,1.48 0.15,2.19 0.06,0.16 0.2,0.32 0.03,0.48 -1.03,0.94 -0.81,1.98 -0.22,3.03 0.12,0.2 0.04,0.3 -0.05,0.46 -1.07,1.75 -1.23,3.54 -0.11,5.34 0.2,0.32 0.22,0.48 -0.12,0.67 -0.73,0.4 -1.06,1.04 -1.09,1.86 0,0.19 0,0.38 -0.2,0.51 -0.89,0.6 -0.99,1.47 -0.78,2.41 0.11,0.48 0.16,0.88 -0.22,1.28 -0.23,0.25 -0.3,0.62 -0.43,0.94 -0.15,0.38 -0.15,0.81 -0.42,1.19 -0.26,-1.25 -0.44,-2.46 -0.24,-3.69 -0.77,1.72 -1.06,3.49 -0.65,5.37 -0.71,-1.52 -1.36,-3.04 -1.9,-4.6 -0.01,-0.01 -0.01,-0.01 -0.01,-0.01 -0.03,-0.02 -0.06,-0.04 -0.09,-0.06 -0.07,-0.04 -0.13,-0.07 -0.19,-0.11 0.19,0.72 0.38,1.43 0.47,2.25 -0.32,-0.5 -0.29,-1.03 -0.59,-1.6 0.04,1.45 0.92,2.57 0.87,4.06 -0.6,-0.88 -0.96,-1.71 -1.58,-2.5 0.22,1.03 0.49,1.95 0.44,2.92 -0.46,-0.83 -0.88,-1.67 -1.27,-2.53 -0.08,0.04 -0.17,0.05 -0.26,0.03 0,0.01 0,0.02 0,0.02 0.15,0.8 0.3,1.6 0.43,2.39 0.02,0.11 0.07,0.27 -0.14,0.35 -0.45,-0.99 -1,-1.91 -1.71,-2.74 0.4,0.93 0.77,1.85 0.74,2.88 -0.79,-1.17 -1.44,-2.42 -2.39,-3.48 0.62,1.24 0.84,2.58 1.16,3.92 -0.58,-0.56 -1.15,-1.09 -1.76,-1.58 -0.08,0.01 -0.18,0 -0.27,-0.05 -0.16,-0.09 -0.31,-0.18 -0.47,-0.26 0,0 -0.03,-0.01 -0.05,-0.02 0.48,0.51 0.76,1.14 0.9,1.83 -0.5,-0.43 -0.85,-1 -1.53,-1.47 0.21,0.45 0.34,0.75 0.47,1.04 0.08,0.16 0.17,0.38 0.04,0.49 -0.17,0.15 -0.3,-0.07 -0.42,-0.17 -0.5,-0.43 -1,-0.86 -1.61,-1.38 0.27,0.69 0.66,1.16 0.77,1.88 -1.01,-0.4 -1.72,-1.12 -2.7,-1.65 0.41,0.57 0.97,0.89 1.03,1.58 -0.48,-0.08 -0.82,-0.38 -1.21,-0.58 -0.04,0.24 0.26,0.45 0.04,0.57 -0.2,0.11 -0.46,0.17 -0.71,-0.01 -0.22,-0.16 -0.45,-0.34 -0.8,-0.4 0.29,0.51 0.13,0.64 -0.33,0.51 -0.24,-0.06 -0.47,-0.12 -0.78,-0.2 0.2,0.22 0.34,0.34 -0.05,0.38 -0.8,0.08 -1.59,0.22 -2.39,0.34 -0.33,0.05 -0.66,0.14 -0.99,0.21 17.9,-0.04 35.77,-0.04 53.65,0.06 -0.98,-0.31 -2,-0.42 -3.01,-0.59 -0.16,-0.03 -0.64,0.24 -0.49,-0.33 0.02,-0.09 -0.12,-0.04 -0.16,-0.01 -0.38,0.31 -0.78,0.13 -1.18,0.14 -0.01,-0.28 0.3,-0.33 0.31,-0.58 -0.33,0.17 -0.64,0.32 -0.94,0.48 -0.41,0.22 -0.64,0.1 -0.66,-0.4 -0.27,0.14 -0.52,0.28 -0.78,0.39 -0.12,0.05 -0.35,0.12 -0.27,-0.18 0.12,-0.46 0.47,-0.75 0.78,-1.07 -0.04,-0.03 -0.07,-0.07 -0.11,-0.1 -0.66,0.45 -1.33,0.88 -2,1.31 -0.1,0.06 -0.22,0.12 -0.32,0.01 -0.08,-0.08 0,-0.18 0.04,-0.26 0.17,-0.44 0.36,-0.87 0.6,-1.46 -0.72,0.63 -1.32,1.15 -1.95,1.7 -0.13,-0.58 0.23,-0.98 0.27,-1.49 -0.53,0.35 -0.82,0.9 -1.36,1.34 0.21,-0.79 0.49,-1.41 1.02,-1.89 -0.07,-0.05 -0.12,-0.1 -0.18,-0.16 -0.01,0 -0.01,0.01 -0.02,0.01 -0.85,0.49 -1.53,1.18 -2.2,1.88 -0.09,0.1 -0.16,0.27 -0.41,0.22 0.47,-1.29 0.62,-2.66 1.27,-3.88 -1.06,0.93 -1.52,2.29 -2.48,3.48 0.06,-1.21 0.47,-2.14 0.82,-3.09 -0.66,0.87 -1.2,1.81 -1.76,2.74 0.02,-0.92 0.27,-1.79 0.37,-2.69 -0.06,-0.04 -0.12,-0.08 -0.17,-0.12 -0.01,0.02 -0.03,0.05 -0.04,0.08 -0.37,0.8 -0.77,1.6 -1.16,2.39 -0.04,0.1 -0.04,0.24 -0.25,0.18 0.14,-0.9 0.28,-1.79 0.43,-2.69 -0.04,-0.01 -0.07,-0.02 -0.1,-0.03 -0.43,0.77 -0.86,1.54 -1.36,2.43 -0.09,-1.59 1.02,-2.75 0.94,-4.18 -0.19,0.56 -0.16,1.19 -0.58,1.68 0.18,-0.72 0.1,-1.47 0.31,-2.18 -0.08,0.03 -0.16,0.07 -0.24,0.1 -0.3,1.11 -1.06,2.79 -1.62,3.44 -0.05,-1.57 -0.29,-3.05 -0.95,-4.43 0.4,1.59 0.15,3.26 -0.37,4.1 -0.18,-0.77 -0.18,-1.54 -0.52,-2.21 -0.29,-0.55 -0.29,-1.08 -0.17,-1.67 0.18,-0.97 0.22,-1.94 -0.74,-2.61 -0.12,-0.08 -0.15,-0.21 -0.16,-0.36 -0.05,-0.67 -0.35,-1.21 -0.94,-1.57 -0.2,-0.12 -0.25,-0.23 -0.12,-0.46 0.97,-1.82 0.58,-3.59 -0.3,-5.3 -0.15,-0.29 -0.21,-0.44 -0.02,-0.74 0.62,-1 0.62,-2.1 -0.02,-2.68 -0.27,-0.26 -0.22,-0.41 -0.08,-0.68 0.45,-0.84 0.77,-1.81 0.23,-2.64 -0.47,-0.74 -0.32,-1.29 -0.08,-1.98 0.35,-0.97 0.18,-1.28 -0.77,-1.73 -0.26,-0.13 -0.24,-0.24 -0.14,-0.43 0.27,-0.52 0.47,-1.06 0.64,-1.62 0.2,-0.69 0.33,-1.47 -0.18,-1.98 -0.52,-0.52 -0.39,-0.89 -0.14,-1.42 0.33,-0.72 0.36,-1.44 -0.38,-1.97 -0.24,-0.16 -0.17,-0.31 -0.1,-0.54 0.19,-0.56 0.61,-1.15 0.45,-1.69 -0.17,-0.6 -0.05,-1.09 0.04,-1.63 0.07,-0.45 0.29,-0.92 -0.22,-1.27 -0.11,-0.07 -0.1,-0.16 -0.05,-0.25 0.6,-1.02 0.82,-26.57 1.79,-27.38 0.6,-0.5 0.96,-1.14 1.03,-1.94 0.03,-0.34 -0.01,-0.73 0.19,-1.02 0.69,-1.01 1.49,-1.94 2.08,-3.05 0,0 0,0 0,0.01 0.14,-0.24 0.35,-0.46 0.59,-0.57 0.09,-0.09 0.25,-0.14 0.41,-0.14 0.51,-0.01 1.02,0 1.55,0 -0.3,-0.52 -0.89,-0.5 -1.41,-0.75 0.68,-0.39 1.32,-0.75 2.06,-1.18 -0.71,-0.11 -1.26,0.03 -1.8,0.14 -0.37,0.08 -0.51,0.07 -0.39,-0.35 0.14,-0.51 -0.11,-0.8 -0.58,-0.97 -0.81,-0.28 -1.54,-0.07 -2.2,0.38 -1.06,0.74 -2.11,1.5 -3.07,2.37 -0.1,0.1 -0.19,0.23 -0.41,0.21 0.5,-0.86 1.25,-1.42 1.9,-2.07 1.42,-1.39 3.02,-2.47 5,-2.88 0.45,-0.1 0.81,-0.16 1.1,-0.19 0,0 5.94,1.91 7.82,5.31l-1.88 -3.63c0,0 2.17,1.98 3.72,4.74l-0.73 -3.21c0,0 2.47,2.79 3.01,4.67l-0.28 -3.13c0,0 2.22,1.92 2.98,4.35l-0.54 -2.99c0,0 1.91,1.16 2.64,4.21l-0.48 -3.26c0,0 2.03,5.49 2.03,5.33 0,-0.16 -0.09,-4.28 -0.09,-4.28 0,0 1.79,4.08 1.89,4.05 0.04,0 0.07,-0.01 0.11,-0.02 0.08,-0.76 0.17,-1.53 0.25,-2.29 0.44,1.93 0.85,3.84 1.48,5.84 0.2,-1.09 0.15,-2.05 0.24,-3.01 0.53,2.15 0.81,4.36 1.61,6.43 0.04,-1.51 -0.08,-3.01 -0.11,-4.51 0.53,1.7 0.78,3.48 1.44,5.14 0.06,-1.34 0.06,-2.67 -0.18,-4.01 0.62,0.84 1.18,1.72 2.05,2.34 -0.41,-1.3 -0.95,-2.54 -1.62,-3.82 0.68,0.24 1.29,0.45 1.9,0.66 -0.83,-0.73 -1.61,-1.5 -2.59,-2.01 0.58,0.11 1.15,0.18 1.81,0.49 -1.01,-0.98 -2.24,-1.31 -3.24,-2.01 0.75,0.14 1.49,0.32 2.35,0.66 -1.03,-1.27 -2.53,-1.39 -3.67,-2.15 0.92,0.16 1.81,0.4 2.79,0.75 -1.16,-1.3 -2.88,-1.37 -4.11,-2.29 1.33,0.46 2.87,0.41 3.94,1.6 -0.27,-0.71 -0.54,-1.42 -0.81,-2.13 0.04,-0.01 0.09,-0.03 0.13,-0.06 1.04,1.37 1.48,3.04 2.3,4.53 -0.07,-0.76 -0.15,-1.52 -0.22,-2.28 0.6,1.06 0.64,2.29 1.2,3.38l0 -1.61c0.04,0 0.07,0 0.1,-0.01 0.22,0.77 0.43,1.53 0.67,2.4 0.21,-0.59 0.11,-1.13 0.4,-1.62 0.55,1.28 0.78,2.62 1.48,3.8l0 -1.81c0.56,0.98 0.78,2.09 1.42,3.04 0.15,-0.39 -0.09,-0.75 0.06,-1.16 0.48,0.6 0.54,1.36 1.05,2 -0.1,-1.15 -0.49,-2.11 -0.91,-3.17 0.45,0.22 0.78,0.39 1.13,0.55 0.35,0.16 0.7,0.31 1.18,0.35 -0.98,-1.15 -2.25,-1.81 -3.27,-2.76 0.74,0.2 1.36,0.67 2.24,0.84 -0.95,-1.11 -2.1,-1.77 -3.1,-2.61 0.94,0.25 1.81,0.65 2.71,0.99 -0.96,-1.08 -2.25,-1.66 -3.42,-2.45 0.92,0.27 1.85,0.55 2.87,0.85 -1.5,-1.24 -3.32,-1.59 -4.92,-2.37 1.08,0.05 2.12,0.22 3.21,0.48 -0.12,-0.27 -0.33,-0.31 -0.49,-0.41 -0.94,-0.56 -2.05,-0.73 -2.99,-1.36 -1,-0.67 -2.28,-0.7 -3.42,-1.08 1.45,0.03 2.89,0.17 4.32,0.46 -1.82,-0.82 -3.67,-1.47 -5.71,-1.53 1.01,-0.3 2.01,-0.32 3.05,-0.15 -2.47,-1.18 -4.84,-0.29 -7.24,0.23l-0.01 -0.02c0.89,-0.62 1.96,-0.85 2.81,-1.58 -0.37,0.24 -0.71,-0.17 -0.85,-0.12 -0.67,0.21 -1.34,-0.03 -2.01,0.1 -0.37,0.07 -0.81,0.23 -1.3,-0.01 0.48,-0.22 0.88,-0.39 1.38,-0.62 -0.89,-0.11 -1.65,0.1 -2.5,-0.1 0.75,-0.41 1.48,-0.56 2.35,-0.81 -0.71,-0.09 -1.21,0.04 -1.72,0.13 -0.5,0.1 -1,0.15 -1.52,-0.16 0.44,-0.27 0.96,-0.11 1.38,-0.49 -0.27,0.02 -0.46,0.02 -0.65,0.04 -0.5,0.05 -0.99,0.11 -1.49,0.17 -0.12,0.01 -0.25,-0.01 -0.26,-0.16 -0.01,-0.1 0.1,-0.15 0.19,-0.19 0.25,-0.08 0.5,-0.17 0.8,-0.28 -0.56,-0.14 -1.04,0.23 -1.55,-0.03 -0.85,-0.42 -1.73,-0.78 -2.58,-1.19 -0.8,-0.38 -1.58,-0.79 -2.37,-1.19 1.38,-0.06 2.73,-0.03 3.98,0.94 -0.17,-0.4 -0.36,-0.56 -0.53,-0.74 -0.08,-0.08 -0.2,-0.15 -0.1,-0.28 0.07,-0.09 0.18,-0.04 0.27,0 0.27,0.14 0.55,0.27 0.81,0.43 0.99,0.62 1.96,1.25 3.16,1.85 -0.54,-0.57 -0.97,-1.01 -1.39,-1.46 1.97,0.95 3.93,1.85 5.76,3 -0.67,-1.32 -1.83,-2.17 -2.95,-3.07 2.66,1.11 4.63,3.23 7.12,4.74 -0.7,-1.17 -1.51,-2.18 -2.19,-3.28 1.48,1.11 2.18,2.94 3.75,3.97 -0.5,-0.83 -1,-1.66 -1.5,-2.49 0.63,0.33 1.04,0.85 1.41,1.4 0.38,0.56 0.76,1.13 1.36,1.61 -0.22,-0.94 -0.69,-1.7 -0.97,-2.69 1.06,1.17 1.57,2.52 2.51,3.76 -0.23,-1.22 -0.6,-2.24 -0.82,-3.3 0.86,1.36 1.51,2.84 2.41,4.18 -0.08,-0.96 -0.53,-1.84 -0.56,-2.81 0.8,1.16 1.34,2.48 2.28,3.64 0.07,-0.61 -0.34,-1.03 -0.29,-1.64 0.56,0.59 1.09,1.08 1.67,1.52 0.13,0.1 0.26,0.33 0.43,0.2 0.19,-0.15 -0.03,-0.31 -0.1,-0.46 -0.3,-0.6 -0.68,-1.16 -1.21,-1.8 1.27,0.47 2.32,1.05 3.64,1.29 -1.2,-1.11 -2.59,-1.65 -3.84,-2.42 1.11,0.27 2.23,0.53 3.35,0.8 -1.75,-1.39 -3.98,-1.56 -5.9,-2.49 1.62,0.12 3.2,0.43 4.8,0.67 -0.93,-0.54 -1.94,-0.92 -2.95,-1.27 -1.03,-0.37 -2.11,-0.48 -3.18,-0.7 1.48,0.07 2.96,0.04 4.44,0.24 -1,-0.5 -2.07,-0.75 -3.15,-0.94 -1.06,-0.18 -2.13,-0.28 -3.21,-0.33 1.28,-0.07 2.56,-0.13 3.84,-0.02 -1.19,-0.52 -2.5,-0.49 -3.74,-0.72 0,-0.06 0.01,-0.11 0.02,-0.17l1.69 0c-2.17,-0.77 -4.4,-0.77 -6.64,-0.42 1.42,-0.52 2.91,-0.6 4.39,-0.75 -1.67,-0.52 -3.31,-0.17 -4.98,-0.05 0.6,-0.21 1.19,-0.42 1.78,-0.63 -1.57,-0.02 -3.08,0.47 -4.65,0.45 -0.01,-0.04 -0.02,-0.09 -0.02,-0.14 1.14,-0.27 2.28,-0.53 3.42,-0.8 -2.09,-0.62 -4.12,0.11 -6.17,0.15 1.03,-0.38 2.11,-0.58 3.09,-1.08 0.14,0.03 0.26,-0.02 0.14,-0.15 -0.11,-0.12 -0.29,-0.19 -0.45,-0.26 -0.81,-0.41 -1.62,-0.81 -2.58,-1.29 2.07,0.11 3.64,1.21 5.43,1.67 -0.58,-0.48 -1.17,-0.96 -1.75,-1.45 1.02,0.42 1.97,0.95 3.09,1.43 -0.44,-0.63 -1.08,-0.84 -1.43,-1.36 1.06,0.53 2.07,1.13 3.22,1.5l-1.9 -1.7c1.38,0.64 2.61,1.51 4.11,1.97 -0.64,-0.94 -1.62,-1.47 -2.21,-2.38 0.79,0.5 1.47,1.14 2.17,1.77 0.69,0.64 1.46,1.18 2.28,1.64 -0.75,-0.87 -1.51,-1.73 -2.27,-2.6 1.53,0.95 2.81,2.17 4.36,3.06 -0.72,-0.85 -1.44,-1.7 -2.16,-2.55 1.55,0.65 2.29,2.2 3.66,3.24 -0.39,-0.94 -0.95,-1.69 -1.3,-2.71 0.99,0.96 1.5,2.12 2.53,2.91 -0.1,-0.53 -0.45,-0.89 -0.48,-1.41 1.21,0.97 2.5,1.48 3.27,1.28z"/>
  </g>
 </g>
</svg>
